if (_typeface_js && _typeface_js.loadFace) _typeface_js.loadFace({"glyphs":{"0":{"ha":861,"x_min":119,"x_max":747,"o":"m 608 490 q 598 622 608 560 q 566 731 588 685 q 512 806 544 778 q 433 833 479 833 q 355 806 388 833 q 301 731 322 778 q 269 622 279 685 q 258 490 258 560 q 271 349 258 415 q 306 233 283 282 q 361 155 329 183 q 433 126 393 126 q 505 155 472 126 q 560 233 538 183 q 596 349 583 282 q 608 490 608 415 m 747 490 q 723 269 747 364 q 656 113 699 175 q 556 19 613 50 q 433 -12 499 -12 q 311 19 368 -12 q 211 113 254 50 q 144 269 168 175 q 119 490 119 364 q 144 691 119 601 q 211 843 168 781 q 311 939 254 906 q 433 972 368 972 q 556 939 499 972 q 656 843 613 906 q 723 691 699 781 q 747 490 747 601 z "},"1":{"ha":431,"x_min":146,"x_max":285,"o":"m 285 0 l 146 0 l 146 842 l 285 1004 l 285 0 z "},"2":{"ha":861,"x_min":147,"x_max":717,"o":"m 717 -1 l 147 -1 l 508 583 q 531 654 522 614 q 540 731 540 694 q 493 820 532 786 q 397 854 454 854 q 312 831 351 854 q 241 776 272 808 q 188 710 210 744 q 151 651 165 675 l 151 886 q 263 964 199 935 q 400 993 326 993 q 512 972 460 993 q 603 915 564 951 q 664 831 642 879 q 686 731 686 783 q 669 606 688 657 q 621 504 651 554 l 397 138 l 717 138 l 717 -1 z "},"3":{"ha":861,"x_min":118,"x_max":749,"o":"m 749 290 q 722 172 749 228 q 651 76 696 117 q 547 10 607 35 q 418 -14 486 -14 q 240 35 319 -14 q 118 165 161 85 l 224 254 q 299 160 247 196 q 418 125 351 125 q 488 138 456 125 q 545 174 521 151 q 583 226 569 196 q 597 290 597 257 q 582 366 597 331 q 540 427 567 401 q 478 468 514 453 q 403 483 443 483 q 345 482 376 483 q 289 478 314 481 l 496 835 l 131 835 l 131 972 l 735 972 l 519 597 q 612 551 569 581 q 684 481 654 521 q 731 392 714 440 q 749 290 749 343 z "},"4":{"ha":861,"x_min":8,"x_max":858,"o":"m 858 276 l 633 276 l 633 0 l 494 0 l 494 276 l 8 276 l 632 1021 l 632 415 l 858 415 l 858 276 m 494 415 l 494 640 l 307 415 l 494 415 z "},"5":{"ha":861,"x_min":114,"x_max":746,"o":"m 746 972 l 651 833 l 381 833 l 353 615 q 494 598 429 621 q 606 533 558 575 q 680 432 653 490 q 707 311 707 374 q 681 185 707 244 q 611 82 656 126 q 507 12 567 38 q 379 -14 447 -14 q 227 24 296 -14 q 114 126 158 61 l 194 242 q 278 157 235 189 q 385 125 322 125 q 453 138 421 125 q 509 174 485 151 q 548 228 533 197 q 563 294 563 260 q 547 366 563 332 q 505 425 532 400 q 442 465 478 450 q 365 479 406 479 q 287 477 325 479 q 193 454 249 475 l 263 972 l 746 972 z "},"6":{"ha":861,"x_min":129,"x_max":731,"o":"m 592 304 q 580 366 592 338 q 548 417 568 394 q 501 451 528 439 q 443 464 474 464 q 347 448 390 464 q 271 403 303 432 q 268 369 268 386 l 268 338 q 282 259 268 296 q 319 195 296 222 q 375 153 343 168 q 443 138 407 138 q 501 151 474 138 q 548 187 528 164 q 580 240 568 210 q 592 304 592 269 m 708 418 q 719 391 708 418 q 731 301 731 364 q 707 184 731 239 q 644 88 683 129 q 550 23 604 47 q 436 -1 496 -1 q 317 26 372 -1 q 219 99 261 53 q 153 206 178 144 q 129 338 129 268 q 155 525 129 431 q 227 706 181 619 q 340 865 274 792 q 486 993 406 939 l 644 993 q 452 803 540 910 q 315 572 364 696 q 378 594 346 586 q 443 601 411 601 q 554 578 501 601 q 646 513 607 554 q 708 418 685 472 z "},"7":{"ha":861,"x_min":110,"x_max":758,"o":"m 758 972 l 264 -1 l 110 -1 l 536 833 l 115 833 l 115 972 l 758 972 z "},"8":{"ha":861,"x_min":136,"x_max":728,"o":"m 576 219 q 583 233 576 219 q 589 281 589 247 q 576 340 589 314 q 542 386 564 365 q 491 425 519 407 q 432 460 463 443 q 372 426 400 443 q 321 387 343 408 q 286 339 299 365 q 274 279 274 313 q 286 219 274 247 q 320 171 299 192 q 371 138 342 150 q 432 126 400 126 q 492 138 464 126 q 542 171 521 150 q 576 219 564 192 m 728 279 q 704 166 728 219 q 640 73 681 113 q 547 10 600 33 q 432 -12 493 -12 q 317 10 371 -12 q 224 73 264 33 q 160 166 183 113 q 136 279 136 219 q 149 363 136 325 q 185 434 163 401 q 239 493 208 467 q 303 543 269 519 q 217 631 251 581 q 183 761 183 682 q 203 858 183 813 q 256 938 222 904 q 335 992 290 972 q 432 1013 381 1013 q 528 992 483 1013 q 608 938 574 972 q 661 858 642 904 q 681 761 681 813 q 645 631 681 682 q 558 542 610 579 q 622 492 592 518 q 676 435 653 467 q 714 365 700 403 q 728 279 728 326 m 542 761 q 510 840 542 807 q 432 874 478 874 q 354 840 386 874 q 322 761 322 807 q 353 689 322 721 q 431 625 383 657 q 510 688 478 656 q 542 761 542 719 z "},"9":{"ha":861,"x_min":110,"x_max":753,"o":"m 615 625 q 601 708 615 669 q 560 774 586 746 q 499 819 533 803 q 424 835 464 835 q 357 821 389 835 q 301 782 325 807 q 263 724 278 757 q 249 653 249 690 q 263 592 249 621 q 301 540 276 563 q 358 505 325 518 q 432 492 392 492 q 530 510 485 492 q 608 563 575 529 q 615 594 614 578 q 615 625 615 610 m 753 626 q 724 438 753 528 q 643 266 694 347 q 524 112 592 185 q 378 -24 456 39 l 200 -24 q 297 56 246 10 q 395 156 347 101 q 484 269 443 210 q 550 388 525 328 q 481 360 517 371 q 410 350 446 350 q 294 375 349 350 q 198 444 239 400 q 133 546 157 488 q 110 671 110 604 q 135 788 110 733 q 203 884 160 843 q 303 949 246 925 q 426 974 361 974 q 553 947 493 974 q 657 872 613 919 q 727 762 701 825 q 753 626 753 699 z "}," ":{"ha":347,"x_min":0,"x_max":0,"o":""},"!":{"ha":278,"x_min":46,"x_max":240,"o":"m 240 74 l 146 -21 l 46 75 l 140 169 l 240 74 m 208 850 l 179 217 l 101 217 l 69 850 l 69 972 l 208 972 l 208 850 z "},"\"":{"ha":497,"x_min":17,"x_max":486,"o":"m 235 822 q 218 748 235 782 q 172 689 201 714 q 102 649 142 664 q 17 635 63 635 l 17 650 q 47 667 33 656 q 72 697 61 678 q 90 747 83 717 q 96 822 96 776 l 96 972 l 235 972 l 235 822 m 486 856 q 469 781 486 815 q 422 722 451 747 q 353 683 393 697 q 267 668 313 668 l 267 683 q 297 700 283 689 q 322 731 311 711 q 340 780 333 750 q 346 856 346 810 l 346 972 l 486 972 l 486 856 z "},"#":{"ha":1000,"x_min":46,"x_max":807,"o":"m 807 615 l 807 615 l 792 550 l 607 550 l 560 379 l 747 379 l 729 318 l 544 318 l 492 121 l 426 121 l 478 318 l 300 318 l 247 121 l 179 121 l 233 318 l 46 318 l 63 379 l 250 379 l 296 550 l 107 550 l 124 615 l 314 615 l 365 806 l 431 806 l 379 615 l 557 615 l 608 806 l 676 806 l 624 615 l 807 615 m 540 550 l 540 550 l 363 550 l 317 379 l 496 379 l 540 550 z "},"$":{"ha":611,"x_min":50,"x_max":578,"o":"m 222 836 l 222 993 q 228 999 222 999 l 349 999 q 354 994 354 999 l 354 835 q 517 781 483 817 l 517 621 q 290 707 428 707 q 222 694 250 707 q 193 646 193 682 q 222 593 193 610 q 293 566 250 576 q 385 545 336 556 q 478 514 435 535 q 578 358 578 465 q 533 246 578 303 q 360 138 478 176 l 360 7 q 354 1 360 1 l 233 1 q 229 6 229 1 l 228 147 q 50 226 136 174 l 50 414 q 147 310 83 347 q 290 272 211 272 q 374 281 347 272 q 440 353 440 301 q 412 397 440 382 q 340 421 383 411 l 247 442 q 83 536 133 467 q 54 630 54 575 q 73 722 54 685 q 135 789 92 758 q 222 836 179 819 z "},"%":{"ha":1000,"x_min":47,"x_max":946,"o":"m 454 739 q 438 660 454 697 q 395 594 422 622 q 331 551 368 567 q 251 535 293 535 q 172 551 210 535 q 107 594 135 567 q 63 660 79 622 q 47 739 47 697 q 63 818 47 781 q 107 883 79 856 q 172 926 135 910 q 251 942 208 942 q 331 926 294 942 q 395 883 368 910 q 438 819 422 856 q 454 739 454 782 m 790 926 l 326 0 l 193 0 l 660 926 l 790 926 m 946 186 q 930 107 946 144 q 886 42 914 69 q 821 -1 858 15 q 742 -17 783 -17 q 661 -1 699 -17 q 595 43 624 15 q 551 108 567 71 q 535 189 535 146 q 551 269 535 232 q 594 335 567 307 q 659 378 622 363 q 739 394 696 394 q 819 378 781 394 q 885 333 857 361 q 929 267 913 304 q 946 186 946 229 m 347 742 q 319 808 347 782 q 249 835 292 835 q 181 808 208 835 q 153 740 153 781 q 181 672 153 700 q 251 644 210 644 q 319 673 292 644 q 347 742 347 701 m 838 188 q 838 194 838 188 q 808 258 838 232 q 740 285 778 285 q 672 256 700 285 q 643 188 643 228 q 672 119 643 147 q 742 90 701 90 q 810 119 782 90 q 838 188 838 147 z "},"&":{"ha":908,"x_min":7,"x_max":894,"o":"m 465 233 q 275 426 465 233 q 238 411 260 422 q 196 382 217 400 q 160 338 175 364 q 146 274 146 311 q 158 215 146 242 q 190 167 169 188 q 237 135 210 147 q 293 124 264 124 q 390 153 343 124 q 465 233 438 182 m 894 0 l 704 0 l 568 129 q 444 24 521 63 q 288 -15 368 -15 q 173 13 225 -11 q 84 74 121 36 q 27 162 47 111 q 7 274 7 213 q 53 428 7 361 q 172 531 99 494 q 114 619 140 564 q 88 735 88 675 q 107 826 88 782 q 159 901 126 869 q 236 953 192 933 q 331 972 281 972 q 428 953 382 972 q 508 903 474 935 q 563 828 543 871 q 583 739 583 786 q 567 647 583 688 q 526 576 551 607 q 470 524 501 546 q 408 489 439 503 l 556 342 l 667 514 l 833 514 l 656 242 l 894 0 m 444 742 q 411 806 444 778 q 331 833 378 833 q 257 803 288 833 q 226 735 226 774 q 233 687 226 706 q 249 653 239 668 q 273 627 260 639 q 301 600 286 615 q 353 617 328 606 q 399 646 379 628 q 432 688 419 664 q 444 742 444 711 z "},"(":{"ha":278,"x_min":-1,"x_max":276,"o":"m 276 -326 q 138 -326 276 -326 q 81 -172 106 -251 q 37 -3 56 -92 q 8 184 18 85 q -1 396 -1 283 q 8 608 -1 508 q 36 796 18 707 q 79 965 54 885 q 136 1121 104 1046 l 272 1121 q 217 965 242 1046 q 174 796 192 885 q 147 608 157 707 q 138 396 138 508 q 147 184 138 283 q 176 -3 157 85 q 219 -172 194 -92 q 276 -326 244 -251 z "},")":{"ha":278,"x_min":-4,"x_max":278,"o":"m 278 399 q 267 185 278 285 q 238 -3 257 86 q 193 -172 219 -92 q 135 -326 167 -251 l -4 -326 q 54 -172 28 -251 q 99 -3 81 -92 q 128 185 118 86 q 139 399 139 285 q 129 610 139 511 q 101 797 119 708 q 56 965 82 885 q 0 1121 31 1046 l 136 1121 q 194 965 168 1046 q 240 797 221 885 q 268 610 258 708 q 278 399 278 511 z "},"*":{"ha":561,"x_min":28,"x_max":551,"o":"m 551 649 l 489 535 l 313 685 l 357 456 l 229 453 l 269 681 l 93 529 l 28 638 l 250 719 l 28 797 l 90 910 l 271 756 l 225 993 l 357 993 l 314 758 l 485 914 l 550 804 l 332 725 l 551 649 z "},"+":{"ha":703,"x_min":85,"x_max":619,"o":"m 619 408 l 619 408 l 419 408 l 419 199 l 283 199 l 283 408 l 85 408 l 85 544 l 283 544 l 283 754 l 419 754 l 419 544 l 619 544 l 619 408 z "},",":{"ha":218,"x_min":3,"x_max":221,"o":"m 221 -11 q 204 -85 221 -51 q 158 -144 188 -119 q 88 -184 128 -169 q 3 -199 49 -199 l 3 -183 q 33 -167 19 -178 q 58 -136 47 -156 q 76 -87 69 -117 q 82 -11 82 -57 l 82 139 l 221 139 l 221 -11 z "},"-":{"ha":526,"x_min":43,"x_max":475,"o":"m 475 306 l 475 306 l 43 306 l 43 458 l 475 458 l 475 306 z "},".":{"ha":188,"x_min":28,"x_max":167,"o":"m 167 0 l 28 0 l 28 135 l 167 135 l 167 0 z "},"/":{"ha":415,"x_min":-1,"x_max":424,"o":"m 424 1150 l 151 -206 l -1 -206 l 281 1150 l 424 1150 z "},":":{"ha":364,"x_min":108,"x_max":247,"o":"m 247 3 l 108 3 l 108 139 l 247 139 l 247 3 m 247 475 l 108 475 l 108 611 l 247 611 l 247 475 z "},";":{"ha":443,"x_min":108,"x_max":326,"o":"m 326 -11 q 310 -85 326 -51 q 263 -144 293 -119 q 194 -184 233 -169 q 108 -199 154 -199 l 108 -183 q 139 -167 125 -178 q 164 -136 153 -156 q 181 -87 175 -117 q 188 -11 188 -57 l 188 139 l 326 139 l 326 -11 m 326 475 l 188 475 l 188 611 l 326 611 l 326 475 z "},"<":{"ha":467,"x_min":42,"x_max":421,"o":"m 286 413 l 286 413 l 421 221 l 43 479 l 418 742 l 286 551 l 286 413 z "},"=":{"ha":728,"x_min":54,"x_max":674,"o":"m 674 438 l 674 438 l 54 438 l 54 553 l 674 553 l 674 438 m 674 113 l 674 113 l 54 113 l 54 228 l 674 228 l 674 113 z "},">":{"ha":467,"x_min":42,"x_max":421,"o":"m 176 413 l 176 551 l 46 742 l 421 479 l 43 221 l 176 413 l 176 413 z "},"?":{"ha":625,"x_min":43,"x_max":583,"o":"m 397 82 l 300 -15 l 203 82 l 300 181 l 397 82 m 583 750 q 569 650 586 692 q 526 578 553 608 q 468 528 500 549 l 408 486 q 361 449 381 468 q 340 403 342 429 q 346 369 340 383 q 361 344 351 356 q 381 324 371 333 l 403 303 l 301 207 q 269 244 286 226 q 235 282 251 261 q 206 329 218 303 q 193 393 194 356 q 211 465 192 432 q 259 526 231 497 q 321 580 288 554 q 383 631 354 606 q 429 683 411 657 q 444 742 447 710 q 407 822 444 789 q 313 854 369 854 q 219 828 261 854 q 160 738 176 801 l 43 811 q 75 874 53 842 q 133 932 97 906 q 216 976 168 958 q 322 993 264 993 q 425 975 378 993 q 506 925 472 957 q 560 849 540 893 q 583 750 581 804 z "},"@":{"ha":1107,"x_min":65,"x_max":1054,"o":"m 1004 722 q 1032 660 1021 692 q 1048 598 1043 629 q 1053 535 1053 567 q 928 261 1053 356 q 810 211 871 219 q 753 209 779 207 q 708 219 728 211 q 684 230 694 224 q 666 242 674 236 q 651 257 658 249 q 640 249 644 253 q 631 241 635 244 q 622 233 626 238 l 621 233 q 600 223 611 228 q 578 215 589 218 q 555 209 567 211 q 531 207 543 207 q 436 219 481 201 l 436 219 q 346 356 347 274 q 424 489 344 439 q 642 544 499 536 q 641 579 643 565 q 633 600 639 593 l 633 601 q 575 640 613 631 q 507 643 538 650 q 375 582 476 635 l 368 578 l 371 586 q 418 703 390 649 l 418 704 l 419 704 q 463 721 440 714 q 508 731 485 728 q 555 733 531 733 q 601 729 579 733 q 644 717 624 725 q 685 694 665 708 l 686 694 q 708 674 697 685 q 725 651 718 663 q 738 627 732 639 q 746 602 743 615 q 749 575 749 589 q 748 542 749 558 q 746 506 747 525 q 743 453 743 469 l 744 453 l 743 451 q 743 448 743 450 q 742 442 743 446 q 742 435 742 439 q 741 426 742 431 q 740 415 740 421 q 740 392 740 403 q 742 374 740 382 q 753 343 746 353 q 774 333 761 333 q 881 374 835 331 q 936 489 928 418 q 931 565 940 525 q 897 650 921 606 q 719 809 835 756 q 489 838 603 863 q 299 741 375 814 q 194 567 224 668 q 185 516 188 542 q 183 464 182 490 q 189 412 183 438 q 204 358 194 386 q 313 190 242 251 q 468 108 385 129 q 547 93 508 97 q 619 90 585 89 q 778 114 690 94 l 786 117 l 782 110 q 772 87 779 104 q 753 42 765 69 q 744 21 749 31 q 738 4 740 11 q 733 -8 735 -3 q 730 -17 731 -14 q 728 -21 729 -19 l 728 -22 l 726 -22 q 437 -16 590 -60 q 190 126 283 28 q 66 354 97 224 q 74 615 35 485 q 210 838 113 744 q 444 967 307 932 q 501 978 474 974 q 556 982 528 982 q 610 978 583 982 q 714 958 665 972 q 805 922 763 944 q 883 871 847 900 q 950 804 919 842 q 1004 722 981 767 m 478 321 q 535 306 510 301 q 557 310 547 308 q 572 314 567 313 q 607 325 585 317 q 624 332 617 329 q 636 336 632 335 l 636 457 q 617 454 628 456 q 590 450 607 453 q 565 446 576 449 q 542 440 553 443 q 522 434 531 438 q 505 427 513 431 q 492 419 497 424 q 467 394 475 408 q 457 360 458 379 q 459 347 457 353 q 466 334 461 340 q 478 321 471 328 z "},"A":{"ha":938,"x_min":17,"x_max":924,"o":"m 924 -1 l 771 -1 l 676 238 l 264 238 l 169 -1 l 17 -1 l 422 972 l 518 972 l 924 -1 m 615 375 l 471 728 l 325 375 l 615 375 z "},"B":{"ha":743,"x_min":68,"x_max":710,"o":"m 560 286 q 545 354 560 322 q 506 410 531 386 q 447 447 481 433 q 376 461 414 461 l 281 461 l 207 461 l 207 139 l 379 139 q 449 151 417 139 q 506 183 482 163 q 545 230 531 203 q 560 286 560 257 m 458 719 q 447 764 458 743 q 417 800 436 785 q 372 824 397 815 q 318 833 346 833 l 207 833 l 207 600 l 322 600 q 374 610 350 600 q 417 635 399 619 q 447 673 436 651 q 458 719 458 694 m 710 288 q 683 176 710 229 q 612 85 657 124 q 506 23 567 46 q 378 0 446 0 l 68 0 l 68 972 l 318 972 q 428 953 376 972 q 519 899 481 933 q 581 818 558 864 q 603 719 603 772 q 585 635 603 675 q 535 563 567 594 q 661 449 613 522 q 710 288 710 376 z "},"C":{"ha":935,"x_min":43,"x_max":900,"o":"m 900 711 q 749 815 840 775 q 554 854 658 854 q 410 826 478 854 q 291 751 342 799 q 211 641 240 704 q 182 507 182 578 q 212 356 182 426 q 292 232 242 285 q 411 149 343 179 q 557 118 479 118 q 750 160 661 118 q 897 275 839 203 l 897 88 q 735 8 824 36 q 550 -21 647 -21 q 353 21 446 -21 q 192 134 261 63 q 83 302 124 206 q 43 507 43 399 q 83 695 43 607 q 192 849 124 783 q 353 954 261 915 q 550 993 446 993 q 737 967 649 993 q 900 893 825 940 l 900 711 z "},"D":{"ha":951,"x_min":71,"x_max":911,"o":"m 772 503 q 743 631 772 571 q 665 735 714 690 q 549 807 615 781 q 411 833 483 833 l 210 833 l 210 139 l 411 139 q 550 168 485 139 q 665 247 615 197 q 743 362 714 296 q 772 503 772 428 m 911 507 q 872 310 911 403 q 764 149 832 218 q 605 40 696 81 q 411 0 514 0 l 71 0 l 71 972 l 408 972 q 603 935 511 972 q 763 835 694 899 q 872 687 832 771 q 911 507 911 603 z "},"E":{"ha":715,"x_min":71,"x_max":682,"o":"m 682 0 l 71 0 l 71 972 l 654 972 l 654 833 l 210 833 l 210 590 l 547 590 l 547 451 l 210 451 l 210 142 l 682 142 l 682 0 z "},"F":{"ha":688,"x_min":71,"x_max":654,"o":"m 654 833 l 210 833 l 210 590 l 547 590 l 547 451 l 210 451 l 210 3 l 71 3 l 71 972 l 654 972 l 654 833 z "},"G":{"ha":1000,"x_min":44,"x_max":943,"o":"m 943 88 q 760 8 860 36 q 551 -21 661 -21 q 355 21 447 -21 q 194 134 263 63 q 85 302 125 206 q 44 507 44 399 q 85 695 44 607 q 194 849 125 783 q 355 954 263 915 q 551 993 447 993 q 751 967 656 993 q 926 893 846 940 l 926 726 q 765 819 861 783 q 556 854 668 854 q 411 826 479 854 q 292 751 343 799 q 213 641 242 704 q 183 507 183 578 q 213 356 183 426 q 294 232 243 285 q 413 149 344 179 q 558 118 481 118 q 804 169 693 118 l 804 407 l 632 407 l 632 546 l 943 546 l 943 88 z "},"H":{"ha":914,"x_min":69,"x_max":843,"o":"m 843 0 l 704 0 l 704 432 l 208 432 l 208 0 l 69 0 l 69 972 l 208 972 l 208 571 l 704 571 l 704 972 l 843 972 l 843 0 z "},"I":{"ha":278,"x_min":69,"x_max":208,"o":"m 208 0 l 69 0 l 69 972 l 208 972 l 208 0 z "},"J":{"ha":594,"x_min":19,"x_max":538,"o":"m 538 267 q 517 156 538 208 q 462 64 497 103 q 380 2 426 25 q 279 -21 333 -21 q 190 -7 232 -21 q 115 31 149 7 q 56 89 81 56 q 19 163 32 122 l 158 231 q 192 151 158 185 q 272 118 225 118 q 320 130 297 118 q 360 162 343 142 q 386 208 376 182 q 396 264 396 235 l 396 972 l 538 972 l 538 267 z "},"K":{"ha":847,"x_min":71,"x_max":832,"o":"m 832 0 l 646 0 l 207 467 l 207 0 l 71 0 l 71 972 l 210 972 l 210 593 l 613 947 l 799 947 l 332 536 l 832 0 z "},"L":{"ha":667,"x_min":71,"x_max":651,"o":"m 651 1 l 71 1 l 71 974 l 210 974 l 210 140 l 651 140 l 651 1 z "},"M":{"ha":1097,"x_min":71,"x_max":1029,"o":"m 1029 0 l 893 0 l 893 756 l 550 336 l 207 756 l 207 0 l 71 0 l 71 971 l 210 971 l 550 556 l 890 971 l 1029 971 l 1029 0 z "},"N":{"ha":1032,"x_min":71,"x_max":949,"o":"m 949 0 l 810 0 l 206 754 l 206 0 l 71 0 l 71 972 l 210 972 l 813 221 l 813 972 l 949 972 l 949 0 z "},"O":{"ha":1097,"x_min":43,"x_max":1057,"o":"m 918 503 q 889 639 918 575 q 810 751 860 703 q 694 826 760 799 q 554 854 628 854 q 410 826 478 854 q 291 751 342 799 q 211 641 240 704 q 182 507 182 578 q 212 356 182 426 q 292 232 242 285 q 411 149 343 179 q 557 118 479 118 q 696 149 631 118 q 810 232 761 179 q 889 354 860 285 q 918 503 918 424 m 1057 507 q 1017 302 1057 399 q 908 134 976 206 q 747 21 839 63 q 550 -21 654 -21 q 353 21 446 -21 q 192 134 261 63 q 83 302 124 206 q 43 507 43 399 q 83 695 43 607 q 192 849 124 783 q 353 954 261 915 q 550 993 446 993 q 747 954 654 993 q 908 849 839 915 q 1017 695 976 783 q 1057 507 1057 607 z "},"P":{"ha":694,"x_min":71,"x_max":653,"o":"m 514 679 q 499 738 514 710 q 457 788 483 767 q 395 821 431 808 q 319 833 360 833 l 210 833 l 210 525 l 319 525 q 409 538 372 525 q 469 571 446 550 q 503 619 493 592 q 514 679 514 647 m 653 679 q 626 565 653 618 q 555 472 600 513 q 449 409 510 432 q 319 386 388 386 l 210 386 l 210 1 l 71 1 l 71 972 l 318 972 q 447 949 386 972 q 554 885 508 925 q 626 792 600 846 q 653 679 653 739 z "},"Q":{"ha":1097,"x_min":43,"x_max":1067,"o":"m 918 503 q 889 639 918 575 q 810 751 860 703 q 694 826 760 799 q 554 854 628 854 q 410 826 478 854 q 291 751 342 799 q 211 641 240 704 q 182 507 182 578 q 212 356 182 426 q 292 232 242 285 q 411 149 343 179 q 557 118 479 118 q 749 178 661 118 l 663 253 l 753 356 l 846 275 q 899 381 879 324 q 918 503 918 439 m 1067 82 l 975 -21 l 854 86 q 713 7 790 35 q 550 -21 635 -21 q 353 21 446 -21 q 192 134 261 63 q 83 302 124 206 q 43 507 43 399 q 83 695 43 607 q 192 849 124 783 q 353 954 261 915 q 550 993 446 993 q 747 954 654 993 q 908 849 839 915 q 1017 695 976 783 q 1057 507 1057 607 q 1028 333 1057 415 q 950 185 1000 251 l 1067 82 z "},"R":{"ha":806,"x_min":71,"x_max":789,"o":"m 478 696 q 465 749 478 724 q 429 792 451 774 q 377 822 407 811 q 315 833 347 833 l 210 833 l 210 554 l 358 554 q 403 565 382 554 q 442 596 425 576 q 468 641 458 615 q 478 696 478 667 m 789 4 l 619 4 l 338 410 l 210 410 l 210 0 l 71 0 l 71 972 l 332 972 q 443 950 390 972 q 535 890 496 928 q 599 802 575 853 q 622 696 622 751 q 585 553 622 617 q 485 447 547 489 l 789 4 z "},"S":{"ha":601,"x_min":4,"x_max":599,"o":"m 599 293 q 575 179 599 232 q 511 86 551 126 q 417 23 471 46 q 301 0 363 0 q 117 54 197 0 q 4 196 38 108 l 126 271 q 186 176 138 214 q 301 139 235 139 q 363 151 333 139 q 413 185 392 164 q 447 233 435 206 q 460 293 460 261 q 428 378 460 347 q 349 433 396 410 q 246 475 301 456 q 144 525 190 494 q 67 603 97 556 q 38 728 36 650 q 55 822 38 778 q 105 900 72 867 q 183 953 138 933 q 283 972 228 972 q 430 931 365 972 q 526 826 494 890 l 401 738 q 389 774 399 757 q 363 805 379 792 q 326 826 347 818 q 283 833 306 833 q 208 802 240 833 q 176 728 176 771 q 208 658 176 683 q 286 614 239 633 q 388 574 333 594 q 489 520 442 554 q 567 433 536 486 q 599 293 599 379 z "},"T":{"ha":775,"x_min":15,"x_max":760,"o":"m 760 833 l 457 833 l 457 0 l 318 0 l 318 833 l 15 833 l 15 972 l 760 972 l 760 833 z "},"U":{"ha":956,"x_min":57,"x_max":899,"o":"m 899 392 q 866 232 899 307 q 776 101 833 157 q 642 12 718 44 q 478 -21 565 -21 q 314 12 390 -21 q 180 101 238 44 q 90 232 122 157 q 57 392 57 307 l 57 972 l 196 972 l 196 393 q 218 286 196 336 q 278 199 240 236 q 368 140 317 161 q 478 118 419 118 q 588 140 536 118 q 677 199 639 161 q 738 286 715 236 q 760 393 760 336 l 760 972 l 899 972 l 899 392 z "},"V":{"ha":935,"x_min":17,"x_max":913,"o":"m 913 972 l 519 1 l 410 1 l 17 972 l 165 972 l 465 233 l 764 972 l 913 972 z "},"W":{"ha":1382,"x_min":18,"x_max":1368,"o":"m 1368 969 l 1047 1 l 908 1 l 693 706 l 478 1 l 339 1 l 18 969 l 165 969 l 408 238 l 621 942 l 765 942 l 978 238 l 1221 969 l 1368 969 z "},"X":{"ha":993,"x_min":17,"x_max":979,"o":"m 979 0 l 800 0 l 497 399 l 193 0 l 17 0 l 408 515 l 61 972 l 236 972 l 496 631 l 757 972 l 932 972 l 585 514 l 979 0 z "},"Y":{"ha":796,"x_min":21,"x_max":782,"o":"m 782 972 l 471 485 l 471 0 l 332 0 l 332 485 l 21 972 l 185 972 l 401 633 l 618 972 l 782 972 z "},"Z":{"ha":931,"x_min":46,"x_max":910,"o":"m 910 972 l 315 140 l 896 140 l 896 0 l 46 1 l 642 833 l 74 833 l 74 972 l 910 972 z "},"[":{"ha":400,"x_min":97,"x_max":358,"o":"m 358 1104 l 358 983 q 353 978 358 978 l 240 978 l 228 974 l 228 17 l 354 17 q 358 11 358 17 l 358 -110 q 353 -114 358 -114 l 104 -114 l 97 -110 l 97 1104 q 103 1110 99 1110 l 353 1110 q 358 1104 358 1110 z "},"\\":{"ha":415,"x_min":-1,"x_max":424,"o":"m -1 1150 l 142 1150 l 424 -206 l 271 -206 l -1 1150 z "},"]":{"ha":400,"x_min":42,"x_max":303,"o":"m 303 -108 q 297 -112 300 -112 l 47 -112 q 42 -108 42 -112 l 42 13 q 47 18 42 18 l 172 18 l 172 975 q 164 979 175 975 l 47 979 q 42 985 42 979 l 42 1106 q 47 1111 42 1111 l 297 1111 l 303 1106 l 303 -108 z "},"^":{"ha":624,"x_min":14,"x_max":610,"o":"m 304 779 q 325 776 314 789 l 610 490 q 607 485 618 485 l 433 485 l 313 604 l 193 485 l 17 485 q 14 487 15 485 q 14 490 13 489 l 304 779 z "},"_":{"ha":878,"x_min":-3,"x_max":881,"o":"m 881 -126 l 878 -131 l 3 -131 q -3 -122 -3 -131 l -3 -6 l 1 0 l 876 0 l 881 -3 l 881 -126 z "},"`":{"ha":340,"x_min":42,"x_max":299,"o":"m 42 936 l 299 800 l 297 688 l 42 819 l 42 936 z "},"a":{"ha":636,"x_min":50,"x_max":579,"o":"m 440 147 q 440 278 440 147 q 340 274 388 278 q 258 259 293 269 q 203 229 224 249 q 183 179 183 210 q 222 122 183 135 q 314 110 260 110 q 378 120 344 110 q 440 147 413 131 m 579 0 l 440 0 l 440 35 q 359 -1 404 11 q 276 -14 314 -14 q 188 1 229 -14 q 117 42 147 15 q 68 102 86 68 q 50 176 50 136 q 70 264 50 222 q 137 336 90 306 q 258 385 183 367 q 440 403 332 403 q 435 467 440 439 q 414 515 429 496 q 372 543 399 533 q 306 553 346 553 q 192 533 246 553 q 79 460 138 513 l 65 460 l 118 635 q 210 676 157 660 q 311 692 263 692 q 394 683 347 692 q 481 644 440 674 q 551 559 522 615 q 579 410 579 503 l 579 0 z "},"b":{"ha":764,"x_min":71,"x_max":721,"o":"m 582 329 q 566 406 582 369 q 522 469 550 442 q 458 512 494 496 q 381 528 422 528 q 285 510 329 528 q 210 464 242 493 l 210 188 q 286 142 242 158 q 381 125 331 125 q 458 141 422 125 q 522 185 494 157 q 566 250 550 213 q 582 329 582 288 m 721 329 q 694 196 721 258 q 620 87 667 133 q 512 13 574 40 q 381 -14 450 -14 q 290 -2 333 -14 q 210 32 247 10 l 210 0 l 71 0 l 71 972 l 210 972 l 210 619 q 291 654 247 642 q 382 667 335 667 q 513 640 451 667 q 621 567 575 613 q 694 460 667 521 q 721 329 721 399 z "},"c":{"ha":639,"x_min":43,"x_max":604,"o":"m 604 44 q 500 1 556 17 q 383 -14 444 -14 q 251 13 313 -14 q 143 87 189 40 q 70 196 97 133 q 43 329 43 258 q 70 460 43 399 q 144 567 97 521 q 252 640 190 613 q 385 667 314 667 q 501 651 446 667 q 604 608 556 636 l 604 442 q 509 504 567 481 q 383 528 451 528 q 305 512 342 528 q 241 469 268 496 q 198 405 214 442 q 182 328 182 368 q 198 249 182 286 q 241 184 214 211 q 305 141 268 157 q 383 125 342 125 q 509 148 451 125 q 604 211 567 171 l 604 44 z "},"d":{"ha":764,"x_min":43,"x_max":693,"o":"m 693 0 l 554 0 l 554 32 q 474 -2 517 10 q 383 -14 431 -14 q 252 13 314 -14 q 144 87 190 40 q 70 196 97 133 q 43 329 43 258 q 70 460 43 399 q 143 567 97 521 q 251 640 189 613 q 382 667 313 667 q 473 654 429 667 q 554 619 517 642 l 554 972 l 693 972 l 693 0 m 554 464 q 478 510 522 493 q 383 528 435 528 q 306 512 342 528 q 242 469 269 496 q 198 406 214 442 q 182 329 182 369 q 198 250 182 288 q 242 185 214 213 q 306 141 269 157 q 383 125 342 125 q 478 142 433 125 q 554 188 522 158 l 554 464 z "},"e":{"ha":747,"x_min":43,"x_max":711,"o":"m 553 446 q 539 489 553 468 q 502 525 525 510 q 449 550 479 540 q 383 560 418 560 q 271 527 321 560 q 197 446 221 494 l 553 446 m 711 313 q 186 313 711 313 q 216 238 194 272 q 269 178 238 203 q 340 138 300 153 q 425 124 381 124 q 560 147 497 124 q 668 208 624 171 l 668 64 q 544 7 611 28 q 404 -14 476 -14 q 263 15 329 -14 q 149 94 197 44 q 72 212 100 144 q 43 354 43 279 q 70 485 43 424 q 144 592 97 546 q 252 665 190 638 q 385 692 314 692 q 515 671 451 692 q 626 604 579 650 q 698 486 674 558 q 711 313 722 414 z "},"f":{"ha":504,"x_min":11,"x_max":486,"o":"m 486 838 q 415 863 447 860 q 350 867 382 867 q 286 829 311 867 q 261 739 261 792 l 261 638 l 481 638 l 481 497 l 261 497 l 261 3 l 122 3 l 122 499 l 11 499 l 11 636 l 122 636 l 122 767 q 140 858 122 815 q 189 933 158 901 q 260 984 219 965 q 349 1003 301 1003 q 418 994 381 1003 q 486 975 456 986 l 486 838 z "},"g":{"ha":667,"x_min":14,"x_max":664,"o":"m 518 -112 q 460 -41 518 -71 q 311 -3 403 -11 q 201 -49 240 -22 q 161 -110 161 -76 q 212 -172 161 -146 q 339 -197 263 -197 q 467 -172 415 -197 q 518 -112 518 -147 m 443 403 q 448 414 443 403 q 453 450 453 425 q 443 497 453 475 q 417 534 433 518 q 380 560 401 550 q 335 569 358 569 q 288 560 310 569 q 251 534 267 550 q 226 497 235 518 q 217 450 217 475 q 226 403 217 425 q 251 365 235 381 q 288 339 267 349 q 335 329 310 329 q 380 339 358 329 q 417 365 401 349 q 443 403 433 381 m 664 -112 q 639 -201 664 -160 q 570 -272 614 -242 q 467 -319 526 -301 q 340 -336 408 -336 q 212 -324 271 -336 q 108 -283 153 -311 q 39 -212 64 -256 q 14 -108 14 -169 q 63 -3 25 -47 q 154 61 100 40 q 116 116 132 85 q 100 183 100 147 q 110 238 100 211 q 140 283 121 264 q 78 449 78 350 q 98 549 78 501 q 153 631 118 596 q 235 688 188 667 q 335 708 282 708 q 413 696 375 708 q 483 660 451 683 q 642 660 483 660 l 642 528 l 585 528 q 595 490 592 508 q 599 451 599 471 q 582 360 599 403 q 538 283 565 317 q 472 229 510 250 q 392 203 435 208 q 378 201 385 201 l 365 201 q 278 211 315 201 q 262 201 268 206 q 256 190 256 197 q 261 169 256 178 q 279 156 267 161 q 313 144 292 150 l 363 129 q 475 101 421 118 q 571 57 529 85 q 638 -12 613 29 q 664 -112 664 -53 z "},"h":{"ha":726,"x_min":71,"x_max":671,"o":"m 671 0 l 532 0 l 532 396 q 520 447 532 422 q 488 489 508 471 q 439 517 467 507 q 379 528 411 528 q 282 502 326 528 q 210 436 238 476 l 210 0 l 71 0 l 71 972 l 210 972 l 210 619 q 290 654 247 642 q 381 667 333 667 q 491 645 439 667 q 583 586 543 624 q 647 499 624 549 q 671 396 671 450 l 671 0 z "},"i":{"ha":278,"x_min":43,"x_max":238,"o":"m 208 0 l 71 0 l 71 658 l 208 658 l 208 0 m 238 831 l 140 733 l 43 831 l 140 929 l 238 831 z "},"j":{"ha":278,"x_min":-79,"x_max":238,"o":"m 208 0 q 197 -151 208 -87 q 153 -257 185 -215 q 65 -318 121 -299 q -79 -337 8 -337 l -79 -199 q 1 -186 -29 -199 q 46 -149 31 -174 q 66 -87 61 -124 q 71 0 71 -50 l 71 658 l 208 658 l 208 0 m 238 831 l 140 733 l 43 831 l 140 929 l 238 831 z "},"k":{"ha":715,"x_min":71,"x_max":703,"o":"m 703 -1 l 508 -1 l 210 314 l 210 0 l 71 0 l 71 972 l 210 972 l 210 444 l 435 638 l 646 638 l 344 374 l 703 -1 z "},"l":{"ha":451,"x_min":64,"x_max":451,"o":"m 451 33 q 378 -2 419 11 q 300 -15 336 -15 q 207 1 250 -15 q 132 48 164 18 q 82 118 100 78 q 64 206 64 158 l 64 969 l 203 969 l 203 247 q 231 158 203 193 q 300 124 258 124 q 378 137 336 124 q 451 174 419 150 l 451 33 z "},"m":{"ha":1160,"x_min":71,"x_max":1106,"o":"m 1106 0 l 967 0 l 967 392 q 955 442 967 418 q 922 485 943 467 q 874 513 901 503 q 814 524 846 524 q 729 500 769 524 q 657 436 689 476 l 657 0 l 518 0 l 518 392 q 506 442 518 418 q 474 485 494 467 q 425 513 453 503 q 365 524 397 524 q 278 508 318 524 q 213 467 239 493 l 213 0 l 71 0 l 71 660 l 214 660 l 214 619 q 294 654 251 642 q 385 667 338 667 q 497 639 444 667 q 589 567 550 611 q 706 640 644 614 q 833 667 767 667 q 937 644 888 667 q 1024 585 986 622 q 1083 497 1061 547 q 1106 392 1106 447 l 1106 0 z "},"n":{"ha":726,"x_min":71,"x_max":671,"o":"m 671 0 l 532 0 l 532 396 q 520 447 532 422 q 488 489 508 471 q 439 517 467 507 q 379 528 411 528 q 282 511 326 528 q 210 467 238 494 l 210 0 l 71 0 l 71 660 l 210 660 l 210 619 q 290 654 247 642 q 381 667 333 667 q 491 645 439 667 q 583 586 543 624 q 647 499 624 549 q 671 396 671 450 l 671 0 z "},"o":{"ha":764,"x_min":43,"x_max":724,"o":"m 585 329 q 569 406 585 369 q 525 469 553 442 q 461 512 497 496 q 383 528 425 528 q 305 512 342 528 q 241 469 268 496 q 198 405 214 442 q 182 328 182 368 q 198 249 182 286 q 241 184 214 211 q 305 141 268 157 q 383 125 342 125 q 461 141 425 125 q 525 185 497 157 q 569 250 553 213 q 585 329 585 288 m 724 329 q 697 196 724 258 q 623 87 669 133 q 515 13 576 40 q 383 -14 453 -14 q 251 13 313 -14 q 143 87 189 40 q 70 196 97 133 q 43 329 43 258 q 70 460 43 399 q 144 567 97 521 q 252 640 190 613 q 385 667 314 667 q 516 640 454 667 q 624 567 578 613 q 697 460 669 521 q 724 329 724 399 z "},"p":{"ha":771,"x_min":71,"x_max":728,"o":"m 589 329 q 573 406 589 369 q 529 469 557 442 q 465 512 501 496 q 388 528 429 528 q 288 509 333 528 q 210 460 242 490 l 210 201 q 288 145 242 165 q 388 125 333 125 q 465 141 429 125 q 529 185 501 157 q 573 250 557 213 q 589 329 589 288 m 728 329 q 701 196 728 258 q 627 87 674 133 q 519 13 581 40 q 388 -14 457 -14 q 294 -1 339 -14 q 210 36 249 13 l 210 -312 l 71 -312 l 71 660 l 210 660 l 210 622 q 294 655 250 643 q 389 667 339 667 q 520 640 458 667 q 628 567 582 613 q 701 460 674 521 q 728 329 728 399 z "},"q":{"ha":771,"x_min":43,"x_max":700,"o":"m 561 201 q 561 460 561 201 q 483 509 529 490 q 383 528 438 528 q 306 512 342 528 q 242 469 269 496 q 198 406 214 442 q 182 329 182 369 q 198 250 182 288 q 242 185 214 213 q 306 141 269 157 q 383 125 342 125 q 483 145 438 125 q 561 201 529 165 m 700 -312 l 561 -312 l 561 36 q 477 -1 522 13 q 383 -14 432 -14 q 252 13 314 -14 q 144 87 190 40 q 70 196 97 133 q 43 329 43 258 q 70 460 43 399 q 143 567 97 521 q 251 640 189 613 q 382 667 313 667 q 476 655 432 667 q 561 622 521 643 l 561 660 l 700 660 l 700 -312 z "},"r":{"ha":507,"x_min":69,"x_max":493,"o":"m 493 457 q 418 507 453 499 q 365 515 383 515 q 322 512 343 515 q 279 498 300 508 q 240 467 258 488 q 207 414 222 447 l 207 0 l 69 0 l 69 660 l 208 660 l 208 604 q 367 667 286 667 q 434 658 403 667 q 493 633 465 649 l 493 457 z "},"s":{"ha":611,"x_min":50,"x_max":578,"o":"m 578 203 q 555 96 578 139 q 494 26 532 53 q 403 -11 456 0 q 293 -22 351 -22 q 160 2 222 -22 q 50 71 99 26 l 50 258 q 147 154 83 192 q 290 117 211 117 q 326 117 301 117 q 376 126 351 118 q 421 149 401 133 q 440 197 440 165 q 412 241 440 226 q 340 265 383 256 l 247 286 q 154 319 197 297 q 83 381 111 342 q 54 488 54 419 q 73 566 54 529 q 124 631 92 603 q 199 674 156 658 q 290 690 242 690 q 410 673 353 690 q 517 625 468 656 l 517 465 q 418 528 476 504 q 290 551 360 551 q 222 539 250 551 q 193 488 193 526 q 222 438 193 454 q 293 410 250 421 q 385 390 336 400 q 478 358 435 379 q 549 301 521 338 q 578 203 578 265 z "},"t":{"ha":597,"x_min":29,"x_max":585,"o":"m 585 521 l 306 521 l 306 247 q 333 158 306 193 q 403 124 361 124 q 481 137 439 124 q 554 174 522 150 l 554 33 q 481 -2 522 11 q 403 -15 439 -15 q 310 1 353 -15 q 235 48 267 18 q 185 118 203 78 q 167 206 167 158 l 167 521 l 29 521 l 29 660 l 167 660 l 167 792 l 306 792 l 306 660 l 585 660 l 585 521 z "},"u":{"ha":729,"x_min":57,"x_max":661,"o":"m 661 0 l 522 0 l 522 42 q 346 -14 442 -14 q 253 0 303 -14 q 159 47 203 14 q 86 135 115 81 q 57 271 57 190 l 57 660 l 196 660 l 196 296 q 208 231 196 261 q 240 179 219 201 q 288 144 261 157 q 346 132 315 132 q 441 144 396 132 q 522 181 486 156 l 522 660 l 661 660 l 661 0 z "},"v":{"ha":771,"x_min":17,"x_max":756,"o":"m 756 663 l 458 3 l 314 3 l 17 660 l 168 660 l 385 179 l 604 663 l 756 663 z "},"w":{"ha":1083,"x_min":15,"x_max":1064,"o":"m 1064 658 l 824 -3 l 685 -3 l 540 386 l 394 -3 l 256 -3 l 15 658 l 163 658 l 325 213 l 474 603 l 606 603 l 754 213 l 917 658 l 1064 658 z "},"x":{"ha":681,"x_min":7,"x_max":678,"o":"m 678 -3 l 504 -3 l 343 215 l 181 -3 l 7 -3 l 257 332 l 11 660 l 183 660 l 343 447 l 501 660 l 674 660 l 429 331 l 678 -3 z "},"y":{"ha":785,"x_min":18,"x_max":767,"o":"m 767 660 l 335 -156 q 218 -278 294 -232 q 56 -325 142 -325 l 56 -186 q 147 -160 104 -186 q 214 -90 190 -133 l 311 96 l 18 660 l 175 660 l 390 246 l 613 660 l 767 660 z "},"z":{"ha":692,"x_min":11,"x_max":678,"o":"m 678 660 l 290 139 l 653 139 l 653 0 l 11 0 l 401 521 l 44 521 l 44 660 l 678 660 z "},"|":{"ha":278,"x_min":69,"x_max":208,"o":"m 208 0 l 69 0 l 69 972 l 208 972 l 208 0 z "},"~":{"ha":628,"x_min":40,"x_max":604,"o":"m 604 461 q 526 354 579 394 q 347 335 451 296 q 284 357 299 349 q 225 378 269 365 q 46 367 99 413 l 40 365 q 118 471 67 433 q 285 494 178 526 q 374 461 332 481 q 490 428 417 442 q 597 458 564 415 q 603 461 601 464 l 604 461 z "}," ":{"ha":347,"x_min":0,"x_max":0,"o":""},"¡":{"ha":278,"x_min":46,"x_max":240,"o":"m 46 878 l 140 972 l 240 876 l 146 782 l 46 878 m 78 101 l 107 735 l 185 735 l 217 101 l 217 -21 l 78 -21 l 78 101 z "},"¢":{"ha":575,"x_min":97,"x_max":547,"o":"m 369 315 q 547 383 482 315 l 547 250 q 404 211 519 222 l 404 125 q 400 122 404 122 l 303 122 q 300 125 300 122 l 300 213 q 188 276 235 231 q 97 478 97 364 q 119 583 97 533 q 196 679 142 632 q 300 739 250 726 l 300 824 q 304 828 300 828 l 401 828 l 404 825 l 404 742 q 547 701 518 729 l 547 568 q 471 619 517 600 q 381 638 425 638 q 307 624 336 638 q 256 590 278 611 q 208 478 208 543 q 256 363 208 410 q 369 315 303 315 z "},"£":{"ha":861,"x_min":56,"x_max":846,"o":"m 846 139 l 772 0 l 74 0 q 117 83 97 38 q 151 176 136 128 q 174 275 165 225 q 182 372 182 325 l 56 372 l 117 511 l 182 511 q 205 749 182 656 q 267 897 228 843 q 358 973 306 951 q 469 994 410 994 q 584 965 528 994 q 676 889 640 936 l 571 722 q 541 817 571 778 q 469 856 511 856 q 414 842 440 856 q 367 792 388 829 q 336 687 347 754 q 325 511 325 619 l 592 511 l 531 372 l 325 372 q 314 251 325 315 q 286 139 303 188 l 846 139 z "},"¥":{"ha":1389,"x_min":0,"x_max":1389,"o":"m 1389 483 l 507 224 l 682 413 l 642 413 l 0 413 l 0 551 l 643 551 l 682 551 l 510 744 l 1389 483 z "},"¦":{"ha":349,"x_min":97,"x_max":251,"o":"m 97 433 l 250 433 l 250 0 l 97 0 l 97 433 m 250 972 l 250 539 l 97 539 l 97 972 l 250 972 z "},"§":{"ha":718,"x_min":39,"x_max":676,"o":"m 306 590 q 256 411 144 467 q 359 365 258 411 q 503 281 460 318 q 506 285 504 282 q 510 290 508 289 q 539 388 539 319 q 451 523 539 456 q 306 590 364 590 m 356 899 q 340 726 224 814 q 423 688 347 721 q 566 613 499 656 q 663 490 633 569 q 675 316 693 411 q 582 161 657 221 q 590 6 607 88 q 517 -135 574 -75 q 370 -215 460 -194 q 200 -204 281 -236 q 76 -101 119 -172 q 39 -29 43 -42 l 157 19 q 213 -56 179 -28 q 282 -85 246 -83 q 425 -25 383 -92 q 454 65 450 17 q 429 153 458 113 q 281 247 390 200 q 203 285 228 271 q 65 424 86 346 q 99 626 32 543 q 174 692 129 665 q 150 739 157 713 q 185 942 118 857 q 301 1026 232 1003 q 432 1034 369 1049 q 542 983 494 1019 q 608 901 589 946 l 483 842 q 356 899 436 947 z "},"¨":{"ha":521,"x_min":43,"x_max":478,"o":"m 478 831 l 381 733 l 283 831 l 381 929 l 478 831 m 238 831 l 140 733 l 43 831 l 140 929 l 238 831 z "},"©":{"ha":1097,"x_min":43,"x_max":1057,"o":"m 735 261 q 651 226 696 239 q 557 214 607 214 q 451 235 501 214 q 365 294 401 257 q 307 382 329 332 q 285 489 285 432 q 307 593 285 544 q 366 678 329 642 q 452 737 403 715 q 558 758 501 758 q 651 746 607 758 q 735 711 696 733 l 735 578 q 658 628 704 610 q 557 647 613 647 q 494 635 524 647 q 444 600 465 622 q 409 549 422 578 q 396 488 396 519 q 409 424 396 454 q 444 372 422 394 q 494 338 465 350 q 557 325 524 325 q 658 343 613 325 q 735 394 704 361 l 735 261 m 918 503 q 889 639 918 575 q 810 751 860 703 q 694 826 760 799 q 554 854 628 854 q 410 826 478 854 q 291 751 342 799 q 211 641 240 704 q 182 507 182 578 q 212 356 182 426 q 292 232 242 285 q 411 149 343 179 q 557 118 479 118 q 696 149 631 118 q 810 232 761 179 q 889 354 860 285 q 918 503 918 424 m 1057 507 q 1017 302 1057 399 q 908 134 976 206 q 747 21 839 63 q 550 -21 654 -21 q 353 21 446 -21 q 192 134 261 63 q 83 302 124 206 q 43 507 43 399 q 83 695 43 607 q 192 849 124 783 q 353 954 261 915 q 550 993 446 993 q 747 954 654 993 q 908 849 839 915 q 1017 695 976 783 q 1057 507 1057 607 z "},"«":{"ha":4213,"x_min":17,"x_max":4210,"o":"m 763 551 l 1604 551 q 1665 717 1619 639 q 1776 854 1710 796 q 1927 947 1843 913 q 2104 981 2011 981 q 2290 947 2203 981 q 2444 854 2376 913 q 2558 717 2513 796 q 2618 551 2603 639 l 3267 551 l 3443 740 l 3636 740 l 3460 551 l 3553 551 l 3729 740 l 3924 740 l 3746 551 l 3840 551 l 4015 740 l 4210 740 l 4032 551 l 4126 551 l 4210 551 l 4210 413 l 4126 413 l 4032 413 l 4210 224 l 4015 224 l 3840 413 l 3746 413 l 3924 224 l 3729 224 l 3553 413 l 3460 413 l 3636 224 l 3443 224 l 3267 413 l 2618 413 q 2558 241 2603 318 q 2444 109 2513 164 q 2290 24 2376 54 q 2104 -6 2203 -6 q 1927 24 2011 -6 q 1776 109 1843 54 q 1665 241 1710 164 q 1604 413 1619 318 l 764 413 l 724 413 l 899 224 l 17 483 l 896 744 l 724 551 l 763 551 m 1743 481 q 1772 342 1743 407 q 1851 227 1801 276 q 1966 149 1900 178 q 2104 119 2032 119 q 2233 142 2172 119 q 2344 203 2294 164 q 2428 296 2393 242 q 2479 413 2464 350 l 2103 413 l 2103 551 l 2479 551 q 2428 667 2464 614 q 2344 758 2393 719 q 2233 819 2294 797 q 2104 842 2172 842 q 1966 813 2032 842 q 1851 734 1900 783 q 1772 619 1801 685 q 1743 481 1743 553 z "},"¬":{"ha":690,"x_min":47,"x_max":644,"o":"m 47 415 l 47 501 l 643 501 l 643 144 l 551 144 l 551 415 l 47 415 z "},"®":{"ha":1097,"x_min":43,"x_max":1057,"o":"m 753 568 q 692 608 719 601 q 650 615 664 615 q 615 613 632 615 q 581 601 597 610 q 550 577 564 593 q 524 533 536 561 l 524 203 l 414 203 l 414 731 l 525 731 l 525 686 q 651 736 586 736 q 706 729 681 736 q 753 710 731 722 l 753 568 m 918 503 q 889 639 918 575 q 810 751 860 703 q 694 826 760 799 q 554 854 628 854 q 410 826 478 854 q 291 751 342 799 q 211 641 240 704 q 182 507 182 578 q 212 356 182 426 q 292 232 242 285 q 411 149 343 179 q 557 118 479 118 q 696 149 631 118 q 810 232 761 179 q 889 354 860 285 q 918 503 918 424 m 1057 507 q 1017 302 1057 399 q 908 134 976 206 q 747 21 839 63 q 550 -21 654 -21 q 353 21 446 -21 q 192 134 261 63 q 83 302 124 206 q 43 507 43 399 q 83 695 43 607 q 192 849 124 783 q 353 954 261 915 q 550 993 446 993 q 747 954 654 993 q 908 849 839 915 q 1017 695 976 783 q 1057 507 1057 607 z "},"¯":{"ha":482,"x_min":28,"x_max":454,"o":"m 454 707 l 451 703 l 35 703 q 28 713 28 703 l 28 829 l 32 833 l 449 833 l 454 831 l 454 707 z "},"°":{"ha":496,"x_min":38,"x_max":461,"o":"m 399 890 q 430 859 399 890 q 461 740 461 828 q 399 590 461 653 q 250 528 338 528 q 99 590 161 528 q 38 740 38 653 q 99 890 38 828 q 250 951 161 951 q 399 890 338 951 m 342 740 q 315 805 342 778 q 250 832 288 832 q 184 805 211 832 q 157 740 157 778 q 184 675 157 701 q 250 649 211 649 q 315 675 288 649 q 342 740 342 701 z "},"±":{"ha":696,"x_min":81,"x_max":615,"o":"m 615 424 l 615 424 l 415 424 l 415 214 l 279 214 l 279 424 l 81 424 l 81 560 l 279 560 l 279 769 l 415 769 l 415 560 l 615 560 l 615 424 m 610 1 l 610 1 l 85 1 l 85 138 l 610 138 l 610 1 z "},"²":{"ha":861,"x_min":147,"x_max":717,"o":"m 717 -1 l 147 -1 l 508 583 q 531 654 522 614 q 540 731 540 694 q 493 820 532 786 q 397 854 454 854 q 312 831 351 854 q 241 776 272 808 q 188 710 210 744 q 151 651 165 675 l 151 886 q 263 964 199 935 q 400 993 326 993 q 512 972 460 993 q 603 915 564 951 q 664 831 642 879 q 686 731 686 783 q 669 606 688 657 q 621 504 651 554 l 397 138 l 717 138 l 717 -1 z "},"³":{"ha":861,"x_min":118,"x_max":749,"o":"m 749 290 q 722 172 749 228 q 651 76 696 117 q 547 10 607 35 q 418 -14 486 -14 q 240 35 319 -14 q 118 165 161 85 l 224 254 q 299 160 247 196 q 418 125 351 125 q 488 138 456 125 q 545 174 521 151 q 583 226 569 196 q 597 290 597 257 q 582 366 597 331 q 540 427 567 401 q 478 468 514 453 q 403 483 443 483 q 345 482 376 483 q 289 478 314 481 l 496 835 l 131 835 l 131 972 l 735 972 l 519 597 q 612 551 569 581 q 684 481 654 521 q 731 392 714 440 q 749 290 749 343 z "},"´":{"ha":379,"x_min":75,"x_max":332,"o":"m 332 1214 l 332 1099 l 75 965 l 75 1078 l 332 1214 z "},"µ":{"ha":696,"x_min":56,"x_max":640,"o":"m 338 -15 q 185 19 254 -19 l 185 -150 q 181 -156 185 -156 l 61 -156 q 56 -150 56 -156 l 56 614 l 182 614 l 182 613 q 188 608 189 613 l 188 217 q 233 147 197 176 q 318 110 268 118 q 417 118 368 101 q 508 217 492 149 l 508 608 l 514 614 l 636 614 l 638 613 l 640 613 l 640 3 l 635 -1 q 513 -1 574 -1 q 511 3 511 0 l 511 24 q 338 -15 458 -24 z "},"¶":{"ha":804,"x_min":44,"x_max":707,"o":"m 707 843 l 629 843 l 629 -83 l 526 -83 l 526 843 l 425 843 l 425 -83 l 324 -83 l 324 435 l 300 435 q 117 502 189 435 q 44 686 44 569 q 76 805 44 749 q 170 894 108 861 q 344 926 232 926 l 707 926 l 707 843 z "},"·":{"ha":222,"x_min":42,"x_max":181,"o":"m 181 224 l 42 224 l 42 358 l 181 358 l 181 224 z "},"¸":{"ha":319,"x_min":28,"x_max":293,"o":"m 257 -179 q 28 -244 193 -244 l 28 -129 q 142 -103 78 -140 q 161 -26 161 -90 l 161 6 l 293 6 l 292 -85 q 257 -179 292 -144 z "},"¹":{"ha":431,"x_min":146,"x_max":285,"o":"m 285 0 l 146 0 l 146 842 l 285 1004 l 285 0 z "},"º":{"ha":508,"x_min":42,"x_max":467,"o":"m 403 866 q 434 835 403 866 q 465 717 465 804 q 403 567 465 629 q 254 504 342 504 q 103 567 165 504 q 42 717 42 629 q 103 866 42 804 q 254 928 165 928 q 403 866 342 928 m 346 717 q 319 781 346 754 q 254 808 292 808 q 188 781 215 808 q 161 717 161 754 q 188 651 161 678 q 254 625 215 625 q 319 651 292 625 q 346 717 346 678 m 467 335 l 464 329 l 51 329 q 44 339 44 329 l 44 456 l 50 461 l 463 461 l 467 457 l 467 335 z "},"»":{"ha":4213,"x_min":3,"x_max":4196,"o":"m 3450 551 l 3489 551 l 3317 744 l 4196 483 l 3314 224 l 3489 413 l 3449 413 l 2608 413 q 2548 241 2593 318 q 2436 109 2503 164 q 2285 24 2369 54 q 2108 -6 2201 -6 q 1923 24 2010 -6 q 1768 109 1836 54 q 1655 241 1700 164 q 1594 413 1610 318 l 946 413 l 769 224 l 576 224 l 753 413 l 660 413 l 483 224 l 289 224 l 467 413 l 372 413 l 197 224 l 3 224 l 181 413 l 86 413 l 3 413 l 3 551 l 86 551 l 181 551 l 3 740 l 197 740 l 372 551 l 467 551 l 289 740 l 483 740 l 660 551 l 753 551 l 576 740 l 769 740 l 946 551 l 1594 551 q 1655 717 1610 639 q 1768 854 1700 796 q 1923 947 1836 913 q 2108 981 2010 981 q 2285 947 2201 981 q 2436 854 2369 913 q 2548 717 2503 796 q 2608 551 2593 639 l 3450 551 m 2469 481 q 2440 619 2469 553 q 2362 734 2411 685 q 2247 813 2313 783 q 2108 842 2181 842 q 1979 819 2040 842 q 1869 758 1918 797 q 1784 667 1819 719 q 1733 551 1749 614 l 2110 551 l 2110 413 l 1733 413 q 1784 296 1749 350 q 1869 203 1819 242 q 1979 142 1918 164 q 2108 119 2040 119 q 2247 149 2181 119 q 2362 227 2313 178 q 2440 342 2411 276 q 2469 481 2469 407 z "},"½":{"ha":1097,"x_min":43,"x_max":1057,"o":"m 601 597 q 594 624 601 611 q 576 648 588 638 q 548 664 564 658 q 515 669 532 669 l 460 669 l 460 522 l 538 522 q 562 528 550 522 q 582 544 574 533 q 596 568 590 554 q 601 597 601 582 m 765 232 l 676 232 l 526 446 l 460 446 l 460 229 l 386 229 l 386 743 l 524 743 q 583 731 554 743 q 632 699 611 719 q 665 653 653 679 q 678 597 678 626 q 658 522 678 556 q 604 465 638 488 l 765 232 m 918 503 q 889 639 918 575 q 810 751 860 703 q 694 826 760 799 q 554 854 628 854 q 410 826 478 854 q 291 751 342 799 q 211 641 240 704 q 182 507 182 578 q 212 356 182 426 q 292 232 242 285 q 411 149 343 179 q 557 118 479 118 q 696 149 631 118 q 810 232 761 179 q 889 354 860 285 q 918 503 918 424 m 1057 507 q 1017 302 1057 399 q 908 134 976 206 q 747 21 839 63 q 550 -21 654 -21 q 353 21 446 -21 q 192 134 261 63 q 83 302 124 206 q 43 507 43 399 q 83 695 43 607 q 192 849 124 783 q 353 954 261 915 q 550 993 446 993 q 747 954 654 993 q 908 849 839 915 q 1017 695 976 783 q 1057 507 1057 607 z "},"¿":{"ha":625,"x_min":43,"x_max":585,"o":"m 229 896 l 326 993 l 424 896 l 326 797 l 229 896 m 43 228 q 57 328 40 286 q 100 399 74 369 q 158 450 126 429 l 218 492 q 265 529 246 510 q 286 575 285 549 q 281 608 286 594 q 265 633 275 622 q 246 654 256 644 l 224 675 l 325 771 q 358 734 340 751 q 392 696 375 717 q 420 649 408 675 q 433 585 432 622 q 415 513 435 546 q 367 452 396 481 q 306 398 339 424 q 244 347 272 372 q 197 294 215 321 q 182 236 179 268 q 219 156 182 189 q 314 124 257 124 q 408 150 365 124 q 467 240 450 176 l 583 167 q 551 104 574 136 q 494 46 529 72 q 410 2 458 19 q 304 -15 363 -15 q 201 3 249 -15 q 120 53 154 21 q 66 129 86 85 q 43 228 46 174 z "},"À":{"ha":938,"x_min":17,"x_max":924,"o":"m 214 1325 l 471 1189 l 469 1076 l 214 1208 l 214 1325 m 924 -1 l 771 -1 l 676 238 l 264 238 l 169 -1 l 17 -1 l 422 972 l 518 972 l 924 -1 m 615 375 l 471 728 l 325 375 l 615 375 z "},"Á":{"ha":938,"x_min":17,"x_max":924,"o":"m 726 1325 l 726 1210 l 469 1076 l 469 1189 l 726 1325 m 924 -1 l 771 -1 l 676 238 l 264 238 l 169 -1 l 17 -1 l 422 972 l 518 972 l 924 -1 m 615 375 l 471 728 l 325 375 l 615 375 z "},"Â":{"ha":938,"x_min":17,"x_max":924,"o":"m 471 1322 l 697 1078 l 557 1076 l 471 1171 l 383 1076 l 244 1076 l 471 1322 m 924 -1 l 771 -1 l 676 238 l 264 238 l 169 -1 l 17 -1 l 422 972 l 518 972 l 924 -1 m 615 375 l 471 728 l 325 375 l 615 375 z "},"Ã":{"ha":938,"x_min":17,"x_max":924,"o":"m 721 1217 q 642 1110 693 1150 q 463 1090 574 1056 q 436 1101 461 1090 q 406 1114 411 1111 q 308 1133 349 1133 q 229 1101 267 1133 q 219 1100 224 1094 q 297 1207 243 1164 q 465 1229 361 1257 q 489 1221 475 1226 q 517 1210 503 1215 q 535 1203 532 1204 q 710 1217 647 1163 q 717 1220 715 1221 q 719 1218 718 1219 l 721 1217 m 924 -1 l 771 -1 l 676 238 l 264 238 l 169 -1 l 17 -1 l 422 972 l 518 972 l 924 -1 m 615 375 l 471 728 l 325 375 l 615 375 z "},"Ä":{"ha":938,"x_min":17,"x_max":924,"o":"m 688 1174 l 590 1076 l 493 1174 l 590 1272 l 688 1174 m 447 1174 l 350 1076 l 253 1174 l 350 1272 l 447 1174 m 924 -1 l 771 -1 l 676 238 l 264 238 l 169 -1 l 17 -1 l 422 972 l 518 972 l 924 -1 m 615 375 l 471 728 l 325 375 l 615 375 z "},"Å":{"ha":938,"x_min":17,"x_max":924,"o":"m 593 1108 q 557 1021 593 1057 q 469 985 521 985 q 383 1021 419 985 q 347 1108 347 1057 q 383 1194 347 1158 q 469 1231 419 1231 q 557 1194 521 1231 q 593 1108 593 1158 m 508 1070 q 516 1078 508 1070 q 524 1108 524 1086 q 508 1146 524 1131 q 469 1161 492 1161 q 432 1146 447 1161 q 417 1108 417 1131 q 432 1070 417 1086 q 469 1054 447 1054 q 508 1070 492 1054 m 924 -1 l 771 -1 l 676 238 l 264 238 l 169 -1 l 17 -1 l 422 972 l 518 972 l 924 -1 m 615 375 l 471 728 l 325 375 l 615 375 z "},"Æ":{"ha":1414,"x_min":17,"x_max":1381,"o":"m 771 -1 l 771 0 l 769 0 l 769 3 l 769 238 l 354 238 l 196 -1 l 17 -1 l 675 972 l 1353 972 l 1353 833 l 908 833 l 908 590 l 1246 590 l 1246 451 l 908 451 l 908 142 l 1381 142 l 1381 0 l 771 -1 m 765 375 l 767 833 l 436 375 l 765 375 z "},"Ç":{"ha":935,"x_min":43,"x_max":900,"o":"m 581 -197 q 351 -262 517 -262 l 351 -147 q 465 -121 401 -158 q 485 -44 485 -108 l 485 -12 l 617 -12 l 615 -103 q 581 -197 615 -162 m 900 711 q 749 815 840 775 q 554 854 658 854 q 410 826 478 854 q 291 751 342 799 q 211 641 240 704 q 182 507 182 578 q 212 356 182 426 q 292 232 242 285 q 411 149 343 179 q 557 118 479 118 q 750 160 661 118 q 897 275 839 203 l 897 88 q 735 8 824 36 q 550 -21 647 -21 q 353 21 446 -21 q 192 134 261 63 q 83 302 124 206 q 43 507 43 399 q 83 695 43 607 q 192 849 124 783 q 353 954 261 915 q 550 993 446 993 q 737 967 649 993 q 900 893 825 940 l 900 711 z "},"È":{"ha":715,"x_min":71,"x_max":682,"o":"m 107 1325 l 364 1189 l 363 1076 l 107 1208 l 107 1325 m 682 0 l 71 0 l 71 972 l 654 972 l 654 833 l 210 833 l 210 590 l 547 590 l 547 451 l 210 451 l 210 142 l 682 142 l 682 0 z "},"É":{"ha":715,"x_min":71,"x_max":682,"o":"m 619 1325 l 619 1210 l 363 1076 l 363 1189 l 619 1325 m 682 0 l 71 0 l 71 972 l 654 972 l 654 833 l 210 833 l 210 590 l 547 590 l 547 451 l 210 451 l 210 142 l 682 142 l 682 0 z "},"Ê":{"ha":715,"x_min":71,"x_max":682,"o":"m 363 1322 l 589 1078 l 449 1076 l 363 1171 l 275 1076 l 136 1076 l 363 1322 m 682 0 l 71 0 l 71 972 l 654 972 l 654 833 l 210 833 l 210 590 l 547 590 l 547 451 l 210 451 l 210 142 l 682 142 l 682 0 z "},"Ë":{"ha":715,"x_min":71,"x_max":682,"o":"m 581 1174 l 483 1076 l 386 1174 l 483 1272 l 581 1174 m 340 1174 l 243 1076 l 146 1174 l 243 1272 l 340 1174 m 682 0 l 71 0 l 71 972 l 654 972 l 654 833 l 210 833 l 210 590 l 547 590 l 547 451 l 210 451 l 210 142 l 682 142 l 682 0 z "},"Ì":{"ha":278,"x_min":-117,"x_max":208,"o":"m -117 1325 l 140 1189 l 139 1076 l -117 1208 l -117 1325 m 208 0 l 69 0 l 69 972 l 208 972 l 208 0 z "},"Í":{"ha":278,"x_min":69,"x_max":396,"o":"m 396 1325 l 396 1210 l 139 1076 l 139 1189 l 396 1325 m 208 0 l 69 0 l 69 972 l 208 972 l 208 0 z "},"Î":{"ha":278,"x_min":-87,"x_max":365,"o":"m 139 1322 l 365 1078 l 225 1076 l 139 1171 l 51 1076 l -87 1076 l 139 1322 m 208 0 l 69 0 l 69 972 l 208 972 l 208 0 z "},"Ï":{"ha":278,"x_min":-79,"x_max":357,"o":"m 356 1174 l 258 1076 l 161 1174 l 258 1272 l 356 1174 m 115 1174 l 18 1076 l -79 1174 l 18 1272 l 115 1174 m 208 0 l 69 0 l 69 972 l 208 972 l 208 0 z "},"Ñ":{"ha":1032,"x_min":71,"x_max":949,"o":"m 760 1217 q 681 1110 732 1150 q 501 1090 613 1056 q 475 1101 500 1090 q 444 1114 450 1111 q 347 1133 388 1133 q 268 1101 306 1133 q 258 1100 263 1094 q 336 1207 282 1164 q 504 1229 400 1257 q 528 1221 514 1226 q 556 1210 542 1215 q 574 1203 571 1204 q 749 1217 686 1163 q 756 1220 754 1221 q 758 1218 757 1219 l 760 1217 m 949 0 l 810 0 l 206 754 l 206 0 l 71 0 l 71 972 l 210 972 l 813 221 l 813 972 l 949 972 l 949 0 z "},"Ò":{"ha":1097,"x_min":43,"x_max":1057,"o":"m 294 1325 l 551 1189 l 550 1076 l 294 1208 l 294 1325 m 918 503 q 889 639 918 575 q 810 751 860 703 q 694 826 760 799 q 554 854 628 854 q 410 826 478 854 q 291 751 342 799 q 211 641 240 704 q 182 507 182 578 q 212 356 182 426 q 292 232 242 285 q 411 149 343 179 q 557 118 479 118 q 696 149 631 118 q 810 232 761 179 q 889 354 860 285 q 918 503 918 424 m 1057 507 q 1017 302 1057 399 q 908 134 976 206 q 747 21 839 63 q 550 -21 654 -21 q 353 21 446 -21 q 192 134 261 63 q 83 302 124 206 q 43 507 43 399 q 83 695 43 607 q 192 849 124 783 q 353 954 261 915 q 550 993 446 993 q 747 954 654 993 q 908 849 839 915 q 1017 695 976 783 q 1057 507 1057 607 z "},"Ó":{"ha":1097,"x_min":43,"x_max":1057,"o":"m 807 1325 l 807 1210 l 550 1076 l 550 1189 l 807 1325 m 918 503 q 889 639 918 575 q 810 751 860 703 q 694 826 760 799 q 554 854 628 854 q 410 826 478 854 q 291 751 342 799 q 211 641 240 704 q 182 507 182 578 q 212 356 182 426 q 292 232 242 285 q 411 149 343 179 q 557 118 479 118 q 696 149 631 118 q 810 232 761 179 q 889 354 860 285 q 918 503 918 424 m 1057 507 q 1017 302 1057 399 q 908 134 976 206 q 747 21 839 63 q 550 -21 654 -21 q 353 21 446 -21 q 192 134 261 63 q 83 302 124 206 q 43 507 43 399 q 83 695 43 607 q 192 849 124 783 q 353 954 261 915 q 550 993 446 993 q 747 954 654 993 q 908 849 839 915 q 1017 695 976 783 q 1057 507 1057 607 z "},"Ô":{"ha":1097,"x_min":43,"x_max":1057,"o":"m 550 1322 l 776 1078 l 636 1076 l 550 1171 l 463 1076 l 324 1076 l 550 1322 m 918 503 q 889 639 918 575 q 810 751 860 703 q 694 826 760 799 q 554 854 628 854 q 410 826 478 854 q 291 751 342 799 q 211 641 240 704 q 182 507 182 578 q 212 356 182 426 q 292 232 242 285 q 411 149 343 179 q 557 118 479 118 q 696 149 631 118 q 810 232 761 179 q 889 354 860 285 q 918 503 918 424 m 1057 507 q 1017 302 1057 399 q 908 134 976 206 q 747 21 839 63 q 550 -21 654 -21 q 353 21 446 -21 q 192 134 261 63 q 83 302 124 206 q 43 507 43 399 q 83 695 43 607 q 192 849 124 783 q 353 954 261 915 q 550 993 446 993 q 747 954 654 993 q 908 849 839 915 q 1017 695 976 783 q 1057 507 1057 607 z "},"Õ":{"ha":1097,"x_min":43,"x_max":1057,"o":"m 801 1217 q 722 1110 774 1150 q 543 1090 654 1056 q 517 1101 542 1090 q 486 1114 492 1111 q 388 1133 429 1133 q 310 1101 347 1133 q 300 1100 304 1094 q 378 1207 324 1164 q 546 1229 442 1257 q 569 1221 556 1226 q 598 1210 583 1215 q 615 1203 613 1204 q 790 1217 728 1163 q 797 1220 796 1221 q 800 1218 799 1219 l 801 1217 m 918 503 q 889 639 918 575 q 810 751 860 703 q 694 826 760 799 q 554 854 628 854 q 410 826 478 854 q 291 751 342 799 q 211 641 240 704 q 182 507 182 578 q 212 356 182 426 q 292 232 242 285 q 411 149 343 179 q 557 118 479 118 q 696 149 631 118 q 810 232 761 179 q 889 354 860 285 q 918 503 918 424 m 1057 507 q 1017 302 1057 399 q 908 134 976 206 q 747 21 839 63 q 550 -21 654 -21 q 353 21 446 -21 q 192 134 261 63 q 83 302 124 206 q 43 507 43 399 q 83 695 43 607 q 192 849 124 783 q 353 954 261 915 q 550 993 446 993 q 747 954 654 993 q 908 849 839 915 q 1017 695 976 783 q 1057 507 1057 607 z "},"Ö":{"ha":1097,"x_min":43,"x_max":1057,"o":"m 767 1174 l 669 1076 l 572 1174 l 669 1272 l 767 1174 m 526 1174 l 429 1076 l 332 1174 l 429 1272 l 526 1174 m 918 503 q 889 639 918 575 q 810 751 860 703 q 694 826 760 799 q 554 854 628 854 q 410 826 478 854 q 291 751 342 799 q 211 641 240 704 q 182 507 182 578 q 212 356 182 426 q 292 232 242 285 q 411 149 343 179 q 557 118 479 118 q 696 149 631 118 q 810 232 761 179 q 889 354 860 285 q 918 503 918 424 m 1057 507 q 1017 302 1057 399 q 908 134 976 206 q 747 21 839 63 q 550 -21 654 -21 q 353 21 446 -21 q 192 134 261 63 q 83 302 124 206 q 43 507 43 399 q 83 695 43 607 q 192 849 124 783 q 353 954 261 915 q 550 993 446 993 q 747 954 654 993 q 908 849 839 915 q 1017 695 976 783 q 1057 507 1057 607 z "},"×":{"ha":690,"x_min":86,"x_max":625,"o":"m 599 701 l 422 474 l 625 222 l 463 222 l 347 389 l 233 224 l 89 224 q 87 226 86 224 q 89 232 88 229 l 90 236 l 268 471 q 92 700 96 694 l 90 708 l 243 708 l 349 565 l 458 708 l 597 708 l 599 701 z "},"Ø":{"ha":1097,"x_min":43,"x_max":1057,"o":"m 1057 507 q 1017 302 1057 399 q 908 134 976 206 q 747 21 839 63 q 550 -21 654 -21 q 381 10 461 -21 l 336 -81 l 183 -81 l 260 75 q 192 133 224 101 q 83 302 124 206 q 43 507 43 399 q 83 695 43 607 q 192 849 124 783 q 353 954 261 915 q 550 993 446 993 q 699 971 628 993 l 754 1085 l 897 1085 l 817 918 q 908 850 867 889 q 1017 695 976 783 q 1057 507 1057 607 m 918 503 q 889 639 918 575 q 810 750 860 703 q 757 793 785 774 l 442 136 q 557 118 496 118 q 696 149 631 118 q 810 232 761 179 q 889 354 860 285 q 918 503 918 424 m 636 844 q 554 854 597 854 q 410 826 478 854 q 291 751 342 799 q 211 641 240 704 q 182 507 182 578 q 212 356 182 426 q 292 232 242 285 q 322 204 307 217 l 636 844 z "},"Ù":{"ha":782,"x_min":21,"x_max":761,"o":"m 761 -4 l 601 -4 l 392 354 l 181 -4 l 21 -4 l 311 490 l 28 972 l 188 972 l 392 626 l 594 972 l 754 972 l 471 490 l 761 -4 z "},"Ú":{"ha":956,"x_min":57,"x_max":899,"o":"m 735 1325 l 735 1210 l 478 1076 l 478 1189 l 735 1325 m 899 392 q 866 232 899 307 q 776 101 833 157 q 642 12 718 44 q 478 -21 565 -21 q 314 12 390 -21 q 180 101 238 44 q 90 232 122 157 q 57 392 57 307 l 57 972 l 196 972 l 196 393 q 218 286 196 336 q 278 199 240 236 q 368 140 317 161 q 478 118 419 118 q 588 140 536 118 q 677 199 639 161 q 738 286 715 236 q 760 393 760 336 l 760 972 l 899 972 l 899 392 z "},"Û":{"ha":956,"x_min":57,"x_max":899,"o":"m 478 1322 l 704 1078 l 564 1076 l 478 1171 l 390 1076 l 251 1076 l 478 1322 m 899 392 q 866 232 899 307 q 776 101 833 157 q 642 12 718 44 q 478 -21 565 -21 q 314 12 390 -21 q 180 101 238 44 q 90 232 122 157 q 57 392 57 307 l 57 972 l 196 972 l 196 393 q 218 286 196 336 q 278 199 240 236 q 368 140 317 161 q 478 118 419 118 q 588 140 536 118 q 677 199 639 161 q 738 286 715 236 q 760 393 760 336 l 760 972 l 899 972 l 899 392 z "},"Ü":{"ha":956,"x_min":57,"x_max":899,"o":"m 694 1174 l 597 1076 l 500 1174 l 597 1272 l 694 1174 m 454 1174 l 357 1076 l 260 1174 l 357 1272 l 454 1174 m 899 392 q 866 232 899 307 q 776 101 833 157 q 642 12 718 44 q 478 -21 565 -21 q 314 12 390 -21 q 180 101 238 44 q 90 232 122 157 q 57 392 57 307 l 57 972 l 196 972 l 196 393 q 218 286 196 336 q 278 199 240 236 q 368 140 317 161 q 478 118 419 118 q 588 140 536 118 q 677 199 639 161 q 738 286 715 236 q 760 393 760 336 l 760 972 l 899 972 l 899 392 z "},"Ý":{"ha":796,"x_min":21,"x_max":782,"o":"m 658 1325 l 658 1210 l 401 1076 l 401 1189 l 658 1325 m 782 972 l 471 485 l 471 0 l 332 0 l 332 485 l 21 972 l 185 972 l 401 633 l 618 972 l 782 972 z "},"Þ":{"ha":771,"x_min":71,"x_max":728,"o":"m 589 329 q 573 406 589 369 q 529 469 557 442 q 465 512 501 496 q 388 528 429 528 q 288 509 333 528 q 210 460 242 490 l 210 201 q 288 145 242 165 q 388 125 333 125 q 465 141 429 125 q 529 185 501 157 q 573 250 557 213 q 589 329 589 288 m 728 329 q 701 196 728 258 q 627 87 674 133 q 519 13 581 40 q 388 -14 457 -14 q 294 -1 339 -14 q 210 36 249 13 l 210 -279 l 71 -279 l 71 810 l 210 810 l 210 622 q 294 655 250 643 q 389 667 339 667 q 520 640 458 667 q 628 567 582 613 q 701 460 674 521 q 728 329 728 399 z "},"ß":{"ha":825,"x_min":97,"x_max":782,"o":"m 624 368 q 729 310 683 350 q 782 213 775 271 q 763 99 789 154 q 683 18 738 43 q 487 -13 596 -21 q 294 39 378 -6 q 290 94 290 43 l 290 181 q 382 144 376 147 q 575 113 481 103 q 644 158 624 118 q 635 208 657 185 q 581 244 613 232 q 503 261 549 256 q 288 397 321 288 q 283 476 276 433 q 307 540 289 519 q 385 590 325 561 q 479 672 444 618 q 480 704 488 689 q 456 729 472 719 q 281 721 376 771 q 243 678 256 707 q 229 629 231 650 q 228 563 228 608 l 228 -82 l 224 -86 l 100 -86 l 97 -82 q 98 273 97 -7 q 97 565 99 553 q 122 737 96 668 q 221 843 149 806 q 336 874 271 868 q 451 867 401 881 q 547 819 500 854 q 610 733 594 785 q 610 632 625 682 q 468 511 586 553 q 423 479 443 501 q 420 433 403 457 q 472 397 438 408 q 553 380 506 385 q 624 368 601 375 z "},"à":{"ha":636,"x_min":50,"x_max":579,"o":"m 56 1024 l 313 888 l 311 775 l 56 907 l 56 1024 m 440 147 q 440 278 440 147 q 340 274 388 278 q 258 259 293 269 q 203 229 224 249 q 183 179 183 210 q 222 122 183 135 q 314 110 260 110 q 378 120 344 110 q 440 147 413 131 m 579 0 l 440 0 l 440 35 q 359 -1 404 11 q 276 -14 314 -14 q 188 1 229 -14 q 117 42 147 15 q 68 102 86 68 q 50 176 50 136 q 70 264 50 222 q 137 336 90 306 q 258 385 183 367 q 440 403 332 403 q 435 467 440 439 q 414 515 429 496 q 372 543 399 533 q 306 553 346 553 q 192 533 246 553 q 79 460 138 513 l 65 460 l 118 635 q 210 676 157 660 q 311 692 263 692 q 394 683 347 692 q 481 644 440 674 q 551 559 522 615 q 579 410 579 503 l 579 0 z "},"á":{"ha":636,"x_min":50,"x_max":579,"o":"m 568 1024 l 568 908 l 311 775 l 311 888 l 568 1024 m 440 147 q 440 278 440 147 q 340 274 388 278 q 258 259 293 269 q 203 229 224 249 q 183 179 183 210 q 222 122 183 135 q 314 110 260 110 q 378 120 344 110 q 440 147 413 131 m 579 0 l 440 0 l 440 35 q 359 -1 404 11 q 276 -14 314 -14 q 188 1 229 -14 q 117 42 147 15 q 68 102 86 68 q 50 176 50 136 q 70 264 50 222 q 137 336 90 306 q 258 385 183 367 q 440 403 332 403 q 435 467 440 439 q 414 515 429 496 q 372 543 399 533 q 306 553 346 553 q 192 533 246 553 q 79 460 138 513 l 65 460 l 118 635 q 210 676 157 660 q 311 692 263 692 q 394 683 347 692 q 481 644 440 674 q 551 559 522 615 q 579 410 579 503 l 579 0 z "},"â":{"ha":636,"x_min":50,"x_max":579,"o":"m 311 1021 l 538 776 l 397 775 l 311 869 l 224 775 l 85 775 l 311 1021 m 440 147 q 440 278 440 147 q 340 274 388 278 q 258 259 293 269 q 203 229 224 249 q 183 179 183 210 q 222 122 183 135 q 314 110 260 110 q 378 120 344 110 q 440 147 413 131 m 579 0 l 440 0 l 440 35 q 359 -1 404 11 q 276 -14 314 -14 q 188 1 229 -14 q 117 42 147 15 q 68 102 86 68 q 50 176 50 136 q 70 264 50 222 q 137 336 90 306 q 258 385 183 367 q 440 403 332 403 q 435 467 440 439 q 414 515 429 496 q 372 543 399 533 q 306 553 346 553 q 192 533 246 553 q 79 460 138 513 l 65 460 l 118 635 q 210 676 157 660 q 311 692 263 692 q 394 683 347 692 q 481 644 440 674 q 551 559 522 615 q 579 410 579 503 l 579 0 z "},"ã":{"ha":636,"x_min":50,"x_max":579,"o":"m 563 915 q 483 808 535 849 q 304 789 415 754 q 278 799 303 789 q 247 813 253 810 q 149 832 190 832 q 71 800 108 832 q 61 799 65 793 q 139 906 85 863 q 307 928 203 956 q 331 919 317 925 q 359 908 344 914 q 376 901 374 903 q 551 915 489 861 q 558 919 557 919 q 561 917 560 918 l 563 915 m 440 147 q 440 278 440 147 q 340 274 388 278 q 258 259 293 269 q 203 229 224 249 q 183 179 183 210 q 222 122 183 135 q 314 110 260 110 q 378 120 344 110 q 440 147 413 131 m 579 0 l 440 0 l 440 35 q 359 -1 404 11 q 276 -14 314 -14 q 188 1 229 -14 q 117 42 147 15 q 68 102 86 68 q 50 176 50 136 q 70 264 50 222 q 137 336 90 306 q 258 385 183 367 q 440 403 332 403 q 435 467 440 439 q 414 515 429 496 q 372 543 399 533 q 306 553 346 553 q 192 533 246 553 q 79 460 138 513 l 65 460 l 118 635 q 210 676 157 660 q 311 692 263 692 q 394 683 347 692 q 481 644 440 674 q 551 559 522 615 q 579 410 579 503 l 579 0 z "},"ä":{"ha":636,"x_min":50,"x_max":579,"o":"m 528 872 l 431 775 l 333 872 l 431 971 l 528 872 m 288 872 l 190 775 l 93 872 l 190 971 l 288 872 m 440 147 q 440 278 440 147 q 340 274 388 278 q 258 259 293 269 q 203 229 224 249 q 183 179 183 210 q 222 122 183 135 q 314 110 260 110 q 378 120 344 110 q 440 147 413 131 m 579 0 l 440 0 l 440 35 q 359 -1 404 11 q 276 -14 314 -14 q 188 1 229 -14 q 117 42 147 15 q 68 102 86 68 q 50 176 50 136 q 70 264 50 222 q 137 336 90 306 q 258 385 183 367 q 440 403 332 403 q 435 467 440 439 q 414 515 429 496 q 372 543 399 533 q 306 553 346 553 q 192 533 246 553 q 79 460 138 513 l 65 460 l 118 635 q 210 676 157 660 q 311 692 263 692 q 394 683 347 692 q 481 644 440 674 q 551 559 522 615 q 579 410 579 503 l 579 0 z "},"å":{"ha":636,"x_min":50,"x_max":579,"o":"m 435 899 q 399 811 435 847 q 311 775 363 775 q 225 811 261 775 q 189 899 189 847 q 225 985 189 949 q 311 1021 261 1021 q 399 985 363 1021 q 435 899 435 949 m 349 860 q 357 868 349 860 q 365 899 365 876 q 349 936 365 921 q 311 951 333 951 q 274 936 289 951 q 258 899 258 921 q 274 860 258 876 q 311 844 289 844 q 349 860 333 844 m 440 147 q 440 278 440 147 q 340 274 388 278 q 258 259 293 269 q 203 229 224 249 q 183 179 183 210 q 222 122 183 135 q 314 110 260 110 q 378 120 344 110 q 440 147 413 131 m 579 0 l 440 0 l 440 35 q 359 -1 404 11 q 276 -14 314 -14 q 188 1 229 -14 q 117 42 147 15 q 68 102 86 68 q 50 176 50 136 q 70 264 50 222 q 137 336 90 306 q 258 385 183 367 q 440 403 332 403 q 435 467 440 439 q 414 515 429 496 q 372 543 399 533 q 306 553 346 553 q 192 533 246 553 q 79 460 138 513 l 65 460 l 118 635 q 210 676 157 660 q 311 692 263 692 q 394 683 347 692 q 481 644 440 674 q 551 559 522 615 q 579 410 579 503 l 579 0 z "},"æ":{"ha":1111,"x_min":50,"x_max":993,"o":"m 579 0 l 440 0 l 440 35 q 359 -1 404 11 q 276 -14 314 -14 q 188 1 229 -14 q 117 42 147 15 q 68 102 86 68 q 50 176 50 136 q 69 264 50 222 q 136 336 96 317 q 258 385 217 374 q 417 432 338 408 q 415 494 414 432 q 382 539 415 521 q 372 543 378 542 q 306 553 346 553 q 192 533 246 553 q 79 460 138 513 l 65 460 l 118 635 q 210 676 157 660 q 311 692 263 692 q 394 683 347 692 q 481 644 440 674 q 488 640 485 642 q 533 664 510 654 q 667 692 596 692 q 797 671 733 692 q 908 604 861 650 q 980 486 956 558 q 993 313 1004 414 l 579 313 l 579 158 q 622 139 599 146 q 707 124 663 124 q 842 147 779 124 q 950 208 906 171 l 950 64 q 826 7 893 28 q 686 -14 758 -14 q 579 3 631 -14 l 579 0 m 835 446 q 821 489 835 468 q 784 525 807 510 q 731 550 761 540 q 665 560 700 560 q 561 533 608 560 q 578 446 575 496 l 835 446 m 435 310 q 258 258 435 311 q 203 229 224 249 q 183 179 183 210 q 222 122 183 135 q 314 110 276 104 q 378 119 361 117 q 450 136 414 128 l 456 219 q 435 310 451 275 z "},"ç":{"ha":639,"x_min":43,"x_max":604,"o":"m 414 -190 q 185 -256 350 -256 l 185 -140 q 299 -114 235 -151 q 318 -37 318 -101 l 318 -6 l 450 -6 l 449 -96 q 414 -190 449 -156 m 604 44 q 500 1 556 17 q 383 -14 444 -14 q 251 13 313 -14 q 143 87 189 40 q 70 196 97 133 q 43 329 43 258 q 70 460 43 399 q 144 567 97 521 q 252 640 190 613 q 385 667 314 667 q 501 651 446 667 q 604 608 556 636 l 604 442 q 509 504 567 481 q 383 528 451 528 q 305 512 342 528 q 241 469 268 496 q 198 405 214 442 q 182 328 182 368 q 198 249 182 286 q 241 184 214 211 q 305 141 268 157 q 383 125 342 125 q 509 148 451 125 q 604 211 567 171 l 604 44 z "},"è":{"ha":747,"x_min":43,"x_max":711,"o":"m 129 1024 l 386 888 l 385 775 l 129 907 l 129 1024 m 553 446 q 539 489 553 468 q 502 525 525 510 q 449 550 479 540 q 383 560 418 560 q 271 527 321 560 q 197 446 221 494 l 553 446 m 711 313 q 186 313 711 313 q 216 238 194 272 q 269 178 238 203 q 340 138 300 153 q 425 124 381 124 q 560 147 497 124 q 668 208 624 171 l 668 64 q 544 7 611 28 q 404 -14 476 -14 q 263 15 329 -14 q 149 94 197 44 q 72 212 100 144 q 43 354 43 279 q 70 485 43 424 q 144 592 97 546 q 252 665 190 638 q 385 692 314 692 q 515 671 451 692 q 626 604 579 650 q 698 486 674 558 q 711 313 722 414 z "},"é":{"ha":747,"x_min":43,"x_max":711,"o":"m 642 1024 l 642 908 l 385 775 l 385 888 l 642 1024 m 553 446 q 539 489 553 468 q 502 525 525 510 q 449 550 479 540 q 383 560 418 560 q 271 527 321 560 q 197 446 221 494 l 553 446 m 711 313 q 186 313 711 313 q 216 238 194 272 q 269 178 238 203 q 340 138 300 153 q 425 124 381 124 q 560 147 497 124 q 668 208 624 171 l 668 64 q 544 7 611 28 q 404 -14 476 -14 q 263 15 329 -14 q 149 94 197 44 q 72 212 100 144 q 43 354 43 279 q 70 485 43 424 q 144 592 97 546 q 252 665 190 638 q 385 692 314 692 q 515 671 451 692 q 626 604 579 650 q 698 486 674 558 q 711 313 722 414 z "},"ê":{"ha":747,"x_min":43,"x_max":711,"o":"m 385 1021 l 611 776 l 471 775 l 385 869 l 297 775 l 158 775 l 385 1021 m 553 446 q 539 489 553 468 q 502 525 525 510 q 449 550 479 540 q 383 560 418 560 q 271 527 321 560 q 197 446 221 494 l 553 446 m 711 313 q 186 313 711 313 q 216 238 194 272 q 269 178 238 203 q 340 138 300 153 q 425 124 381 124 q 560 147 497 124 q 668 208 624 171 l 668 64 q 544 7 611 28 q 404 -14 476 -14 q 263 15 329 -14 q 149 94 197 44 q 72 212 100 144 q 43 354 43 279 q 70 485 43 424 q 144 592 97 546 q 252 665 190 638 q 385 692 314 692 q 515 671 451 692 q 626 604 579 650 q 698 486 674 558 q 711 313 722 414 z "},"ë":{"ha":747,"x_min":43,"x_max":711,"o":"m 603 872 l 506 775 l 408 872 l 506 971 l 603 872 m 363 872 l 265 775 l 168 872 l 265 971 l 363 872 m 553 446 q 539 489 553 468 q 502 525 525 510 q 449 550 479 540 q 383 560 418 560 q 271 527 321 560 q 197 446 221 494 l 553 446 m 711 313 q 186 313 711 313 q 216 238 194 272 q 269 178 238 203 q 340 138 300 153 q 425 124 381 124 q 560 147 497 124 q 668 208 624 171 l 668 64 q 544 7 611 28 q 404 -14 476 -14 q 263 15 329 -14 q 149 94 197 44 q 72 212 100 144 q 43 354 43 279 q 70 485 43 424 q 144 592 97 546 q 252 665 190 638 q 385 692 314 692 q 515 671 451 692 q 626 604 579 650 q 698 486 674 558 q 711 313 722 414 z "},"ì":{"ha":278,"x_min":-117,"x_max":208,"o":"m -117 999 l 140 863 l 139 750 l -117 882 l -117 999 m 208 0 l 71 0 l 71 658 l 208 658 l 208 0 z "},"í":{"ha":278,"x_min":71,"x_max":397,"o":"m 396 999 l 396 883 l 139 750 l 139 863 l 396 999 m 208 0 l 71 0 l 71 658 l 208 658 l 208 0 z "},"î":{"ha":278,"x_min":-87,"x_max":367,"o":"m 140 996 l 367 751 l 226 750 l 140 844 l 53 750 l -86 750 l 140 996 m 208 0 l 71 0 l 71 658 l 208 658 l 208 0 z "},"ï":{"ha":278,"x_min":-78,"x_max":357,"o":"m 357 847 l 260 750 l 163 847 l 260 946 l 357 847 m 117 847 l 19 750 l -78 847 l 19 946 l 117 847 m 208 0 l 71 0 l 71 658 l 208 658 l 208 0 z "},"ñ":{"ha":726,"x_min":71,"x_max":671,"o":"m 621 890 q 542 783 593 824 q 363 764 474 729 q 336 774 361 764 q 306 788 311 785 q 208 807 249 807 q 129 775 167 807 q 119 774 124 768 q 197 881 143 838 q 365 903 261 931 q 389 894 375 900 q 417 883 403 889 q 435 876 432 878 q 610 890 547 836 q 617 894 615 894 q 619 892 618 893 l 621 890 m 671 0 l 532 0 l 532 396 q 520 447 532 422 q 488 489 508 471 q 439 517 467 507 q 379 528 411 528 q 282 511 326 528 q 210 467 238 494 l 210 0 l 71 0 l 71 660 l 210 660 l 210 619 q 290 654 247 642 q 381 667 333 667 q 491 645 439 667 q 583 586 543 624 q 647 499 624 549 q 671 396 671 450 l 671 0 z "},"ò":{"ha":764,"x_min":43,"x_max":724,"o":"m 129 999 l 386 863 l 385 750 l 129 882 l 129 999 m 585 329 q 569 406 585 369 q 525 469 553 442 q 461 512 497 496 q 383 528 425 528 q 305 512 342 528 q 241 469 268 496 q 198 405 214 442 q 182 328 182 368 q 198 249 182 286 q 241 184 214 211 q 305 141 268 157 q 383 125 342 125 q 461 141 425 125 q 525 185 497 157 q 569 250 553 213 q 585 329 585 288 m 724 329 q 697 196 724 258 q 623 87 669 133 q 515 13 576 40 q 383 -14 453 -14 q 251 13 313 -14 q 143 87 189 40 q 70 196 97 133 q 43 329 43 258 q 70 460 43 399 q 144 567 97 521 q 252 640 190 613 q 385 667 314 667 q 516 640 454 667 q 624 567 578 613 q 697 460 669 521 q 724 329 724 399 z "},"ó":{"ha":764,"x_min":43,"x_max":724,"o":"m 642 999 l 642 883 l 385 750 l 385 863 l 642 999 m 585 329 q 569 406 585 369 q 525 469 553 442 q 461 512 497 496 q 383 528 425 528 q 305 512 342 528 q 241 469 268 496 q 198 405 214 442 q 182 328 182 368 q 198 249 182 286 q 241 184 214 211 q 305 141 268 157 q 383 125 342 125 q 461 141 425 125 q 525 185 497 157 q 569 250 553 213 q 585 329 585 288 m 724 329 q 697 196 724 258 q 623 87 669 133 q 515 13 576 40 q 383 -14 453 -14 q 251 13 313 -14 q 143 87 189 40 q 70 196 97 133 q 43 329 43 258 q 70 460 43 399 q 144 567 97 521 q 252 640 190 613 q 385 667 314 667 q 516 640 454 667 q 624 567 578 613 q 697 460 669 521 q 724 329 724 399 z "},"ô":{"ha":764,"x_min":43,"x_max":724,"o":"m 385 996 l 611 751 l 471 750 l 385 844 l 297 750 l 158 750 l 385 996 m 585 329 q 569 406 585 369 q 525 469 553 442 q 461 512 497 496 q 383 528 425 528 q 305 512 342 528 q 241 469 268 496 q 198 405 214 442 q 182 328 182 368 q 198 249 182 286 q 241 184 214 211 q 305 141 268 157 q 383 125 342 125 q 461 141 425 125 q 525 185 497 157 q 569 250 553 213 q 585 329 585 288 m 724 329 q 697 196 724 258 q 623 87 669 133 q 515 13 576 40 q 383 -14 453 -14 q 251 13 313 -14 q 143 87 189 40 q 70 196 97 133 q 43 329 43 258 q 70 460 43 399 q 144 567 97 521 q 252 640 190 613 q 385 667 314 667 q 516 640 454 667 q 624 567 578 613 q 697 460 669 521 q 724 329 724 399 z "},"õ":{"ha":764,"x_min":43,"x_max":724,"o":"m 635 890 q 556 783 607 824 q 376 764 488 729 q 350 774 375 764 q 319 788 325 785 q 222 807 263 807 q 143 775 181 807 q 133 774 138 768 q 211 881 157 838 q 379 903 275 931 q 403 894 389 900 q 431 883 417 889 q 449 876 446 878 q 624 890 561 836 q 631 894 629 894 q 633 892 632 893 l 635 890 m 585 329 q 569 406 585 369 q 525 469 553 442 q 461 512 497 496 q 383 528 425 528 q 305 512 342 528 q 241 469 268 496 q 198 405 214 442 q 182 328 182 368 q 198 249 182 286 q 241 184 214 211 q 305 141 268 157 q 383 125 342 125 q 461 141 425 125 q 525 185 497 157 q 569 250 553 213 q 585 329 585 288 m 724 329 q 697 196 724 258 q 623 87 669 133 q 515 13 576 40 q 383 -14 453 -14 q 251 13 313 -14 q 143 87 189 40 q 70 196 97 133 q 43 329 43 258 q 70 460 43 399 q 144 567 97 521 q 252 640 190 613 q 385 667 314 667 q 516 640 454 667 q 624 567 578 613 q 697 460 669 521 q 724 329 724 399 z "},"ö":{"ha":764,"x_min":43,"x_max":724,"o":"m 603 847 l 506 750 l 408 847 l 506 946 l 603 847 m 363 847 l 265 750 l 168 847 l 265 946 l 363 847 m 585 329 q 569 406 585 369 q 525 469 553 442 q 461 512 497 496 q 383 528 425 528 q 305 512 342 528 q 241 469 268 496 q 198 405 214 442 q 182 328 182 368 q 198 249 182 286 q 241 184 214 211 q 305 141 268 157 q 383 125 342 125 q 461 141 425 125 q 525 185 497 157 q 569 250 553 213 q 585 329 585 288 m 724 329 q 697 196 724 258 q 623 87 669 133 q 515 13 576 40 q 383 -14 453 -14 q 251 13 313 -14 q 143 87 189 40 q 70 196 97 133 q 43 329 43 258 q 70 460 43 399 q 144 567 97 521 q 252 640 190 613 q 385 667 314 667 q 516 640 454 667 q 624 567 578 613 q 697 460 669 521 q 724 329 724 399 z "},"÷":{"ha":538,"x_min":53,"x_max":485,"o":"m 371 676 l 274 579 l 176 676 l 274 775 l 371 676 m 368 263 l 271 165 l 174 263 l 271 361 l 368 263 m 485 544 l 485 392 l 53 392 l 53 544 l 485 544 z "},"ø":{"ha":764,"x_min":43,"x_max":724,"o":"m 724 329 q 697 196 724 258 q 623 87 669 133 q 515 13 576 40 q 383 -14 453 -14 q 267 7 321 -14 l 250 -21 l 97 -31 l 158 72 q 143 86 151 79 q 70 196 97 133 q 43 329 43 258 q 70 460 43 399 q 144 567 97 521 q 252 640 190 613 q 385 667 314 667 q 504 644 447 667 l 540 706 l 683 706 l 608 581 q 624 567 617 574 q 697 460 669 521 q 724 329 724 399 m 585 329 q 569 406 585 369 q 536 458 556 435 l 340 129 q 383 125 361 125 q 461 141 425 125 q 525 185 497 157 q 569 250 553 213 q 585 329 585 288 m 431 522 q 383 528 407 528 q 305 512 342 528 q 241 469 268 496 q 198 405 214 442 q 182 328 182 368 q 197 249 182 286 q 232 193 211 218 l 431 522 z "},"ù":{"ha":729,"x_min":57,"x_max":661,"o":"m 103 999 l 360 863 l 358 750 l 103 882 l 103 999 m 661 0 l 522 0 l 522 42 q 346 -14 442 -14 q 253 0 303 -14 q 159 47 203 14 q 86 135 115 81 q 57 271 57 190 l 57 660 l 196 660 l 196 296 q 208 231 196 261 q 240 179 219 201 q 288 144 261 157 q 346 132 315 132 q 441 144 396 132 q 522 181 486 156 l 522 660 l 661 660 l 661 0 z "},"ú":{"ha":729,"x_min":57,"x_max":661,"o":"m 615 999 l 615 883 l 358 750 l 358 863 l 615 999 m 661 0 l 522 0 l 522 42 q 346 -14 442 -14 q 253 0 303 -14 q 159 47 203 14 q 86 135 115 81 q 57 271 57 190 l 57 660 l 196 660 l 196 296 q 208 231 196 261 q 240 179 219 201 q 288 144 261 157 q 346 132 315 132 q 441 144 396 132 q 522 181 486 156 l 522 660 l 661 660 l 661 0 z "},"û":{"ha":729,"x_min":57,"x_max":661,"o":"m 360 996 l 586 751 l 446 750 l 360 844 l 272 750 l 133 750 l 360 996 m 661 0 l 522 0 l 522 42 q 346 -14 442 -14 q 253 0 303 -14 q 159 47 203 14 q 86 135 115 81 q 57 271 57 190 l 57 660 l 196 660 l 196 296 q 208 231 196 261 q 240 179 219 201 q 288 144 261 157 q 346 132 315 132 q 441 144 396 132 q 522 181 486 156 l 522 660 l 661 660 l 661 0 z "},"ü":{"ha":729,"x_min":57,"x_max":661,"o":"m 579 831 l 482 733 l 385 831 l 482 929 l 579 831 m 339 831 l 242 733 l 144 831 l 242 929 l 339 831 m 661 0 l 522 0 l 522 42 q 346 -14 442 -14 q 253 0 303 -14 q 159 47 203 14 q 86 135 115 81 q 57 271 57 190 l 57 660 l 196 660 l 196 296 q 208 231 196 261 q 240 179 219 201 q 288 144 261 157 q 346 132 315 132 q 441 144 396 132 q 522 181 486 156 l 522 660 l 661 660 l 661 0 z "},"ý":{"ha":785,"x_min":18,"x_max":767,"o":"m 649 999 l 649 883 l 392 750 l 392 863 l 649 999 m 767 660 l 335 -156 q 218 -278 294 -232 q 56 -325 142 -325 l 56 -186 q 147 -160 104 -186 q 214 -90 190 -133 l 311 96 l 18 660 l 175 660 l 390 246 l 613 660 l 767 660 z "},"þ":{"ha":771,"x_min":71,"x_max":728,"o":"m 589 329 q 573 406 589 369 q 529 469 557 442 q 465 512 501 496 q 388 528 429 528 q 288 509 333 528 q 210 460 242 490 l 210 201 q 288 145 242 165 q 388 125 333 125 q 465 141 429 125 q 529 185 501 157 q 573 250 557 213 q 589 329 589 288 m 728 329 q 701 196 728 258 q 627 87 674 133 q 519 13 581 40 q 388 -14 457 -14 q 294 -1 339 -14 q 210 36 249 13 l 210 -279 l 71 -279 l 71 865 l 210 865 l 210 622 q 294 655 250 643 q 389 667 339 667 q 520 640 458 667 q 628 567 582 613 q 701 460 674 521 q 728 329 728 399 z "},"ÿ":{"ha":785,"x_min":18,"x_max":767,"o":"m 610 847 l 513 750 l 415 847 l 513 946 l 610 847 m 369 847 l 272 750 l 175 847 l 272 946 l 369 847 m 767 660 l 335 -156 q 218 -278 294 -232 q 56 -325 142 -325 l 56 -186 q 147 -160 104 -186 q 214 -90 190 -133 l 311 96 l 18 660 l 175 660 l 390 246 l 613 660 l 767 660 z "},"Ā":{"ha":938,"x_min":17,"x_max":924,"o":"m 683 1081 l 681 1076 l 264 1076 q 257 1086 257 1076 l 257 1203 l 261 1207 l 678 1207 l 683 1204 l 683 1081 m 924 -1 l 771 -1 l 676 238 l 264 238 l 169 -1 l 17 -1 l 422 972 l 518 972 l 924 -1 m 615 375 l 471 728 l 325 375 l 615 375 z "},"ā":{"ha":636,"x_min":50,"x_max":579,"o":"m 524 779 l 521 775 l 104 775 q 97 785 97 775 l 97 901 l 101 906 l 518 906 l 524 903 l 524 779 m 440 147 q 440 278 440 147 q 340 274 388 278 q 258 259 293 269 q 203 229 224 249 q 183 179 183 210 q 222 122 183 135 q 314 110 260 110 q 378 120 344 110 q 440 147 413 131 m 579 0 l 440 0 l 440 35 q 359 -1 404 11 q 276 -14 314 -14 q 188 1 229 -14 q 117 42 147 15 q 68 102 86 68 q 50 176 50 136 q 70 264 50 222 q 137 336 90 306 q 258 385 183 367 q 440 403 332 403 q 435 467 440 439 q 414 515 429 496 q 372 543 399 533 q 306 553 346 553 q 192 533 246 553 q 79 460 138 513 l 65 460 l 118 635 q 210 676 157 660 q 311 692 263 692 q 394 683 347 692 q 481 644 440 674 q 551 559 522 615 q 579 410 579 503 l 579 0 z "},"Ă":{"ha":938,"x_min":17,"x_max":924,"o":"m 619 1138 q 588 1107 619 1138 q 469 1076 557 1076 q 320 1138 382 1076 q 258 1288 258 1200 l 378 1288 q 404 1223 378 1250 q 469 1196 431 1196 q 534 1223 507 1196 q 561 1288 561 1250 l 681 1288 q 619 1138 681 1200 m 924 -1 l 771 -1 l 676 238 l 264 238 l 169 -1 l 17 -1 l 422 972 l 518 972 l 924 -1 m 615 375 l 471 728 l 325 375 l 615 375 z "},"ă":{"ha":636,"x_min":50,"x_max":579,"o":"m 460 837 q 430 806 460 837 q 311 775 399 775 q 162 837 224 775 q 100 986 100 899 l 219 986 q 246 922 219 949 q 311 894 272 894 q 376 922 349 894 q 403 986 403 949 l 522 986 q 460 837 522 899 m 440 147 q 440 278 440 147 q 340 274 388 278 q 258 259 293 269 q 203 229 224 249 q 183 179 183 210 q 222 122 183 135 q 314 110 260 110 q 378 120 344 110 q 440 147 413 131 m 579 0 l 440 0 l 440 35 q 359 -1 404 11 q 276 -14 314 -14 q 188 1 229 -14 q 117 42 147 15 q 68 102 86 68 q 50 176 50 136 q 70 264 50 222 q 137 336 90 306 q 258 385 183 367 q 440 403 332 403 q 435 467 440 439 q 414 515 429 496 q 372 543 399 533 q 306 553 346 553 q 192 533 246 553 q 79 460 138 513 l 65 460 l 118 635 q 210 676 157 660 q 311 692 263 692 q 394 683 347 692 q 481 644 440 674 q 551 559 522 615 q 579 410 579 503 l 579 0 z "},"Ą":{"ha":938,"x_min":17,"x_max":924,"o":"m 469 -83 q 469 4 469 -83 l 600 7 l 600 -25 q 612 -93 600 -57 q 646 -136 624 -129 q 675 -137 663 -139 q 707 -132 688 -136 q 733 -128 726 -128 l 733 -243 q 725 -249 733 -247 q 596 -239 656 -262 q 504 -178 539 -218 q 469 -83 469 -137 m 924 -1 l 771 -1 l 676 238 l 264 238 l 169 -1 l 17 -1 l 422 972 l 518 972 l 924 -1 m 615 375 l 471 728 l 325 375 l 615 375 z "},"ą":{"ha":636,"x_min":50,"x_max":579,"o":"m 276 -96 q 276 -8 276 -96 l 407 -6 l 407 -37 q 419 -106 407 -69 q 453 -149 431 -142 q 482 -150 469 -151 q 514 -144 494 -149 q 540 -140 533 -140 l 540 -256 q 532 -261 540 -260 q 403 -251 463 -275 q 311 -190 346 -231 q 276 -96 276 -150 m 440 147 q 440 278 440 147 q 340 274 388 278 q 258 259 293 269 q 203 229 224 249 q 183 179 183 210 q 222 122 183 135 q 314 110 260 110 q 378 120 344 110 q 440 147 413 131 m 579 0 l 440 0 l 440 35 q 359 -1 404 11 q 276 -14 314 -14 q 188 1 229 -14 q 117 42 147 15 q 68 102 86 68 q 50 176 50 136 q 70 264 50 222 q 137 336 90 306 q 258 385 183 367 q 440 403 332 403 q 435 467 440 439 q 414 515 429 496 q 372 543 399 533 q 306 553 346 553 q 192 533 246 553 q 79 460 138 513 l 65 460 l 118 635 q 210 676 157 660 q 311 692 263 692 q 394 683 347 692 q 481 644 440 674 q 551 559 522 615 q 579 410 579 503 l 579 0 z "},"Ć":{"ha":935,"x_min":43,"x_max":900,"o":"m 807 1325 l 807 1210 l 550 1076 l 550 1189 l 807 1325 m 900 711 q 749 815 840 775 q 554 854 658 854 q 410 826 478 854 q 291 751 342 799 q 211 641 240 704 q 182 507 182 578 q 212 356 182 426 q 292 232 242 285 q 411 149 343 179 q 557 118 479 118 q 750 160 661 118 q 897 275 839 203 l 897 88 q 735 8 824 36 q 550 -21 647 -21 q 353 21 446 -21 q 192 134 261 63 q 83 302 124 206 q 43 507 43 399 q 83 695 43 607 q 192 849 124 783 q 353 954 261 915 q 550 993 446 993 q 737 967 649 993 q 900 893 825 940 l 900 711 z "},"ć":{"ha":639,"x_min":43,"x_max":642,"o":"m 642 999 l 642 883 l 385 750 l 385 863 l 642 999 m 604 44 q 500 1 556 17 q 383 -14 444 -14 q 251 13 313 -14 q 143 87 189 40 q 70 196 97 133 q 43 329 43 258 q 70 460 43 399 q 144 567 97 521 q 252 640 190 613 q 385 667 314 667 q 501 651 446 667 q 604 608 556 636 l 604 442 q 509 504 567 481 q 383 528 451 528 q 305 512 342 528 q 241 469 268 496 q 198 405 214 442 q 182 328 182 368 q 198 249 182 286 q 241 184 214 211 q 305 141 268 157 q 383 125 342 125 q 509 148 451 125 q 604 211 567 171 l 604 44 z "},"Ĉ":{"ha":935,"x_min":43,"x_max":900,"o":"m 550 1322 l 776 1078 l 636 1076 l 550 1171 l 463 1076 l 324 1076 l 550 1322 m 900 711 q 749 815 840 775 q 554 854 658 854 q 410 826 478 854 q 291 751 342 799 q 211 641 240 704 q 182 507 182 578 q 212 356 182 426 q 292 232 242 285 q 411 149 343 179 q 557 118 479 118 q 750 160 661 118 q 897 275 839 203 l 897 88 q 735 8 824 36 q 550 -21 647 -21 q 353 21 446 -21 q 192 134 261 63 q 83 302 124 206 q 43 507 43 399 q 83 695 43 607 q 192 849 124 783 q 353 954 261 915 q 550 993 446 993 q 737 967 649 993 q 900 893 825 940 l 900 711 z "},"ĉ":{"ha":639,"x_min":43,"x_max":611,"o":"m 385 996 l 611 751 l 471 750 l 385 844 l 297 750 l 158 750 l 385 996 m 604 44 q 500 1 556 17 q 383 -14 444 -14 q 251 13 313 -14 q 143 87 189 40 q 70 196 97 133 q 43 329 43 258 q 70 460 43 399 q 144 567 97 521 q 252 640 190 613 q 385 667 314 667 q 501 651 446 667 q 604 608 556 636 l 604 442 q 509 504 567 481 q 383 528 451 528 q 305 512 342 528 q 241 469 268 496 q 198 405 214 442 q 182 328 182 368 q 198 249 182 286 q 241 184 214 211 q 305 141 268 157 q 383 125 342 125 q 509 148 451 125 q 604 211 567 171 l 604 44 z "},"Ċ":{"ha":935,"x_min":43,"x_max":900,"o":"m 635 1160 q 608 1135 622 1149 q 578 1103 594 1121 q 551 1076 561 1086 l 544 1076 q 465 1157 469 1153 l 464 1163 l 547 1246 q 554 1246 551 1251 l 633 1165 l 635 1160 m 900 711 q 749 815 840 775 q 554 854 658 854 q 410 826 478 854 q 291 751 342 799 q 211 641 240 704 q 182 507 182 578 q 212 356 182 426 q 292 232 242 285 q 411 149 343 179 q 557 118 479 118 q 750 160 661 118 q 897 275 839 203 l 897 88 q 735 8 824 36 q 550 -21 647 -21 q 353 21 446 -21 q 192 134 261 63 q 83 302 124 206 q 43 507 43 399 q 83 695 43 607 q 192 849 124 783 q 353 954 261 915 q 550 993 446 993 q 737 967 649 993 q 900 893 825 940 l 900 711 z "},"ċ":{"ha":639,"x_min":43,"x_max":604,"o":"m 471 833 q 444 808 458 822 q 414 777 431 794 q 388 750 397 760 l 381 750 q 301 831 306 826 l 300 836 l 383 919 q 390 919 388 925 l 469 839 l 471 833 m 604 44 q 500 1 556 17 q 383 -14 444 -14 q 251 13 313 -14 q 143 87 189 40 q 70 196 97 133 q 43 329 43 258 q 70 460 43 399 q 144 567 97 521 q 252 640 190 613 q 385 667 314 667 q 501 651 446 667 q 604 608 556 636 l 604 442 q 509 504 567 481 q 383 528 451 528 q 305 512 342 528 q 241 469 268 496 q 198 405 214 442 q 182 328 182 368 q 198 249 182 286 q 241 184 214 211 q 305 141 268 157 q 383 125 342 125 q 509 148 451 125 q 604 211 567 171 l 604 44 z "},"Č":{"ha":935,"x_min":43,"x_max":900,"o":"m 558 1082 q 546 1076 556 1076 l 542 1082 l 322 1318 l 463 1318 l 549 1225 l 636 1318 l 776 1318 l 558 1082 m 900 711 q 749 815 840 775 q 554 854 658 854 q 410 826 478 854 q 291 751 342 799 q 211 641 240 704 q 182 507 182 578 q 212 356 182 426 q 292 232 242 285 q 411 149 343 179 q 557 118 479 118 q 750 160 661 118 q 897 275 839 203 l 897 88 q 735 8 824 36 q 550 -21 647 -21 q 353 21 446 -21 q 192 134 261 63 q 83 302 124 206 q 43 507 43 399 q 83 695 43 607 q 192 849 124 783 q 353 954 261 915 q 550 993 446 993 q 737 967 649 993 q 900 893 825 940 l 900 711 z "},"č":{"ha":639,"x_min":43,"x_max":613,"o":"m 394 756 q 382 750 392 750 l 378 756 l 158 992 l 299 992 l 385 899 l 472 992 l 613 992 l 394 756 m 604 44 q 500 1 556 17 q 383 -14 444 -14 q 251 13 313 -14 q 143 87 189 40 q 70 196 97 133 q 43 329 43 258 q 70 460 43 399 q 144 567 97 521 q 252 640 190 613 q 385 667 314 667 q 501 651 446 667 q 604 608 556 636 l 604 442 q 509 504 567 481 q 383 528 451 528 q 305 512 342 528 q 241 469 268 496 q 198 405 214 442 q 182 328 182 368 q 198 249 182 286 q 241 184 214 211 q 305 141 268 157 q 383 125 342 125 q 509 148 451 125 q 604 211 567 171 l 604 44 z "},"Ď":{"ha":951,"x_min":71,"x_max":911,"o":"m 500 1082 q 488 1076 497 1076 l 483 1082 l 264 1318 l 404 1318 l 490 1225 l 578 1318 l 718 1318 l 500 1082 m 772 503 q 743 631 772 571 q 665 735 714 690 q 549 807 615 781 q 411 833 483 833 l 210 833 l 210 139 l 411 139 q 550 168 485 139 q 665 247 615 197 q 743 362 714 296 q 772 503 772 428 m 911 507 q 872 310 911 403 q 764 149 832 218 q 605 40 696 81 q 411 0 514 0 l 71 0 l 71 972 l 408 972 q 603 935 511 972 q 763 835 694 899 q 872 687 832 771 q 911 507 911 603 z "},"ď":{"ha":764,"x_min":43,"x_max":1036,"o":"m 1036 822 q 1019 748 1036 782 q 973 689 1003 714 q 903 649 943 664 q 818 635 864 635 l 818 650 q 849 667 835 656 q 874 697 863 678 q 891 747 885 717 q 897 822 897 776 l 897 972 l 1036 972 l 1036 822 m 693 0 l 554 0 l 554 32 q 474 -2 517 10 q 383 -14 431 -14 q 252 13 314 -14 q 144 87 190 40 q 70 196 97 133 q 43 329 43 258 q 70 460 43 399 q 143 567 97 521 q 251 640 189 613 q 382 667 313 667 q 473 654 429 667 q 554 619 517 642 l 554 972 l 693 972 l 693 0 m 554 464 q 478 510 522 493 q 383 528 435 528 q 306 512 342 528 q 242 469 269 496 q 198 406 214 442 q 182 329 182 369 q 198 250 182 288 q 242 185 214 213 q 306 141 269 157 q 383 125 342 125 q 478 142 433 125 q 554 188 522 158 l 554 464 z "},"Đ":{"ha":951,"x_min":71,"x_max":911,"o":"m 772 503 q 743 631 772 571 q 665 735 714 690 q 549 807 615 781 q 411 833 483 833 l 210 833 l 210 139 l 411 139 q 550 168 485 139 q 665 247 615 197 q 743 362 714 296 q 772 503 772 428 m 911 507 q 872 310 911 403 q 764 149 832 218 q 605 40 696 81 q 411 0 514 0 l 71 0 l 71 972 l 408 972 q 603 935 511 972 q 763 835 694 899 q 872 687 832 771 q 911 507 911 603 z "},"đ":{"ha":764,"x_min":43,"x_max":693,"o":"m 693 0 l 554 0 l 554 32 q 474 -2 517 10 q 383 -14 431 -14 q 252 13 314 -14 q 144 87 190 40 q 70 196 97 133 q 43 329 43 258 q 70 460 43 399 q 143 567 97 521 q 251 640 189 613 q 382 667 313 667 q 473 654 429 667 q 554 619 517 642 l 554 972 l 693 972 l 693 0 m 554 464 q 478 510 522 493 q 383 528 435 528 q 306 512 342 528 q 242 469 269 496 q 198 406 214 442 q 182 329 182 369 q 198 250 182 288 q 242 185 214 213 q 306 141 269 157 q 383 125 342 125 q 478 142 433 125 q 554 188 522 158 l 554 464 z "},"Ē":{"ha":715,"x_min":71,"x_max":682,"o":"m 576 1081 l 574 1076 l 157 1076 q 150 1086 150 1076 l 150 1203 l 154 1207 l 571 1207 l 576 1204 l 576 1081 m 682 0 l 71 0 l 71 972 l 654 972 l 654 833 l 210 833 l 210 590 l 547 590 l 547 451 l 210 451 l 210 142 l 682 142 l 682 0 z "},"ē":{"ha":747,"x_min":43,"x_max":711,"o":"m 599 779 l 596 775 l 179 775 q 172 785 172 775 l 172 901 l 176 906 l 593 906 l 599 903 l 599 779 m 553 446 q 539 489 553 468 q 502 525 525 510 q 449 550 479 540 q 383 560 418 560 q 271 527 321 560 q 197 446 221 494 l 553 446 m 711 313 q 186 313 711 313 q 216 238 194 272 q 269 178 238 203 q 340 138 300 153 q 425 124 381 124 q 560 147 497 124 q 668 208 624 171 l 668 64 q 544 7 611 28 q 404 -14 476 -14 q 263 15 329 -14 q 149 94 197 44 q 72 212 100 144 q 43 354 43 279 q 70 485 43 424 q 144 592 97 546 q 252 665 190 638 q 385 692 314 692 q 515 671 451 692 q 626 604 579 650 q 698 486 674 558 q 711 313 722 414 z "},"Ĕ":{"ha":715,"x_min":71,"x_max":682,"o":"m 512 1138 q 481 1107 512 1138 q 363 1076 450 1076 q 213 1138 275 1076 q 151 1288 151 1200 l 271 1288 q 297 1223 271 1250 q 363 1196 324 1196 q 427 1223 400 1196 q 454 1288 454 1250 l 574 1288 q 512 1138 574 1200 m 682 0 l 71 0 l 71 972 l 654 972 l 654 833 l 210 833 l 210 590 l 547 590 l 547 451 l 210 451 l 210 142 l 682 142 l 682 0 z "},"ĕ":{"ha":747,"x_min":43,"x_max":711,"o":"m 534 837 q 503 806 534 837 q 385 775 472 775 q 235 837 297 775 q 174 986 174 899 l 293 986 q 319 922 293 949 q 385 894 346 894 q 449 922 422 894 q 476 986 476 949 l 596 986 q 534 837 596 899 m 553 446 q 539 489 553 468 q 502 525 525 510 q 449 550 479 540 q 383 560 418 560 q 271 527 321 560 q 197 446 221 494 l 553 446 m 711 313 q 186 313 711 313 q 216 238 194 272 q 269 178 238 203 q 340 138 300 153 q 425 124 381 124 q 560 147 497 124 q 668 208 624 171 l 668 64 q 544 7 611 28 q 404 -14 476 -14 q 263 15 329 -14 q 149 94 197 44 q 72 212 100 144 q 43 354 43 279 q 70 485 43 424 q 144 592 97 546 q 252 665 190 638 q 385 692 314 692 q 515 671 451 692 q 626 604 579 650 q 698 486 674 558 q 711 313 722 414 z "},"Ė":{"ha":715,"x_min":71,"x_max":682,"o":"m 449 1160 q 422 1135 436 1149 q 392 1103 408 1121 q 365 1076 375 1086 l 358 1076 q 279 1157 283 1153 l 278 1163 l 361 1246 q 368 1246 365 1251 l 447 1165 l 449 1160 m 682 0 l 71 0 l 71 972 l 654 972 l 654 833 l 210 833 l 210 590 l 547 590 l 547 451 l 210 451 l 210 142 l 682 142 l 682 0 z "},"ė":{"ha":747,"x_min":43,"x_max":711,"o":"m 471 858 q 444 833 458 847 q 414 802 431 819 q 388 775 397 785 l 381 775 q 301 856 306 851 l 300 861 l 383 944 q 390 944 388 950 l 469 864 l 471 858 m 553 446 q 539 489 553 468 q 502 525 525 510 q 449 550 479 540 q 383 560 418 560 q 271 527 321 560 q 197 446 221 494 l 553 446 m 711 313 q 186 313 711 313 q 216 238 194 272 q 269 178 238 203 q 340 138 300 153 q 425 124 381 124 q 560 147 497 124 q 668 208 624 171 l 668 64 q 544 7 611 28 q 404 -14 476 -14 q 263 15 329 -14 q 149 94 197 44 q 72 212 100 144 q 43 354 43 279 q 70 485 43 424 q 144 592 97 546 q 252 665 190 638 q 385 692 314 692 q 515 671 451 692 q 626 604 579 650 q 698 486 674 558 q 711 313 722 414 z "},"Ę":{"ha":715,"x_min":71,"x_max":682,"o":"m 376 -82 q 376 6 376 -82 l 507 8 l 507 -24 q 519 -92 507 -56 q 553 -135 531 -128 q 582 -136 569 -137 q 614 -131 594 -135 q 640 -126 633 -126 l 640 -242 q 632 -247 640 -246 q 503 -237 563 -261 q 411 -176 446 -217 q 376 -82 376 -136 m 682 0 l 71 0 l 71 972 l 654 972 l 654 833 l 210 833 l 210 590 l 547 590 l 547 451 l 210 451 l 210 142 l 682 142 l 682 0 z "},"ę":{"ha":747,"x_min":43,"x_max":711,"o":"m 339 -96 q 339 -8 339 -96 l 469 -6 l 469 -37 q 481 -106 469 -69 q 515 -149 493 -142 q 544 -150 532 -151 q 576 -144 557 -149 q 603 -140 596 -140 l 603 -256 q 594 -261 603 -260 q 465 -251 525 -275 q 374 -190 408 -231 q 339 -96 339 -150 m 553 446 q 539 489 553 468 q 502 525 525 510 q 449 550 479 540 q 383 560 418 560 q 271 527 321 560 q 197 446 221 494 l 553 446 m 711 313 q 186 313 711 313 q 216 238 194 272 q 269 178 238 203 q 340 138 300 153 q 425 124 381 124 q 560 147 497 124 q 668 208 624 171 l 668 64 q 544 7 611 28 q 404 -14 476 -14 q 263 15 329 -14 q 149 94 197 44 q 72 212 100 144 q 43 354 43 279 q 70 485 43 424 q 144 592 97 546 q 252 665 190 638 q 385 692 314 692 q 515 671 451 692 q 626 604 579 650 q 698 486 674 558 q 711 313 722 414 z "},"Ě":{"ha":715,"x_min":71,"x_max":682,"o":"m 372 1082 q 360 1076 369 1076 l 356 1082 l 136 1318 l 276 1318 l 363 1225 l 450 1318 l 590 1318 l 372 1082 m 682 0 l 71 0 l 71 972 l 654 972 l 654 833 l 210 833 l 210 590 l 547 590 l 547 451 l 210 451 l 210 142 l 682 142 l 682 0 z "},"ě":{"ha":747,"x_min":43,"x_max":711,"o":"m 394 781 q 382 775 392 775 l 378 781 l 158 1017 l 299 1017 l 385 924 l 472 1017 l 613 1017 l 394 781 m 553 446 q 539 489 553 468 q 502 525 525 510 q 449 550 479 540 q 383 560 418 560 q 271 527 321 560 q 197 446 221 494 l 553 446 m 711 313 q 186 313 711 313 q 216 238 194 272 q 269 178 238 203 q 340 138 300 153 q 425 124 381 124 q 560 147 497 124 q 668 208 624 171 l 668 64 q 544 7 611 28 q 404 -14 476 -14 q 263 15 329 -14 q 149 94 197 44 q 72 212 100 144 q 43 354 43 279 q 70 485 43 424 q 144 592 97 546 q 252 665 190 638 q 385 692 314 692 q 515 671 451 692 q 626 604 579 650 q 698 486 674 558 q 711 313 722 414 z "},"Ĝ":{"ha":1000,"x_min":44,"x_max":943,"o":"m 551 1322 l 778 1078 l 638 1076 l 551 1171 l 464 1076 l 325 1076 l 551 1322 m 943 88 q 760 8 860 36 q 551 -21 661 -21 q 355 21 447 -21 q 194 134 263 63 q 85 302 125 206 q 44 507 44 399 q 85 695 44 607 q 194 849 125 783 q 355 954 263 915 q 551 993 447 993 q 751 967 656 993 q 926 893 846 940 l 926 726 q 765 819 861 783 q 556 854 668 854 q 411 826 479 854 q 292 751 343 799 q 213 641 242 704 q 183 507 183 578 q 213 356 183 426 q 294 232 243 285 q 413 149 344 179 q 558 118 481 118 q 804 169 693 118 l 804 407 l 632 407 l 632 546 l 943 546 l 943 88 z "},"ĝ":{"ha":667,"x_min":14,"x_max":664,"o":"m 335 1038 l 561 793 l 421 792 l 335 886 l 247 792 l 108 792 l 335 1038 m 518 -112 q 460 -41 518 -71 q 311 -3 403 -11 q 201 -49 240 -22 q 161 -110 161 -76 q 212 -172 161 -146 q 339 -197 263 -197 q 467 -172 415 -197 q 518 -112 518 -147 m 443 403 q 448 414 443 403 q 453 450 453 425 q 443 497 453 475 q 417 534 433 518 q 380 560 401 550 q 335 569 358 569 q 288 560 310 569 q 251 534 267 550 q 226 497 235 518 q 217 450 217 475 q 226 403 217 425 q 251 365 235 381 q 288 339 267 349 q 335 329 310 329 q 380 339 358 329 q 417 365 401 349 q 443 403 433 381 m 664 -112 q 639 -201 664 -160 q 570 -272 614 -242 q 467 -319 526 -301 q 340 -336 408 -336 q 212 -324 271 -336 q 108 -283 153 -311 q 39 -212 64 -256 q 14 -108 14 -169 q 63 -3 25 -47 q 154 61 100 40 q 116 116 132 85 q 100 183 100 147 q 110 238 100 211 q 140 283 121 264 q 78 449 78 350 q 98 549 78 501 q 153 631 118 596 q 235 688 188 667 q 335 708 282 708 q 413 696 375 708 q 483 660 451 683 q 642 660 483 660 l 642 528 l 585 528 q 595 490 592 508 q 599 451 599 471 q 582 360 599 403 q 538 283 565 317 q 472 229 510 250 q 392 203 435 208 q 378 201 385 201 l 365 201 q 278 211 315 201 q 262 201 268 206 q 256 190 256 197 q 261 169 256 178 q 279 156 267 161 q 313 144 292 150 l 363 129 q 475 101 421 118 q 571 57 529 85 q 638 -12 613 29 q 664 -112 664 -53 z "},"Ğ":{"ha":1000,"x_min":44,"x_max":943,"o":"m 701 1138 q 670 1107 701 1138 q 551 1076 639 1076 q 402 1138 464 1076 q 340 1288 340 1200 l 460 1288 q 486 1223 460 1250 q 551 1196 513 1196 q 616 1223 589 1196 q 643 1288 643 1250 l 763 1288 q 701 1138 763 1200 m 943 88 q 760 8 860 36 q 551 -21 661 -21 q 355 21 447 -21 q 194 134 263 63 q 85 302 125 206 q 44 507 44 399 q 85 695 44 607 q 194 849 125 783 q 355 954 263 915 q 551 993 447 993 q 751 967 656 993 q 926 893 846 940 l 926 726 q 765 819 861 783 q 556 854 668 854 q 411 826 479 854 q 292 751 343 799 q 213 641 242 704 q 183 507 183 578 q 213 356 183 426 q 294 232 243 285 q 413 149 344 179 q 558 118 481 118 q 804 169 693 118 l 804 407 l 632 407 l 632 546 l 943 546 l 943 88 z "},"ğ":{"ha":667,"x_min":14,"x_max":664,"o":"m 484 853 q 453 823 484 853 q 335 792 422 792 q 185 853 247 792 q 124 1003 124 915 l 243 1003 q 269 938 243 965 q 335 911 296 911 q 399 938 372 911 q 426 1003 426 965 l 546 1003 q 484 853 546 915 m 518 -112 q 460 -41 518 -71 q 311 -3 403 -11 q 201 -49 240 -22 q 161 -110 161 -76 q 212 -172 161 -146 q 339 -197 263 -197 q 467 -172 415 -197 q 518 -112 518 -147 m 443 403 q 448 414 443 403 q 453 450 453 425 q 443 497 453 475 q 417 534 433 518 q 380 560 401 550 q 335 569 358 569 q 288 560 310 569 q 251 534 267 550 q 226 497 235 518 q 217 450 217 475 q 226 403 217 425 q 251 365 235 381 q 288 339 267 349 q 335 329 310 329 q 380 339 358 329 q 417 365 401 349 q 443 403 433 381 m 664 -112 q 639 -201 664 -160 q 570 -272 614 -242 q 467 -319 526 -301 q 340 -336 408 -336 q 212 -324 271 -336 q 108 -283 153 -311 q 39 -212 64 -256 q 14 -108 14 -169 q 63 -3 25 -47 q 154 61 100 40 q 116 116 132 85 q 100 183 100 147 q 110 238 100 211 q 140 283 121 264 q 78 449 78 350 q 98 549 78 501 q 153 631 118 596 q 235 688 188 667 q 335 708 282 708 q 413 696 375 708 q 483 660 451 683 q 642 660 483 660 l 642 528 l 585 528 q 595 490 592 508 q 599 451 599 471 q 582 360 599 403 q 538 283 565 317 q 472 229 510 250 q 392 203 435 208 q 378 201 385 201 l 365 201 q 278 211 315 201 q 262 201 268 206 q 256 190 256 197 q 261 169 256 178 q 279 156 267 161 q 313 144 292 150 l 363 129 q 475 101 421 118 q 571 57 529 85 q 638 -12 613 29 q 664 -112 664 -53 z "},"Ġ":{"ha":1000,"x_min":44,"x_max":943,"o":"m 638 1160 q 611 1135 625 1149 q 581 1103 597 1121 q 554 1076 564 1086 l 547 1076 q 468 1157 472 1153 l 467 1163 l 550 1246 q 557 1246 554 1251 l 636 1165 l 638 1160 m 943 88 q 760 8 860 36 q 551 -21 661 -21 q 355 21 447 -21 q 194 134 263 63 q 85 302 125 206 q 44 507 44 399 q 85 695 44 607 q 194 849 125 783 q 355 954 263 915 q 551 993 447 993 q 751 967 656 993 q 926 893 846 940 l 926 726 q 765 819 861 783 q 556 854 668 854 q 411 826 479 854 q 292 751 343 799 q 213 641 242 704 q 183 507 183 578 q 213 356 183 426 q 294 232 243 285 q 413 149 344 179 q 558 118 481 118 q 804 169 693 118 l 804 407 l 632 407 l 632 546 l 943 546 l 943 88 z "},"ġ":{"ha":667,"x_min":14,"x_max":664,"o":"m 421 875 q 394 850 408 864 q 364 819 381 836 q 338 792 347 801 l 331 792 q 251 872 256 868 l 250 878 l 333 961 q 340 961 338 967 l 419 881 l 421 875 m 518 -112 q 460 -41 518 -71 q 311 -3 403 -11 q 201 -49 240 -22 q 161 -110 161 -76 q 212 -172 161 -146 q 339 -197 263 -197 q 467 -172 415 -197 q 518 -112 518 -147 m 443 403 q 448 414 443 403 q 453 450 453 425 q 443 497 453 475 q 417 534 433 518 q 380 560 401 550 q 335 569 358 569 q 288 560 310 569 q 251 534 267 550 q 226 497 235 518 q 217 450 217 475 q 226 403 217 425 q 251 365 235 381 q 288 339 267 349 q 335 329 310 329 q 380 339 358 329 q 417 365 401 349 q 443 403 433 381 m 664 -112 q 639 -201 664 -160 q 570 -272 614 -242 q 467 -319 526 -301 q 340 -336 408 -336 q 212 -324 271 -336 q 108 -283 153 -311 q 39 -212 64 -256 q 14 -108 14 -169 q 63 -3 25 -47 q 154 61 100 40 q 116 116 132 85 q 100 183 100 147 q 110 238 100 211 q 140 283 121 264 q 78 449 78 350 q 98 549 78 501 q 153 631 118 596 q 235 688 188 667 q 335 708 282 708 q 413 696 375 708 q 483 660 451 683 q 642 660 483 660 l 642 528 l 585 528 q 595 490 592 508 q 599 451 599 471 q 582 360 599 403 q 538 283 565 317 q 472 229 510 250 q 392 203 435 208 q 378 201 385 201 l 365 201 q 278 211 315 201 q 262 201 268 206 q 256 190 256 197 q 261 169 256 178 q 279 156 267 161 q 313 144 292 150 l 363 129 q 475 101 421 118 q 571 57 529 85 q 638 -12 613 29 q 664 -112 664 -53 z "},"Ģ":{"ha":1000,"x_min":44,"x_max":943,"o":"m 660 -254 q 643 -328 660 -294 q 597 -387 626 -362 q 527 -427 567 -412 q 442 -442 488 -442 l 442 -426 q 472 -410 458 -421 q 497 -379 486 -399 q 515 -330 508 -360 q 521 -254 521 -300 l 521 -104 l 660 -104 l 660 -254 m 943 88 q 760 8 860 36 q 551 -21 661 -21 q 355 21 447 -21 q 194 134 263 63 q 85 302 125 206 q 44 507 44 399 q 85 695 44 607 q 194 849 125 783 q 355 954 263 915 q 551 993 447 993 q 751 967 656 993 q 926 893 846 940 l 926 726 q 765 819 861 783 q 556 854 668 854 q 411 826 479 854 q 292 751 343 799 q 213 641 242 704 q 183 507 183 578 q 213 356 183 426 q 294 232 243 285 q 413 149 344 179 q 558 118 481 118 q 804 169 693 118 l 804 407 l 632 407 l 632 546 l 943 546 l 943 88 z "},"Ĥ":{"ha":914,"x_min":69,"x_max":843,"o":"m 457 1322 l 683 1078 l 543 1076 l 457 1171 l 369 1076 l 231 1076 l 457 1322 m 843 0 l 704 0 l 704 432 l 208 432 l 208 0 l 69 0 l 69 972 l 208 972 l 208 571 l 704 571 l 704 972 l 843 972 l 843 0 z "},"ĥ":{"ha":726,"x_min":71,"x_max":671,"o":"m 371 1301 l 597 1057 l 457 1056 l 371 1150 l 283 1056 l 144 1056 l 371 1301 m 671 0 l 532 0 l 532 396 q 520 447 532 422 q 488 489 508 471 q 439 517 467 507 q 379 528 411 528 q 282 502 326 528 q 210 436 238 476 l 210 0 l 71 0 l 71 972 l 210 972 l 210 619 q 290 654 247 642 q 381 667 333 667 q 491 645 439 667 q 583 586 543 624 q 647 499 624 549 q 671 396 671 450 l 671 0 z "},"Ĩ":{"ha":278,"x_min":-112,"x_max":390,"o":"m 390 1217 q 311 1110 363 1150 q 132 1090 243 1056 q 106 1101 131 1090 q 75 1114 81 1111 q -23 1133 18 1133 q -101 1101 -64 1133 q -111 1100 -107 1094 q -33 1207 -87 1164 q 135 1229 31 1257 q 158 1221 144 1226 q 187 1210 172 1215 q 204 1203 201 1204 q 379 1217 317 1163 q 386 1220 385 1221 q 389 1218 388 1219 l 390 1217 m 208 0 l 69 0 l 69 972 l 208 972 l 208 0 z "},"ĩ":{"ha":278,"x_min":-111,"x_max":390,"o":"m 390 890 q 311 783 363 824 q 132 764 243 729 q 106 774 131 764 q 75 788 81 785 q -23 807 18 807 q -101 775 -64 807 q -111 774 -107 768 q -33 881 -87 838 q 135 903 31 931 q 158 894 144 900 q 187 883 172 889 q 204 876 201 878 q 379 890 317 836 q 386 894 385 894 q 389 892 388 893 l 390 890 m 208 0 l 71 0 l 71 658 l 208 658 l 208 0 z "},"Ī":{"ha":278,"x_min":-75,"x_max":353,"o":"m 351 1081 l 349 1076 l -68 1076 q -75 1086 -75 1076 l -75 1203 l -71 1207 l 346 1207 l 351 1204 l 351 1081 m 208 0 l 69 0 l 69 972 l 208 972 l 208 0 z "},"ī":{"ha":278,"x_min":-74,"x_max":353,"o":"m 353 754 l 350 750 l -67 750 q -74 760 -74 750 l -74 876 l -69 881 l 347 881 l 353 878 l 353 754 m 208 0 l 71 0 l 71 658 l 208 658 l 208 0 z "},"Ĭ":{"ha":278,"x_min":-72,"x_max":350,"o":"m 288 1138 q 257 1107 288 1138 q 139 1076 226 1076 q -10 1138 51 1076 q -72 1288 -72 1200 l 47 1288 q 74 1223 47 1250 q 139 1196 100 1196 q 203 1223 176 1196 q 231 1288 231 1250 l 350 1288 q 288 1138 350 1200 m 208 0 l 69 0 l 69 972 l 208 972 l 208 0 z "},"ĭ":{"ha":278,"x_min":-72,"x_max":351,"o":"m 288 812 q 257 781 288 812 q 139 750 226 750 q -10 812 51 750 q -72 961 -72 874 l 47 961 q 74 897 47 924 q 139 869 100 869 q 203 897 176 869 q 231 961 231 924 l 350 961 q 288 812 350 874 m 208 0 l 71 0 l 71 658 l 208 658 l 208 0 z "},"Į":{"ha":278,"x_min":69,"x_max":338,"o":"m 74 -82 q 74 6 74 -82 l 204 8 l 204 -24 q 216 -92 204 -56 q 250 -135 228 -128 q 279 -136 267 -137 q 311 -131 292 -135 q 338 -126 331 -126 l 338 -242 q 329 -247 338 -246 q 200 -237 260 -261 q 108 -176 143 -217 q 74 -82 74 -136 m 208 0 l 69 0 l 69 972 l 208 972 l 208 0 z "},"į":{"ha":278,"x_min":43,"x_max":339,"o":"m 75 -82 q 75 6 75 -82 l 206 8 l 206 -24 q 217 -92 206 -56 q 251 -135 229 -128 q 281 -136 268 -137 q 313 -131 293 -135 q 339 -126 332 -126 l 339 -242 q 331 -247 339 -246 q 201 -237 261 -261 q 110 -176 144 -217 q 75 -82 75 -136 m 208 0 l 71 0 l 71 658 l 208 658 l 208 0 m 238 831 l 140 733 l 43 831 l 140 929 l 238 831 z "},"İ":{"ha":278,"x_min":53,"x_max":225,"o":"m 224 1160 q 197 1135 211 1149 q 167 1103 183 1121 q 140 1076 150 1086 l 133 1076 q 54 1157 58 1153 l 53 1163 l 136 1246 q 143 1246 140 1251 l 222 1165 l 224 1160 m 208 0 l 69 0 l 69 972 l 208 972 l 208 0 z "},"ı":{"ha":278,"x_min":71,"x_max":208,"o":"m 208 0 l 71 0 l 71 658 l 208 658 l 208 0 z "},"Ĳ":{"ha":872,"x_min":69,"x_max":815,"o":"m 815 267 q 795 156 815 208 q 740 64 775 103 q 658 2 704 25 q 557 -21 611 -21 q 468 -7 510 -21 q 392 31 426 7 q 334 89 358 56 q 297 163 310 122 l 436 231 q 469 151 436 185 q 550 118 503 118 q 598 130 575 118 q 638 162 621 142 q 664 208 654 182 q 674 264 674 235 l 674 972 l 815 972 l 815 267 m 208 0 l 69 0 l 69 972 l 208 972 l 208 0 z "},"ĳ":{"ha":556,"x_min":43,"x_max":515,"o":"m 486 0 q 474 -151 486 -87 q 431 -257 463 -215 q 342 -318 399 -299 q 199 -337 286 -337 l 199 -199 q 278 -186 249 -199 q 324 -149 308 -174 q 344 -87 339 -124 q 349 0 349 -50 l 349 658 l 486 658 l 486 0 m 515 831 l 418 733 l 321 831 l 418 929 l 515 831 m 208 0 l 71 0 l 71 658 l 208 658 l 208 0 m 238 831 l 140 733 l 43 831 l 140 929 l 238 831 z "},"Ĵ":{"ha":594,"x_min":19,"x_max":693,"o":"m 467 1322 l 693 1078 l 553 1076 l 467 1171 l 379 1076 l 240 1076 l 467 1322 m 538 267 q 517 156 538 208 q 462 64 497 103 q 380 2 426 25 q 279 -21 333 -21 q 190 -7 232 -21 q 115 31 149 7 q 56 89 81 56 q 19 163 32 122 l 158 231 q 192 151 158 185 q 272 118 225 118 q 320 130 297 118 q 360 162 343 142 q 386 208 376 182 q 396 264 396 235 l 396 972 l 538 972 l 538 267 z "},"ĵ":{"ha":278,"x_min":-87,"x_max":365,"o":"m 139 996 l 365 751 l 225 750 l 139 844 l 51 750 l -87 750 l 139 996 m 208 0 q 197 -151 208 -87 q 153 -257 185 -215 q 65 -318 121 -299 q -79 -337 8 -337 l -79 -199 q 1 -186 -29 -199 q 46 -149 31 -174 q 66 -87 61 -124 q 71 0 71 -50 l 71 658 l 208 658 l 208 0 z "},"Ķ":{"ha":847,"x_min":71,"x_max":832,"o":"m 560 -233 q 543 -308 560 -274 q 497 -367 526 -342 q 427 -406 467 -392 q 342 -421 388 -421 l 342 -406 q 372 -389 358 -400 q 397 -358 386 -378 q 415 -309 408 -339 q 421 -233 421 -279 l 421 -83 l 560 -83 l 560 -233 m 832 0 l 646 0 l 207 467 l 207 0 l 71 0 l 71 972 l 210 972 l 210 593 l 613 947 l 799 947 l 332 536 l 832 0 z "},"ķ":{"ha":715,"x_min":71,"x_max":715,"o":"m 715 -235 q 699 -309 715 -275 q 652 -368 682 -343 q 583 -408 622 -393 q 497 -422 543 -422 l 497 -407 q 528 -390 514 -401 q 553 -360 542 -379 q 570 -310 564 -340 q 576 -235 576 -281 l 576 -85 l 715 -85 l 715 -235 m 703 -1 l 508 -1 l 210 314 l 210 0 l 71 0 l 71 972 l 210 972 l 210 444 l 435 638 l 646 638 l 344 374 l 703 -1 z "},"Ĺ":{"ha":667,"x_min":71,"x_max":651,"o":"m 618 1325 l 618 1210 l 361 1076 l 361 1189 l 618 1325 m 651 1 l 71 1 l 71 974 l 210 974 l 210 140 l 651 140 l 651 1 z "},"ĺ":{"ha":451,"x_min":64,"x_max":451,"o":"m 390 1301 l 390 1186 l 133 1053 l 133 1165 l 390 1301 m 451 33 q 378 -2 419 11 q 300 -15 336 -15 q 207 1 250 -15 q 132 48 164 18 q 82 118 100 78 q 64 206 64 158 l 64 969 l 203 969 l 203 247 q 231 158 203 193 q 300 124 258 124 q 378 137 336 124 q 451 174 419 150 l 451 33 z "},"Ļ":{"ha":667,"x_min":71,"x_max":651,"o":"m 471 -232 q 454 -306 471 -272 q 408 -365 438 -340 q 338 -405 378 -390 q 253 -419 299 -419 l 253 -404 q 283 -387 269 -399 q 308 -357 297 -376 q 326 -308 319 -337 q 332 -232 332 -278 l 332 -82 l 471 -82 l 471 -232 m 651 1 l 71 1 l 71 974 l 210 974 l 210 140 l 651 140 l 651 1 z "},"ļ":{"ha":451,"x_min":64,"x_max":451,"o":"m 410 -249 q 393 -323 410 -289 q 347 -382 376 -357 q 277 -422 317 -407 q 192 -436 238 -436 l 192 -421 q 222 -404 208 -415 q 247 -374 236 -393 q 265 -324 258 -354 q 271 -249 271 -294 l 271 -99 l 410 -99 l 410 -249 m 451 33 q 378 -2 419 11 q 300 -15 336 -15 q 207 1 250 -15 q 132 48 164 18 q 82 118 100 78 q 64 206 64 158 l 64 969 l 203 969 l 203 247 q 231 158 203 193 q 300 124 258 124 q 378 137 336 124 q 451 174 419 150 l 451 33 z "},"Ľ":{"ha":667,"x_min":71,"x_max":994,"o":"m 994 843 q 978 769 994 803 q 931 710 961 735 q 862 670 901 685 q 776 656 822 656 l 776 671 q 807 688 793 676 q 832 718 821 699 q 849 767 843 738 q 856 843 856 797 l 856 993 l 994 993 l 994 843 m 651 1 l 71 1 l 71 974 l 210 974 l 210 140 l 651 140 l 651 1 z "},"ľ":{"ha":451,"x_min":64,"x_max":546,"o":"m 546 819 q 529 745 546 779 q 483 686 513 711 q 413 647 453 661 q 328 632 374 632 l 328 647 q 358 664 344 653 q 383 694 372 675 q 401 744 394 714 q 407 819 407 774 l 407 969 l 546 969 l 546 819 m 451 33 q 378 -2 419 11 q 300 -15 336 -15 q 207 1 250 -15 q 132 48 164 18 q 82 118 100 78 q 64 206 64 158 l 64 969 l 203 969 l 203 247 q 231 158 203 193 q 300 124 258 124 q 378 137 336 124 q 451 174 419 150 l 451 33 z "},"Ŀ":{"ha":667,"x_min":71,"x_max":651,"o":"m 431 429 l 292 429 l 292 564 l 431 564 l 431 429 m 651 1 l 71 1 l 71 974 l 210 974 l 210 140 l 651 140 l 651 1 z "},"ŀ":{"ha":674,"x_min":64,"x_max":632,"o":"m 632 224 l 493 224 l 493 358 l 632 358 l 632 224 m 451 33 q 378 -2 419 11 q 300 -15 336 -15 q 207 1 250 -15 q 132 48 164 18 q 82 118 100 78 q 64 206 64 158 l 64 969 l 203 969 l 203 247 q 231 158 203 193 q 300 124 258 124 q 378 137 336 124 q 451 174 419 150 l 451 33 z "},"Ł":{"ha":667,"x_min":71,"x_max":651,"o":"m 651 1 l 71 1 l 71 974 l 210 974 l 210 140 l 651 140 l 651 1 z "},"ł":{"ha":451,"x_min":64,"x_max":451,"o":"m 451 33 q 378 -2 419 11 q 300 -15 336 -15 q 207 1 250 -15 q 132 48 164 18 q 82 118 100 78 q 64 206 64 158 l 64 969 l 203 969 l 203 247 q 231 158 203 193 q 300 124 258 124 q 378 137 336 124 q 451 174 419 150 l 451 33 z "},"Ń":{"ha":1032,"x_min":71,"x_max":949,"o":"m 767 1325 l 767 1210 l 510 1076 l 510 1189 l 767 1325 m 949 0 l 810 0 l 206 754 l 206 0 l 71 0 l 71 972 l 210 972 l 813 221 l 813 972 l 949 972 l 949 0 z "},"ń":{"ha":726,"x_min":71,"x_max":671,"o":"m 628 999 l 628 883 l 371 750 l 371 863 l 628 999 m 671 0 l 532 0 l 532 396 q 520 447 532 422 q 488 489 508 471 q 439 517 467 507 q 379 528 411 528 q 282 511 326 528 q 210 467 238 494 l 210 0 l 71 0 l 71 660 l 210 660 l 210 619 q 290 654 247 642 q 381 667 333 667 q 491 645 439 667 q 583 586 543 624 q 647 499 624 549 q 671 396 671 450 l 671 0 z "},"Ņ":{"ha":1032,"x_min":71,"x_max":949,"o":"m 618 -233 q 601 -308 618 -274 q 555 -367 585 -342 q 485 -406 525 -392 q 400 -421 446 -421 l 400 -406 q 431 -389 417 -400 q 456 -358 444 -378 q 473 -309 467 -339 q 479 -233 479 -279 l 479 -83 l 618 -83 l 618 -233 m 949 0 l 810 0 l 206 754 l 206 0 l 71 0 l 71 972 l 210 972 l 813 221 l 813 972 l 949 972 l 949 0 z "},"ņ":{"ha":726,"x_min":71,"x_max":671,"o":"m 479 -233 q 463 -308 479 -274 q 416 -367 446 -342 q 347 -406 386 -392 q 261 -421 307 -421 l 261 -406 q 292 -389 278 -400 q 317 -358 306 -378 q 334 -309 328 -339 q 340 -233 340 -279 l 340 -83 l 479 -83 l 479 -233 m 671 0 l 532 0 l 532 396 q 520 447 532 422 q 488 489 508 471 q 439 517 467 507 q 379 528 411 528 q 282 511 326 528 q 210 467 238 494 l 210 0 l 71 0 l 71 660 l 210 660 l 210 619 q 290 654 247 642 q 381 667 333 667 q 491 645 439 667 q 583 586 543 624 q 647 499 624 549 q 671 396 671 450 l 671 0 z "},"Ň":{"ha":1032,"x_min":71,"x_max":949,"o":"m 519 1082 q 507 1076 517 1076 l 503 1082 l 283 1318 l 424 1318 l 510 1225 l 597 1318 l 738 1318 l 519 1082 m 949 0 l 810 0 l 206 754 l 206 0 l 71 0 l 71 972 l 210 972 l 813 221 l 813 972 l 949 972 l 949 0 z "},"ň":{"ha":726,"x_min":71,"x_max":671,"o":"m 381 756 q 368 750 378 750 l 364 756 l 144 992 l 285 992 l 371 899 l 458 992 l 599 992 l 381 756 m 671 0 l 532 0 l 532 396 q 520 447 532 422 q 488 489 508 471 q 439 517 467 507 q 379 528 411 528 q 282 511 326 528 q 210 467 238 494 l 210 0 l 71 0 l 71 660 l 210 660 l 210 619 q 290 654 247 642 q 381 667 333 667 q 491 645 439 667 q 583 586 543 624 q 647 499 624 549 q 671 396 671 450 l 671 0 z "},"Ō":{"ha":1097,"x_min":43,"x_max":1057,"o":"m 763 1081 l 760 1076 l 343 1076 q 336 1086 336 1076 l 336 1203 l 340 1207 l 757 1207 l 763 1204 l 763 1081 m 918 503 q 889 639 918 575 q 810 751 860 703 q 694 826 760 799 q 554 854 628 854 q 410 826 478 854 q 291 751 342 799 q 211 641 240 704 q 182 507 182 578 q 212 356 182 426 q 292 232 242 285 q 411 149 343 179 q 557 118 479 118 q 696 149 631 118 q 810 232 761 179 q 889 354 860 285 q 918 503 918 424 m 1057 507 q 1017 302 1057 399 q 908 134 976 206 q 747 21 839 63 q 550 -21 654 -21 q 353 21 446 -21 q 192 134 261 63 q 83 302 124 206 q 43 507 43 399 q 83 695 43 607 q 192 849 124 783 q 353 954 261 915 q 550 993 446 993 q 747 954 654 993 q 908 849 839 915 q 1017 695 976 783 q 1057 507 1057 607 z "},"ō":{"ha":764,"x_min":43,"x_max":724,"o":"m 599 754 l 596 750 l 179 750 q 172 760 172 750 l 172 876 l 176 881 l 593 881 l 599 878 l 599 754 m 585 329 q 569 406 585 369 q 525 469 553 442 q 461 512 497 496 q 383 528 425 528 q 305 512 342 528 q 241 469 268 496 q 198 405 214 442 q 182 328 182 368 q 198 249 182 286 q 241 184 214 211 q 305 141 268 157 q 383 125 342 125 q 461 141 425 125 q 525 185 497 157 q 569 250 553 213 q 585 329 585 288 m 724 329 q 697 196 724 258 q 623 87 669 133 q 515 13 576 40 q 383 -14 453 -14 q 251 13 313 -14 q 143 87 189 40 q 70 196 97 133 q 43 329 43 258 q 70 460 43 399 q 144 567 97 521 q 252 640 190 613 q 385 667 314 667 q 516 640 454 667 q 624 567 578 613 q 697 460 669 521 q 724 329 724 399 z "},"Ŏ":{"ha":1097,"x_min":43,"x_max":1057,"o":"m 699 1138 q 668 1107 699 1138 q 550 1076 638 1076 q 401 1138 463 1076 q 339 1288 339 1200 l 458 1288 q 485 1223 458 1250 q 550 1196 511 1196 q 615 1223 588 1196 q 642 1288 642 1250 l 761 1288 q 699 1138 761 1200 m 918 503 q 889 639 918 575 q 810 751 860 703 q 694 826 760 799 q 554 854 628 854 q 410 826 478 854 q 291 751 342 799 q 211 641 240 704 q 182 507 182 578 q 212 356 182 426 q 292 232 242 285 q 411 149 343 179 q 557 118 479 118 q 696 149 631 118 q 810 232 761 179 q 889 354 860 285 q 918 503 918 424 m 1057 507 q 1017 302 1057 399 q 908 134 976 206 q 747 21 839 63 q 550 -21 654 -21 q 353 21 446 -21 q 192 134 261 63 q 83 302 124 206 q 43 507 43 399 q 83 695 43 607 q 192 849 124 783 q 353 954 261 915 q 550 993 446 993 q 747 954 654 993 q 908 849 839 915 q 1017 695 976 783 q 1057 507 1057 607 z "},"ŏ":{"ha":764,"x_min":43,"x_max":724,"o":"m 534 812 q 503 781 534 812 q 385 750 472 750 q 235 812 297 750 q 174 961 174 874 l 293 961 q 319 897 293 924 q 385 869 346 869 q 449 897 422 869 q 476 961 476 924 l 596 961 q 534 812 596 874 m 585 329 q 569 406 585 369 q 525 469 553 442 q 461 512 497 496 q 383 528 425 528 q 305 512 342 528 q 241 469 268 496 q 198 405 214 442 q 182 328 182 368 q 198 249 182 286 q 241 184 214 211 q 305 141 268 157 q 383 125 342 125 q 461 141 425 125 q 525 185 497 157 q 569 250 553 213 q 585 329 585 288 m 724 329 q 697 196 724 258 q 623 87 669 133 q 515 13 576 40 q 383 -14 453 -14 q 251 13 313 -14 q 143 87 189 40 q 70 196 97 133 q 43 329 43 258 q 70 460 43 399 q 144 567 97 521 q 252 640 190 613 q 385 667 314 667 q 516 640 454 667 q 624 567 578 613 q 697 460 669 521 q 724 329 724 399 z "},"Ő":{"ha":1097,"x_min":43,"x_max":1057,"o":"m 571 1247 l 497 1079 l 490 1076 l 400 1076 l 397 1088 l 475 1251 l 569 1251 l 571 1247 m 776 1247 l 701 1079 l 696 1076 l 604 1076 l 603 1088 l 679 1251 l 774 1251 l 776 1247 m 918 503 q 889 639 918 575 q 810 751 860 703 q 694 826 760 799 q 554 854 628 854 q 410 826 478 854 q 291 751 342 799 q 211 641 240 704 q 182 507 182 578 q 212 356 182 426 q 292 232 242 285 q 411 149 343 179 q 557 118 479 118 q 696 149 631 118 q 810 232 761 179 q 889 354 860 285 q 918 503 918 424 m 1057 507 q 1017 302 1057 399 q 908 134 976 206 q 747 21 839 63 q 550 -21 654 -21 q 353 21 446 -21 q 192 134 261 63 q 83 302 124 206 q 43 507 43 399 q 83 695 43 607 q 192 849 124 783 q 353 954 261 915 q 550 993 446 993 q 747 954 654 993 q 908 849 839 915 q 1017 695 976 783 q 1057 507 1057 607 z "},"ő":{"ha":764,"x_min":43,"x_max":724,"o":"m 404 921 l 331 753 l 324 750 l 233 750 l 231 761 l 308 925 l 403 925 l 404 921 m 610 921 l 535 753 l 529 750 l 438 750 l 436 761 l 513 925 l 607 925 l 610 921 m 585 329 q 569 406 585 369 q 525 469 553 442 q 461 512 497 496 q 383 528 425 528 q 305 512 342 528 q 241 469 268 496 q 198 405 214 442 q 182 328 182 368 q 198 249 182 286 q 241 184 214 211 q 305 141 268 157 q 383 125 342 125 q 461 141 425 125 q 525 185 497 157 q 569 250 553 213 q 585 329 585 288 m 724 329 q 697 196 724 258 q 623 87 669 133 q 515 13 576 40 q 383 -14 453 -14 q 251 13 313 -14 q 143 87 189 40 q 70 196 97 133 q 43 329 43 258 q 70 460 43 399 q 144 567 97 521 q 252 640 190 613 q 385 667 314 667 q 516 640 454 667 q 624 567 578 613 q 697 460 669 521 q 724 329 724 399 z "},"Œ":{"ha":1306,"x_min":43,"x_max":1272,"o":"m 1050 590 l 1138 590 l 1138 451 l 1054 451 q 1017 303 1046 374 q 915 142 979 211 l 1272 142 l 1272 0 l 692 0 q 550 -21 624 -21 q 353 21 446 -21 q 192 134 261 63 q 83 302 124 206 q 43 507 43 399 q 83 695 43 607 q 192 849 124 783 q 353 954 261 915 q 550 993 446 993 q 696 972 626 993 l 1244 972 l 1244 833 l 924 833 q 1017 694 981 772 q 1050 590 1040 644 m 915 451 l 800 451 l 800 221 q 811 232 806 226 q 889 354 860 285 q 915 451 908 400 m 661 135 l 661 839 q 554 854 610 854 q 410 826 478 854 q 291 751 342 799 q 211 641 240 704 q 182 507 182 578 q 212 356 182 426 q 292 232 242 285 q 411 149 343 179 q 557 118 479 118 q 661 135 611 118 m 800 760 l 800 590 l 907 590 q 889 639 900 615 q 810 750 860 703 q 800 760 806 756 z "},"œ":{"ha":1286,"x_min":43,"x_max":1250,"o":"m 1250 313 l 725 313 q 755 238 733 272 q 808 178 776 203 q 879 138 839 153 q 964 124 919 124 q 1099 147 1036 124 q 1207 208 1163 171 l 1207 64 q 1083 7 1150 28 q 943 -14 1015 -14 q 802 15 868 -14 q 688 94 736 44 q 658 128 672 111 q 622 86 642 106 q 515 13 576 40 q 383 -14 453 -14 q 251 13 313 -14 q 143 87 189 40 q 70 196 97 133 q 43 329 43 258 q 70 460 43 399 q 144 567 97 521 q 252 640 190 613 q 385 667 314 667 q 516 640 454 667 q 624 567 578 613 q 643 546 633 557 q 683 592 661 571 q 791 665 729 638 q 924 692 853 692 q 1054 671 990 692 q 1165 604 1118 650 q 1237 486 1213 558 q 1250 313 1261 414 m 1092 446 q 1078 489 1092 468 q 1041 525 1064 510 q 988 550 1018 540 q 922 560 957 560 q 810 527 860 560 q 736 446 760 494 l 1092 446 m 585 314 q 582 354 582 333 q 582 361 582 358 q 569 406 578 385 q 525 469 553 442 q 461 512 497 496 q 383 528 425 528 q 305 512 342 528 q 241 469 268 496 q 198 405 214 442 q 182 328 182 368 q 198 249 182 286 q 241 184 214 211 q 305 141 268 157 q 383 125 342 125 q 461 141 425 125 q 525 185 497 157 q 569 250 553 213 q 585 314 582 281 z "},"Ŕ":{"ha":806,"x_min":71,"x_max":789,"o":"m 458 1325 l 458 1210 l 201 1076 l 201 1189 l 458 1325 m 478 696 q 465 749 478 724 q 429 792 451 774 q 377 822 407 811 q 315 833 347 833 l 210 833 l 210 554 l 358 554 q 403 565 382 554 q 442 596 425 576 q 468 641 458 615 q 478 696 478 667 m 789 4 l 619 4 l 338 410 l 210 410 l 210 0 l 71 0 l 71 972 l 332 972 q 443 950 390 972 q 535 890 496 928 q 599 802 575 853 q 622 696 622 751 q 585 553 622 617 q 485 447 547 489 l 789 4 z "},"ŕ":{"ha":507,"x_min":69,"x_max":539,"o":"m 538 999 l 538 883 l 281 750 l 281 863 l 538 999 m 493 457 q 418 507 453 499 q 365 515 383 515 q 322 512 343 515 q 279 498 300 508 q 240 467 258 488 q 207 414 222 447 l 207 0 l 69 0 l 69 660 l 208 660 l 208 604 q 367 667 286 667 q 434 658 403 667 q 493 633 465 649 l 493 457 z "},"Ŗ":{"ha":806,"x_min":31,"x_max":789,"o":"m 249 -233 q 232 -308 249 -274 q 185 -367 215 -342 q 116 -406 156 -392 q 31 -421 76 -421 l 31 -406 q 61 -389 47 -400 q 86 -358 75 -378 q 103 -309 97 -339 q 110 -233 110 -279 l 110 -83 l 249 -83 l 249 -233 m 478 696 q 465 749 478 724 q 429 792 451 774 q 377 822 407 811 q 315 833 347 833 l 210 833 l 210 554 l 358 554 q 403 565 382 554 q 442 596 425 576 q 468 641 458 615 q 478 696 478 667 m 789 4 l 619 4 l 338 410 l 210 410 l 210 0 l 71 0 l 71 972 l 332 972 q 443 950 390 972 q 535 890 496 928 q 599 802 575 853 q 622 696 622 751 q 585 553 622 617 q 485 447 547 489 l 789 4 z "},"ŗ":{"ha":507,"x_min":29,"x_max":493,"o":"m 247 -233 q 231 -308 247 -274 q 184 -367 214 -342 q 115 -406 154 -392 q 29 -421 75 -421 l 29 -406 q 60 -389 46 -400 q 85 -358 74 -378 q 102 -309 96 -339 q 108 -233 108 -279 l 108 -83 l 247 -83 l 247 -233 m 493 457 q 418 507 453 499 q 365 515 383 515 q 322 512 343 515 q 279 498 300 508 q 240 467 258 488 q 207 414 222 447 l 207 0 l 69 0 l 69 660 l 208 660 l 208 604 q 367 667 286 667 q 434 658 403 667 q 493 633 465 649 l 493 457 z "},"Ř":{"ha":806,"x_min":-26,"x_max":789,"o":"m 211 1082 q 199 1076 208 1076 l 194 1082 l -25 1318 l 115 1318 l 201 1225 l 289 1318 l 429 1318 l 211 1082 m 478 696 q 465 749 478 724 q 429 792 451 774 q 377 822 407 811 q 315 833 347 833 l 210 833 l 210 554 l 358 554 q 403 565 382 554 q 442 596 425 576 q 468 641 458 615 q 478 696 478 667 m 789 4 l 619 4 l 338 410 l 210 410 l 210 0 l 71 0 l 71 972 l 332 972 q 443 950 390 972 q 535 890 496 928 q 599 802 575 853 q 622 696 622 751 q 585 553 622 617 q 485 447 547 489 l 789 4 z "},"ř":{"ha":507,"x_min":54,"x_max":508,"o":"m 290 756 q 278 750 288 750 l 274 756 l 54 992 l 194 992 l 281 899 l 368 992 l 508 992 l 290 756 m 493 457 q 418 507 453 499 q 365 515 383 515 q 322 512 343 515 q 279 498 300 508 q 240 467 258 488 q 207 414 222 447 l 207 0 l 69 0 l 69 660 l 208 660 l 208 604 q 367 667 286 667 q 434 658 403 667 q 493 633 465 649 l 493 457 z "},"Ś":{"ha":601,"x_min":4,"x_max":599,"o":"m 540 1325 l 540 1210 l 283 1076 l 283 1189 l 540 1325 m 599 293 q 575 179 599 232 q 511 86 551 126 q 417 23 471 46 q 301 0 363 0 q 117 54 197 0 q 4 196 38 108 l 126 271 q 186 176 138 214 q 301 139 235 139 q 363 151 333 139 q 413 185 392 164 q 447 233 435 206 q 460 293 460 261 q 428 378 460 347 q 349 433 396 410 q 246 475 301 456 q 144 525 190 494 q 67 603 97 556 q 38 728 36 650 q 55 822 38 778 q 105 900 72 867 q 183 953 138 933 q 283 972 228 972 q 430 931 365 972 q 526 826 494 890 l 401 738 q 389 774 399 757 q 363 805 379 792 q 326 826 347 818 q 283 833 306 833 q 208 802 240 833 q 176 728 176 771 q 208 658 176 683 q 286 614 239 633 q 388 574 333 594 q 489 520 442 554 q 567 433 536 486 q 599 293 599 379 z "},"ś":{"ha":611,"x_min":50,"x_max":578,"o":"m 547 1022 l 547 907 l 290 774 l 290 886 l 547 1022 m 578 203 q 555 96 578 139 q 494 26 532 53 q 403 -11 456 0 q 293 -22 351 -22 q 160 2 222 -22 q 50 71 99 26 l 50 258 q 147 154 83 192 q 290 117 211 117 q 326 117 301 117 q 376 126 351 118 q 421 149 401 133 q 440 197 440 165 q 412 241 440 226 q 340 265 383 256 l 247 286 q 154 319 197 297 q 83 381 111 342 q 54 488 54 419 q 73 566 54 529 q 124 631 92 603 q 199 674 156 658 q 290 690 242 690 q 410 673 353 690 q 517 625 468 656 l 517 465 q 418 528 476 504 q 290 551 360 551 q 222 539 250 551 q 193 488 193 526 q 222 438 193 454 q 293 410 250 421 q 385 390 336 400 q 478 358 435 379 q 549 301 521 338 q 578 203 578 265 z "},"Ŝ":{"ha":601,"x_min":4,"x_max":599,"o":"m 283 1322 l 510 1078 l 369 1076 l 283 1171 l 196 1076 l 57 1076 l 283 1322 m 599 293 q 575 179 599 232 q 511 86 551 126 q 417 23 471 46 q 301 0 363 0 q 117 54 197 0 q 4 196 38 108 l 126 271 q 186 176 138 214 q 301 139 235 139 q 363 151 333 139 q 413 185 392 164 q 447 233 435 206 q 460 293 460 261 q 428 378 460 347 q 349 433 396 410 q 246 475 301 456 q 144 525 190 494 q 67 603 97 556 q 38 728 36 650 q 55 822 38 778 q 105 900 72 867 q 183 953 138 933 q 283 972 228 972 q 430 931 365 972 q 526 826 494 890 l 401 738 q 389 774 399 757 q 363 805 379 792 q 326 826 347 818 q 283 833 306 833 q 208 802 240 833 q 176 728 176 771 q 208 658 176 683 q 286 614 239 633 q 388 574 333 594 q 489 520 442 554 q 567 433 536 486 q 599 293 599 379 z "},"ŝ":{"ha":611,"x_min":50,"x_max":578,"o":"m 290 1019 l 517 775 l 376 774 l 290 868 l 203 774 l 64 774 l 290 1019 m 578 203 q 555 96 578 139 q 494 26 532 53 q 403 -11 456 0 q 293 -22 351 -22 q 160 2 222 -22 q 50 71 99 26 l 50 258 q 147 154 83 192 q 290 117 211 117 q 326 117 301 117 q 376 126 351 118 q 421 149 401 133 q 440 197 440 165 q 412 241 440 226 q 340 265 383 256 l 247 286 q 154 319 197 297 q 83 381 111 342 q 54 488 54 419 q 73 566 54 529 q 124 631 92 603 q 199 674 156 658 q 290 690 242 690 q 410 673 353 690 q 517 625 468 656 l 517 465 q 418 528 476 504 q 290 551 360 551 q 222 539 250 551 q 193 488 193 526 q 222 438 193 454 q 293 410 250 421 q 385 390 336 400 q 478 358 435 379 q 549 301 521 338 q 578 203 578 265 z "},"Ş":{"ha":601,"x_min":4,"x_max":599,"o":"m 332 -176 q 103 -242 268 -242 l 103 -126 q 217 -100 153 -137 q 236 -24 236 -87 l 236 8 l 368 8 l 367 -82 q 332 -176 367 -142 m 599 293 q 575 179 599 232 q 511 86 551 126 q 417 23 471 46 q 301 0 363 0 q 117 54 197 0 q 4 196 38 108 l 126 271 q 186 176 138 214 q 301 139 235 139 q 363 151 333 139 q 413 185 392 164 q 447 233 435 206 q 460 293 460 261 q 428 378 460 347 q 349 433 396 410 q 246 475 301 456 q 144 525 190 494 q 67 603 97 556 q 38 728 36 650 q 55 822 38 778 q 105 900 72 867 q 183 953 138 933 q 283 972 228 972 q 430 931 365 972 q 526 826 494 890 l 401 738 q 389 774 399 757 q 363 805 379 792 q 326 826 347 818 q 283 833 306 833 q 208 802 240 833 q 176 728 176 771 q 208 658 176 683 q 286 614 239 633 q 388 574 333 594 q 489 520 442 554 q 567 433 536 486 q 599 293 599 379 z "},"ş":{"ha":611,"x_min":50,"x_max":578,"o":"m 324 -199 q 94 -264 260 -264 l 94 -149 q 208 -122 144 -160 q 228 -46 228 -110 l 228 -14 l 360 -14 l 358 -104 q 324 -199 358 -164 m 578 203 q 555 96 578 139 q 494 26 532 53 q 403 -11 456 0 q 293 -22 351 -22 q 160 2 222 -22 q 50 71 99 26 l 50 258 q 147 154 83 192 q 290 117 211 117 q 326 117 301 117 q 376 126 351 118 q 421 149 401 133 q 440 197 440 165 q 412 241 440 226 q 340 265 383 256 l 247 286 q 154 319 197 297 q 83 381 111 342 q 54 488 54 419 q 73 566 54 529 q 124 631 92 603 q 199 674 156 658 q 290 690 242 690 q 410 673 353 690 q 517 625 468 656 l 517 465 q 418 528 476 504 q 290 551 360 551 q 222 539 250 551 q 193 488 193 526 q 222 438 193 454 q 293 410 250 421 q 385 390 336 400 q 478 358 435 379 q 549 301 521 338 q 578 203 578 265 z "},"Š":{"ha":601,"x_min":4,"x_max":599,"o":"m 292 1082 q 279 1076 289 1076 l 275 1082 l 56 1318 l 196 1318 l 282 1225 l 369 1318 l 510 1318 l 292 1082 m 599 293 q 575 179 599 232 q 511 86 551 126 q 417 23 471 46 q 301 0 363 0 q 117 54 197 0 q 4 196 38 108 l 126 271 q 186 176 138 214 q 301 139 235 139 q 363 151 333 139 q 413 185 392 164 q 447 233 435 206 q 460 293 460 261 q 428 378 460 347 q 349 433 396 410 q 246 475 301 456 q 144 525 190 494 q 67 603 97 556 q 38 728 36 650 q 55 822 38 778 q 105 900 72 867 q 183 953 138 933 q 283 972 228 972 q 430 931 365 972 q 526 826 494 890 l 401 738 q 389 774 399 757 q 363 805 379 792 q 326 826 347 818 q 283 833 306 833 q 208 802 240 833 q 176 728 176 771 q 208 658 176 683 q 286 614 239 633 q 388 574 333 594 q 489 520 442 554 q 567 433 536 486 q 599 293 599 379 z "},"š":{"ha":611,"x_min":50,"x_max":578,"o":"m 300 779 q 288 774 297 774 l 283 779 l 64 1015 l 204 1015 l 290 922 l 378 1015 l 518 1015 l 300 779 m 578 203 q 555 96 578 139 q 494 26 532 53 q 403 -11 456 0 q 293 -22 351 -22 q 160 2 222 -22 q 50 71 99 26 l 50 258 q 147 154 83 192 q 290 117 211 117 q 326 117 301 117 q 376 126 351 118 q 421 149 401 133 q 440 197 440 165 q 412 241 440 226 q 340 265 383 256 l 247 286 q 154 319 197 297 q 83 381 111 342 q 54 488 54 419 q 73 566 54 529 q 124 631 92 603 q 199 674 156 658 q 290 690 242 690 q 410 673 353 690 q 517 625 468 656 l 517 465 q 418 528 476 504 q 290 551 360 551 q 222 539 250 551 q 193 488 193 526 q 222 438 193 454 q 293 410 250 421 q 385 390 336 400 q 478 358 435 379 q 549 301 521 338 q 578 203 578 265 z "},"Ţ":{"ha":775,"x_min":15,"x_max":760,"o":"m 418 -176 q 189 -242 354 -242 l 189 -126 q 303 -100 239 -137 q 322 -24 322 -87 l 322 8 l 454 8 l 453 -82 q 418 -176 453 -142 m 760 833 l 457 833 l 457 0 l 318 0 l 318 833 l 15 833 l 15 972 l 760 972 l 760 833 z "},"ţ":{"ha":597,"x_min":29,"x_max":585,"o":"m 433 -192 q 204 -257 369 -257 l 204 -142 q 318 -115 254 -153 q 338 -39 338 -103 l 338 -7 l 469 -7 l 468 -97 q 433 -192 468 -157 m 585 521 l 306 521 l 306 247 q 333 158 306 193 q 403 124 361 124 q 481 137 439 124 q 554 174 522 150 l 554 33 q 481 -2 522 11 q 403 -15 439 -15 q 310 1 353 -15 q 235 48 267 18 q 185 118 203 78 q 167 206 167 158 l 167 521 l 29 521 l 29 660 l 167 660 l 167 792 l 306 792 l 306 660 l 585 660 l 585 521 z "},"ť":{"ha":597,"x_min":29,"x_max":649,"o":"m 649 642 q 632 567 649 601 q 585 508 615 533 q 516 469 556 483 q 431 454 476 454 l 431 469 q 461 486 447 475 q 486 517 475 497 q 503 566 497 536 q 510 642 510 596 l 510 792 l 649 792 l 649 642 m 585 521 l 306 521 l 306 247 q 333 158 306 193 q 403 124 361 124 q 481 137 439 124 q 554 174 522 150 l 554 33 q 481 -2 522 11 q 403 -15 439 -15 q 310 1 353 -15 q 235 48 267 18 q 185 118 203 78 q 167 206 167 158 l 167 521 l 29 521 l 29 660 l 167 660 l 167 792 l 306 792 l 306 660 l 585 660 l 585 521 z "},"Ũ":{"ha":1010,"x_min":57,"x_max":899,"o":"m 694 1108 l 597 1011 l 500 1108 l 597 1207 l 694 1108 m 454 1108 l 357 1011 l 260 1108 l 357 1207 l 454 1108 m 899 392 q 866 232 899 307 q 776 101 833 157 q 642 12 718 44 q 478 -21 565 -21 q 314 12 390 -21 q 180 101 238 44 q 90 232 122 157 q 57 392 57 307 l 57 972 l 196 972 l 196 393 q 218 286 196 336 q 278 199 240 236 q 368 140 317 161 q 478 118 419 118 q 588 140 536 118 q 677 199 639 161 q 738 286 715 236 q 760 393 760 336 l 760 972 l 899 972 l 899 392 z "},"ũ":{"ha":729,"x_min":57,"x_max":661,"o":"m 610 890 q 531 783 582 824 q 351 764 463 729 q 325 774 350 764 q 294 788 300 785 q 197 807 238 807 q 118 775 156 807 q 108 774 113 768 q 186 881 132 838 q 354 903 250 931 q 378 894 364 900 q 406 883 392 889 q 424 876 421 878 q 599 890 536 836 q 606 894 604 894 q 608 892 607 893 l 610 890 m 661 0 l 522 0 l 522 42 q 346 -14 442 -14 q 253 0 303 -14 q 159 47 203 14 q 86 135 115 81 q 57 271 57 190 l 57 660 l 196 660 l 196 296 q 208 231 196 261 q 240 179 219 201 q 288 144 261 157 q 346 132 315 132 q 441 144 396 132 q 522 181 486 156 l 522 660 l 661 660 l 661 0 z "},"Ū":{"ha":956,"x_min":57,"x_max":899,"o":"m 690 1081 l 688 1076 l 271 1076 q 264 1086 264 1076 l 264 1203 l 268 1207 l 685 1207 l 690 1204 l 690 1081 m 899 392 q 866 232 899 307 q 776 101 833 157 q 642 12 718 44 q 478 -21 565 -21 q 314 12 390 -21 q 180 101 238 44 q 90 232 122 157 q 57 392 57 307 l 57 972 l 196 972 l 196 393 q 218 286 196 336 q 278 199 240 236 q 368 140 317 161 q 478 118 419 118 q 588 140 536 118 q 677 199 639 161 q 738 286 715 236 q 760 393 760 336 l 760 972 l 899 972 l 899 392 z "},"ū":{"ha":729,"x_min":57,"x_max":661,"o":"m 572 754 l 569 750 l 153 750 q 146 760 146 750 l 146 876 l 150 881 l 567 881 l 572 878 l 572 754 m 661 0 l 522 0 l 522 42 q 346 -14 442 -14 q 253 0 303 -14 q 159 47 203 14 q 86 135 115 81 q 57 271 57 190 l 57 660 l 196 660 l 196 296 q 208 231 196 261 q 240 179 219 201 q 288 144 261 157 q 346 132 315 132 q 441 144 396 132 q 522 181 486 156 l 522 660 l 661 660 l 661 0 z "},"Ŭ":{"ha":956,"x_min":57,"x_max":899,"o":"m 627 1138 q 596 1107 627 1138 q 478 1076 565 1076 q 328 1138 390 1076 q 267 1288 267 1200 l 386 1288 q 413 1223 386 1250 q 478 1196 439 1196 q 542 1223 515 1196 q 569 1288 569 1250 l 689 1288 q 627 1138 689 1200 m 899 392 q 866 232 899 307 q 776 101 833 157 q 642 12 718 44 q 478 -21 565 -21 q 314 12 390 -21 q 180 101 238 44 q 90 232 122 157 q 57 392 57 307 l 57 972 l 196 972 l 196 393 q 218 286 196 336 q 278 199 240 236 q 368 140 317 161 q 478 118 419 118 q 588 140 536 118 q 677 199 639 161 q 738 286 715 236 q 760 393 760 336 l 760 972 l 899 972 l 899 392 z "},"ŭ":{"ha":729,"x_min":57,"x_max":661,"o":"m 508 812 q 477 781 508 812 q 358 750 446 750 q 209 812 271 750 q 147 961 147 874 l 267 961 q 293 897 267 924 q 358 869 319 869 q 423 897 396 869 q 450 961 450 924 l 569 961 q 508 812 569 874 m 661 0 l 522 0 l 522 42 q 346 -14 442 -14 q 253 0 303 -14 q 159 47 203 14 q 86 135 115 81 q 57 271 57 190 l 57 660 l 196 660 l 196 296 q 208 231 196 261 q 240 179 219 201 q 288 144 261 157 q 346 132 315 132 q 441 144 396 132 q 522 181 486 156 l 522 660 l 661 660 l 661 0 z "},"Ů":{"ha":956,"x_min":57,"x_max":899,"o":"m 601 1200 q 565 1113 601 1149 q 478 1076 529 1076 q 392 1113 428 1076 q 356 1200 356 1149 q 392 1286 356 1250 q 478 1322 428 1322 q 565 1286 529 1322 q 601 1200 601 1250 m 516 1162 q 524 1170 516 1162 q 532 1200 532 1178 q 516 1238 532 1222 q 478 1253 500 1253 q 440 1238 456 1253 q 425 1200 425 1222 q 440 1162 425 1178 q 478 1146 456 1146 q 516 1162 500 1146 m 899 392 q 866 232 899 307 q 776 101 833 157 q 642 12 718 44 q 478 -21 565 -21 q 314 12 390 -21 q 180 101 238 44 q 90 232 122 157 q 57 392 57 307 l 57 972 l 196 972 l 196 393 q 218 286 196 336 q 278 199 240 236 q 368 140 317 161 q 478 118 419 118 q 588 140 536 118 q 677 199 639 161 q 738 286 715 236 q 760 393 760 336 l 760 972 l 899 972 l 899 392 z "},"ů":{"ha":729,"x_min":57,"x_max":661,"o":"m 482 874 q 446 786 482 822 q 358 750 410 750 q 272 786 308 750 q 236 874 236 822 q 272 960 236 924 q 358 996 308 996 q 446 960 410 996 q 482 874 482 924 m 397 835 q 405 843 397 835 q 413 874 413 851 q 397 911 413 896 q 358 926 381 926 q 321 911 336 926 q 306 874 306 896 q 321 835 306 851 q 358 819 336 819 q 397 835 381 819 m 661 0 l 522 0 l 522 42 q 346 -14 442 -14 q 253 0 303 -14 q 159 47 203 14 q 86 135 115 81 q 57 271 57 190 l 57 660 l 196 660 l 196 296 q 208 231 196 261 q 240 179 219 201 q 288 144 261 157 q 346 132 315 132 q 441 144 396 132 q 522 181 486 156 l 522 660 l 661 660 l 661 0 z "},"Ű":{"ha":956,"x_min":57,"x_max":899,"o":"m 499 1247 l 425 1079 l 418 1076 l 328 1076 l 325 1088 l 403 1251 l 497 1251 l 499 1247 m 704 1247 l 629 1079 l 624 1076 l 532 1076 l 531 1088 l 607 1251 l 701 1251 l 704 1247 m 899 392 q 866 232 899 307 q 776 101 833 157 q 642 12 718 44 q 478 -21 565 -21 q 314 12 390 -21 q 180 101 238 44 q 90 232 122 157 q 57 392 57 307 l 57 972 l 196 972 l 196 393 q 218 286 196 336 q 278 199 240 236 q 368 140 317 161 q 478 118 419 118 q 588 140 536 118 q 677 199 639 161 q 738 286 715 236 q 760 393 760 336 l 760 972 l 899 972 l 899 392 z "},"ű":{"ha":729,"x_min":57,"x_max":661,"o":"m 379 921 l 306 753 l 299 750 l 208 750 l 206 761 l 283 925 l 378 925 l 379 921 m 585 921 l 510 753 l 504 750 l 413 750 l 411 761 l 488 925 l 582 925 l 585 921 m 661 0 l 522 0 l 522 42 q 346 -14 442 -14 q 253 0 303 -14 q 159 47 203 14 q 86 135 115 81 q 57 271 57 190 l 57 660 l 196 660 l 196 296 q 208 231 196 261 q 240 179 219 201 q 288 144 261 157 q 346 132 315 132 q 441 144 396 132 q 522 181 486 156 l 522 660 l 661 660 l 661 0 z "},"Ų":{"ha":956,"x_min":57,"x_max":899,"o":"m 413 -103 q 413 -15 413 -103 l 543 -12 l 543 -44 q 555 -112 543 -76 q 589 -156 567 -149 q 618 -157 606 -158 q 650 -151 631 -156 q 676 -147 669 -147 l 676 -262 q 668 -268 676 -267 q 539 -258 599 -282 q 447 -197 482 -237 q 413 -103 413 -157 m 899 392 q 866 232 899 307 q 776 101 833 157 q 642 12 718 44 q 478 -21 565 -21 q 314 12 390 -21 q 180 101 238 44 q 90 232 122 157 q 57 392 57 307 l 57 972 l 196 972 l 196 393 q 218 286 196 336 q 278 199 240 236 q 368 140 317 161 q 478 118 419 118 q 588 140 536 118 q 677 199 639 161 q 738 286 715 236 q 760 393 760 336 l 760 972 l 899 972 l 899 392 z "},"ų":{"ha":729,"x_min":57,"x_max":661,"o":"m 346 -96 q 346 -8 346 -96 l 476 -6 l 476 -37 q 488 -106 476 -69 q 522 -149 500 -142 q 551 -150 539 -151 q 583 -144 564 -149 q 610 -140 603 -140 l 610 -256 q 601 -261 610 -260 q 472 -251 532 -275 q 381 -190 415 -231 q 346 -96 346 -150 m 661 0 l 522 0 l 522 42 q 346 -14 442 -14 q 253 0 303 -14 q 159 47 203 14 q 86 135 115 81 q 57 271 57 190 l 57 660 l 196 660 l 196 296 q 208 231 196 261 q 240 179 219 201 q 288 144 261 157 q 346 132 315 132 q 441 144 396 132 q 522 181 486 156 l 522 660 l 661 660 l 661 0 z "},"Ŵ":{"ha":1382,"x_min":18,"x_max":1368,"o":"m 693 1322 l 919 1078 l 779 1076 l 693 1171 l 606 1076 l 467 1076 l 693 1322 m 1368 969 l 1047 1 l 908 1 l 693 706 l 478 1 l 339 1 l 18 969 l 165 969 l 408 238 l 621 942 l 765 942 l 978 238 l 1221 969 l 1368 969 z "},"ŵ":{"ha":1083,"x_min":15,"x_max":1064,"o":"m 540 996 l 767 751 l 626 750 l 540 844 l 453 750 l 314 750 l 540 996 m 1064 658 l 824 -3 l 685 -3 l 540 386 l 394 -3 l 256 -3 l 15 658 l 163 658 l 325 213 l 474 603 l 606 603 l 754 213 l 917 658 l 1064 658 z "},"Ŷ":{"ha":796,"x_min":21,"x_max":782,"o":"m 401 1322 l 628 1078 l 488 1076 l 401 1171 l 314 1076 l 175 1076 l 401 1322 m 782 972 l 471 485 l 471 0 l 332 0 l 332 485 l 21 972 l 185 972 l 401 633 l 618 972 l 782 972 z "},"ŷ":{"ha":785,"x_min":18,"x_max":767,"o":"m 393 996 l 619 751 l 479 750 l 393 844 l 306 750 l 167 750 l 393 996 m 767 660 l 335 -156 q 218 -278 294 -232 q 56 -325 142 -325 l 56 -186 q 147 -160 104 -186 q 214 -90 190 -133 l 311 96 l 18 660 l 175 660 l 390 246 l 613 660 l 767 660 z "},"Ÿ":{"ha":796,"x_min":21,"x_max":782,"o":"m 619 1108 l 522 1011 l 425 1108 l 522 1207 l 619 1108 m 379 1108 l 282 1011 l 185 1108 l 282 1207 l 379 1108 m 782 972 l 471 485 l 471 0 l 332 0 l 332 485 l 21 972 l 185 972 l 401 633 l 618 972 l 782 972 z "},"Ź":{"ha":931,"x_min":46,"x_max":910,"o":"m 749 1325 l 749 1210 l 492 1076 l 492 1189 l 749 1325 m 910 972 l 315 140 l 896 140 l 896 0 l 46 1 l 642 833 l 74 833 l 74 972 l 910 972 z "},"ź":{"ha":692,"x_min":11,"x_max":678,"o":"m 618 999 l 618 883 l 361 750 l 361 863 l 618 999 m 678 660 l 290 139 l 653 139 l 653 0 l 11 0 l 401 521 l 44 521 l 44 660 l 678 660 z "},"Ż":{"ha":931,"x_min":46,"x_max":910,"o":"m 576 1160 q 550 1135 564 1149 q 519 1103 536 1121 q 493 1076 503 1086 l 486 1076 q 407 1157 411 1153 l 406 1163 l 489 1246 q 496 1246 493 1251 l 575 1165 l 576 1160 m 910 972 l 315 140 l 896 140 l 896 0 l 46 1 l 642 833 l 74 833 l 74 972 l 910 972 z "},"ż":{"ha":692,"x_min":11,"x_max":678,"o":"m 446 833 q 419 808 433 822 q 389 777 406 794 q 363 750 372 760 l 356 750 q 276 831 281 826 l 275 836 l 358 919 q 365 919 363 925 l 444 839 l 446 833 m 678 660 l 290 139 l 653 139 l 653 0 l 11 0 l 401 521 l 44 521 l 44 660 l 678 660 z "},"Ž":{"ha":931,"x_min":46,"x_max":910,"o":"m 500 1082 q 488 1076 497 1076 l 483 1082 l 264 1318 l 404 1318 l 490 1225 l 578 1318 l 718 1318 l 500 1082 m 910 972 l 315 140 l 896 140 l 896 0 l 46 1 l 642 833 l 74 833 l 74 972 l 910 972 z "},"ž":{"ha":692,"x_min":11,"x_max":678,"o":"m 369 756 q 357 750 367 750 l 353 756 l 133 992 l 274 992 l 360 899 l 447 992 l 588 992 l 369 756 m 678 660 l 290 139 l 653 139 l 653 0 l 11 0 l 401 521 l 44 521 l 44 660 l 678 660 z "},"ſ":{"ha":611,"x_min":50,"x_max":578,"o":"m 578 203 q 555 96 578 139 q 494 26 532 53 q 403 -11 456 0 q 293 -22 351 -22 q 160 2 222 -22 q 50 71 99 26 l 50 258 q 147 154 83 192 q 290 117 211 117 q 326 117 301 117 q 376 126 351 118 q 421 149 401 133 q 440 197 440 165 q 412 241 440 226 q 340 265 383 256 l 247 286 q 154 319 197 297 q 83 381 111 342 q 54 488 54 419 q 73 566 54 529 q 124 631 92 603 q 199 674 156 658 q 290 690 242 690 q 410 673 353 690 q 517 625 468 656 l 517 465 q 418 528 476 504 q 290 551 360 551 q 222 539 250 551 q 193 488 193 526 q 222 438 193 454 q 293 410 250 421 q 385 390 336 400 q 478 358 435 379 q 549 301 521 338 q 578 203 578 265 z "},"ȷ":{"ha":278,"x_min":-79,"x_max":208,"o":"m 208 0 q 197 -151 208 -87 q 153 -257 185 -215 q 65 -318 121 -299 q -79 -337 8 -337 l -79 -199 q 1 -186 -29 -199 q 46 -149 31 -174 q 66 -87 61 -124 q 71 0 71 -50 l 71 658 l 208 658 l 208 0 z "},"ˆ":{"ha":547,"x_min":47,"x_max":500,"o":"m 274 925 l 500 681 l 360 679 l 274 774 l 186 679 l 47 679 l 274 925 z "},"ˇ":{"ha":547,"x_min":47,"x_max":501,"o":"m 283 683 q 271 678 281 678 l 267 683 l 47 919 l 188 919 l 274 826 l 361 919 l 501 919 l 283 683 z "},"˘":{"ha":478,"x_min":28,"x_max":450,"o":"m 388 716 q 357 685 388 716 q 239 654 326 654 q 90 716 151 654 q 28 865 28 778 l 147 865 q 174 801 147 828 q 239 774 200 774 q 303 801 276 774 q 331 865 331 828 l 450 865 q 388 716 450 778 z "},"˙":{"ha":226,"x_min":28,"x_max":199,"o":"m 199 744 q 172 719 186 733 q 142 688 158 706 q 115 661 125 671 l 108 661 q 29 742 33 738 l 28 747 l 111 831 q 118 831 115 836 l 197 750 l 199 744 z "},"˚":{"ha":301,"x_min":28,"x_max":274,"o":"m 274 799 q 238 711 274 747 q 150 675 201 675 q 64 711 100 675 q 28 799 28 747 q 64 885 28 849 q 150 921 100 921 q 238 885 201 921 q 274 799 274 849 m 188 760 q 196 768 188 760 q 204 799 204 776 q 188 836 204 821 q 150 851 172 851 q 113 836 128 851 q 97 799 97 821 q 113 760 97 776 q 150 744 128 744 q 188 760 172 744 z "},"˛":{"ha":319,"x_min":28,"x_max":292,"o":"m 28 -85 q 28 3 28 -85 l 158 6 l 158 -26 q 170 -94 158 -58 q 204 -137 182 -131 q 233 -139 221 -140 q 265 -133 246 -137 q 292 -129 285 -129 l 292 -244 q 283 -250 292 -249 q 154 -240 214 -264 q 63 -179 97 -219 q 28 -85 28 -139 z "},"˜":{"ha":557,"x_min":28,"x_max":529,"o":"m 529 828 q 450 721 501 761 q 271 701 382 667 q 244 712 269 701 q 214 725 219 722 q 116 744 157 744 q 38 713 75 744 q 28 711 32 706 q 106 818 51 775 q 274 840 169 868 q 297 832 283 838 q 326 821 311 826 q 343 814 340 815 q 518 828 456 774 q 525 831 524 832 q 528 829 526 831 l 529 828 z "},"˝":{"ha":407,"x_min":14,"x_max":393,"o":"m 188 825 l 114 657 l 107 654 l 17 654 l 14 665 l 92 829 l 186 829 l 188 825 m 393 825 l 318 657 l 313 654 l 221 654 l 219 665 l 296 829 l 390 829 l 393 825 z "},"Γ":{"ha":1000,"x_min":63,"x_max":907,"o":"m 907 88 q 742 8 832 36 q 551 -21 651 -21 q 361 21 450 -21 q 206 134 272 63 q 101 302 139 206 q 63 507 63 399 q 102 695 63 607 q 209 849 142 783 q 367 954 276 915 q 563 993 458 993 q 745 967 658 993 q 907 893 832 940 l 907 725 q 758 819 847 783 q 567 854 669 854 q 425 826 492 854 q 308 751 358 799 q 230 642 258 704 q 201 510 201 579 q 230 357 201 428 q 307 233 258 286 q 420 149 356 179 q 558 118 485 118 q 621 124 586 118 q 686 138 656 129 q 740 156 717 146 q 768 176 763 167 l 768 461 l 907 461 l 907 88 z "},"Κ":{"ha":847,"x_min":69,"x_max":818,"o":"m 818 972 l 388 506 l 799 -7 l 618 -7 l 208 510 l 208 0 l 69 0 l 69 971 l 210 971 l 210 517 l 628 972 l 818 972 z "},"Ξ":{"ha":782,"x_min":21,"x_max":761,"o":"m 761 -4 l 601 -4 l 392 354 l 181 -4 l 21 -4 l 311 490 l 28 972 l 188 972 l 392 626 l 594 972 l 754 972 l 471 490 l 761 -4 z "},"Σ":{"ha":1368,"x_min":22,"x_max":1353,"o":"m 1353 972 l 960 0 l 829 0 l 688 350 l 546 0 l 415 0 l 22 972 l 171 972 l 481 210 l 613 535 l 436 972 l 585 972 l 688 719 l 790 972 l 939 972 l 763 535 l 894 210 l 1204 972 l 1353 972 z "},"Υ":{"ha":2063,"x_min":43,"x_max":2007,"o":"m 918 503 q 889 639 918 575 q 810 751 860 703 q 694 826 760 799 q 554 854 628 854 q 410 826 478 854 q 291 751 342 799 q 211 641 240 704 q 182 507 182 578 q 212 356 182 426 q 292 232 242 285 q 411 149 343 179 q 557 118 479 118 q 658 134 610 118 q 750 179 707 150 l 668 254 l 786 333 l 847 276 q 899 382 881 325 q 918 503 918 439 m 1171 -21 l 967 -21 l 853 85 q 712 7 789 35 q 550 -21 635 -21 q 353 21 446 -21 q 192 134 261 63 q 83 302 124 206 q 43 507 43 399 q 83 695 43 607 q 192 849 124 783 q 353 954 261 915 q 550 993 446 993 q 747 954 654 993 q 908 849 839 915 q 1017 695 976 783 q 1057 507 1057 607 q 1028 333 1057 415 q 949 183 1000 250 l 1171 -21 m 2007 392 q 1974 232 2007 307 q 1884 101 1942 157 q 1750 12 1826 44 q 1586 -21 1674 -21 q 1422 12 1499 -21 q 1288 101 1346 44 q 1198 232 1231 157 q 1165 392 1165 307 l 1165 972 l 1304 972 l 1304 393 q 1326 286 1304 336 q 1387 199 1349 236 q 1476 140 1425 161 q 1586 118 1528 118 q 1696 140 1644 118 q 1785 199 1747 161 q 1846 286 1824 236 q 1868 393 1868 336 l 1868 972 l 2007 972 l 2007 392 z "},"α":{"ha":1193,"x_min":54,"x_max":1139,"o":"m 524 353 q 515 361 524 353 l 321 361 q 338 278 324 319 q 378 201 353 238 q 437 133 403 164 q 511 83 471 103 l 519 108 q 522 228 517 164 q 524 353 528 293 m 519 457 l 519 694 l 511 718 q 449 698 478 714 q 395 658 419 682 q 353 603 371 633 q 324 544 335 574 q 311 499 321 522 q 313 457 301 476 l 519 457 m 1139 536 q 1131 516 1138 524 q 1114 501 1124 508 q 1094 488 1104 494 q 1078 474 1085 482 q 1022 390 1039 438 q 1014 290 1006 342 q 1024 270 1017 279 q 1031 249 1031 261 l 1019 249 q 1001 332 1007 289 q 1014 415 996 375 q 932 394 974 410 q 844 378 890 378 l 632 365 l 624 357 q 619 303 619 331 l 619 247 q 617 192 619 219 q 607 142 615 165 q 607 101 606 122 q 603 61 608 81 q 624 50 613 51 q 647 49 635 49 q 671 52 658 50 q 694 53 683 54 q 765 76 731 58 q 829 119 800 93 q 878 176 858 144 q 907 244 899 208 q 890 169 911 204 l 849 100 q 733 11 800 36 q 590 -21 665 -14 q 575 -53 575 -33 q 565 -87 575 -74 q 505 -183 542 -139 q 422 -261 468 -228 q 324 -315 376 -294 q 217 -337 272 -335 q 186 -326 201 -331 q 156 -315 171 -321 q 126 -301 140 -310 q 100 -279 111 -293 q 77 -233 88 -258 q 62 -182 67 -208 q 59 -129 57 -156 q 75 -79 61 -103 q 102 -25 82 -49 q 149 17 122 -1 q 204 52 175 36 q 258 83 233 68 l 271 78 q 187 17 221 61 q 150 -79 153 -26 q 171 -172 147 -131 q 238 -242 194 -212 q 315 -265 271 -268 q 396 -250 358 -262 q 474 -149 444 -206 q 507 -25 503 -92 l 449 0 q 392 26 419 11 q 341 62 365 42 q 296 111 317 82 q 256 165 271 136 q 233 224 242 193 q 219 289 225 256 l 208 353 q 194 365 201 363 q 179 365 188 367 q 163 360 171 363 q 146 357 154 357 q 98 356 121 358 q 54 344 75 353 l 54 365 q 133 413 92 393 q 217 449 174 432 q 250 552 221 506 q 321 637 279 599 q 412 705 363 675 q 507 757 461 735 q 526 781 521 767 q 530 810 531 794 q 526 842 529 826 q 524 872 524 858 q 503 901 518 892 q 474 922 488 910 q 437 923 451 925 q 404 910 422 921 l 404 922 q 524 983 463 957 q 640 1051 585 1010 l 653 1051 q 638 988 642 1019 q 633 925 635 957 q 631 860 632 893 q 628 793 631 826 l 640 782 q 815 765 732 789 q 965 678 899 742 q 966 635 974 654 q 944 601 958 617 q 910 571 929 585 q 878 544 892 557 q 882 590 883 564 q 857 636 881 617 l 806 672 q 752 703 779 690 q 695 723 725 717 q 632 724 665 729 l 624 715 q 619 588 619 656 q 619 461 618 519 l 628 453 q 816 462 722 451 q 1006 478 910 472 q 1074 506 1042 486 q 1139 536 1106 525 m 1019 61 l 957 0 l 940 0 q 910 35 926 17 q 874 61 893 53 q 898 97 883 82 q 932 128 913 113 q 943 135 938 129 q 954 146 949 142 q 965 150 960 150 q 978 142 971 150 q 986 121 979 131 q 1001 102 993 111 q 1015 83 1008 93 q 1019 61 1021 74 z "},"β":{"ha":4561,"x_min":207,"x_max":4353,"o":"m 1329 553 l 1296 526 l 1278 458 l 1293 478 l 1297 483 l 1303 497 l 1303 504 l 1329 553 m 2938 539 l 2936 547 l 2929 572 l 2922 585 l 2918 590 l 2906 597 l 2900 600 l 2897 601 l 2894 594 l 2892 582 l 2886 571 l 2883 514 l 2885 504 l 2889 492 l 2896 485 l 2917 492 l 2929 504 l 2932 511 l 2936 519 l 2938 539 m 4269 863 l 4265 865 l 4264 868 l 4263 872 l 4256 881 l 4158 900 l 4151 897 l 4149 892 l 4149 889 l 4150 883 l 4156 874 l 4158 869 l 4165 863 l 4169 861 l 4174 857 l 4201 847 l 4221 842 l 4238 842 l 4253 844 l 4267 851 l 4268 857 l 4268 860 l 4269 863 m 3308 347 l 3297 346 l 2928 308 l 2760 281 l 2721 271 l 2707 196 l 2796 169 l 2824 160 l 2843 150 l 2861 140 l 2872 132 l 2893 111 l 2906 93 l 2908 82 l 2910 71 l 2910 60 l 2908 49 l 2906 38 l 2900 28 l 2894 19 l 2888 14 l 2858 -10 l 2853 -12 l 2847 -14 l 2843 -15 l 2838 -15 l 2832 -14 l 2832 -10 l 2833 -6 l 2840 7 l 2868 22 l 2872 35 l 2872 44 l 2869 61 l 2808 115 l 2706 153 l 2696 151 l 2692 150 l 2685 143 l 2675 131 l 2672 125 l 2671 118 l 2664 104 l 2654 88 l 2651 82 l 2625 24 l 2572 -60 l 2507 -135 l 2419 -211 l 2313 -283 l 2299 -290 l 2282 -299 l 2231 -321 l 2176 -333 l 2149 -336 l 2121 -337 l 2086 -333 l 2068 -329 l 2043 -321 l 2026 -312 l 2018 -308 l 1994 -294 l 1968 -272 l 1933 -235 l 1919 -214 l 1896 -168 l 1871 -99 l 1867 -81 l 1864 -65 l 1860 -50 l 1861 -42 l 1871 -72 l 1908 -151 l 1938 -196 l 1981 -243 l 2014 -271 l 2061 -297 l 2072 -300 l 2078 -303 l 2101 -310 l 2118 -312 l 2140 -312 l 2167 -310 l 2246 -292 l 2306 -258 l 2408 -186 l 2513 -86 l 2572 -4 l 2606 58 l 2611 72 l 2618 90 l 2631 115 l 2633 124 l 2633 132 l 2631 142 l 2638 142 l 2639 143 l 2640 147 l 2640 158 l 2408 188 l 2406 189 l 2403 192 l 2403 196 l 2403 200 l 2404 207 l 2406 210 l 2410 215 l 2418 221 l 2424 224 l 2672 283 l 2711 521 l 2706 581 l 2704 671 l 2693 760 l 2679 817 l 2668 849 l 2658 867 l 2644 888 l 2624 910 l 2611 921 l 2581 943 l 2549 961 l 2544 961 l 2540 961 l 2517 964 l 2500 965 l 2496 965 l 2483 965 l 2478 965 l 2449 963 l 2444 961 l 2440 960 l 2425 954 l 2413 949 l 2410 943 l 2407 936 l 2410 921 l 2417 907 l 2419 901 l 2463 842 l 2500 761 l 2519 674 l 2522 596 l 2513 522 l 2493 464 l 2476 432 l 2465 417 l 2458 410 l 2443 399 l 2433 394 l 2424 392 l 2419 392 l 2417 392 l 2413 394 l 2407 410 l 2403 425 l 2401 457 l 2408 496 l 2429 564 l 2436 576 l 2440 589 l 2440 596 l 2439 603 l 2403 624 l 2385 608 l 2375 596 l 2356 563 l 2339 515 l 2308 392 l 2306 389 l 2296 383 l 2292 382 l 2288 381 l 2282 381 l 2279 382 l 2263 504 l 2249 499 l 2246 496 l 2236 486 l 2228 475 l 2206 438 l 2197 425 l 2188 415 l 2179 410 l 2164 403 l 2153 401 l 2151 403 l 2146 407 l 2143 467 l 2132 465 l 2118 458 l 2056 411 l 2047 407 l 2044 404 l 2038 401 l 2029 399 l 2021 399 l 2011 406 l 2004 414 l 2003 424 l 2003 436 l 2006 460 l 2008 472 l 2014 486 l 2025 501 l 2054 540 l 2064 563 l 2067 572 l 1942 557 l 1921 483 l 1903 447 l 1883 419 l 1865 401 l 1856 394 l 1842 388 l 1828 378 l 1818 371 l 1808 368 l 1801 367 l 1797 367 l 1792 368 l 1781 372 l 1768 386 l 1760 396 l 1754 407 l 1743 468 l 1742 482 l 1742 499 l 1739 504 l 1735 506 l 1731 504 l 1722 497 l 1717 489 l 1688 449 l 1640 396 l 1635 392 l 1631 382 l 1622 372 l 1607 363 l 1585 354 l 1582 356 l 1578 358 l 1574 361 l 1572 364 l 1569 369 l 1568 375 l 1571 510 l 1569 514 l 1568 513 l 1567 507 l 1565 507 l 1563 510 l 1468 375 l 1461 369 l 1446 361 l 1438 358 l 1429 369 l 1418 390 l 1410 413 l 1406 428 l 1394 603 l 1378 582 l 1356 538 l 1307 429 l 1296 411 l 1288 401 l 1275 389 l 1243 363 l 1239 363 l 1233 364 l 1232 367 l 1225 378 l 1221 390 l 1219 403 l 1219 417 l 1222 435 l 1243 504 l 1257 532 l 1311 592 l 1310 594 l 1306 600 l 1286 606 l 1275 607 l 1249 604 l 1239 604 l 1235 604 l 1172 604 l 1168 603 l 1151 603 l 1135 600 l 799 567 l 603 526 l 592 493 l 568 401 l 558 375 l 543 353 l 536 343 l 526 333 l 515 326 l 514 324 l 511 321 l 511 315 l 511 311 l 513 304 l 518 301 l 547 290 l 567 286 l 592 283 l 685 279 l 704 275 l 717 272 l 903 282 l 1057 315 l 1100 332 l 1100 329 l 1100 321 l 1101 315 l 1086 296 l 1046 279 l 967 256 l 844 236 l 765 229 l 544 240 l 454 260 l 413 276 l 403 281 l 399 283 l 393 288 l 388 300 l 381 321 l 385 329 l 390 335 l 399 340 l 413 344 l 436 344 l 463 343 l 475 342 l 492 344 l 500 346 l 514 365 l 521 378 l 538 419 l 554 510 l 531 514 l 511 514 l 497 513 l 478 510 l 392 490 l 357 488 l 338 489 l 333 490 l 332 494 l 333 504 l 335 510 l 340 515 l 356 526 l 369 531 l 393 535 l 397 535 l 406 536 l 410 536 l 432 539 l 447 544 l 456 547 l 483 553 l 486 553 l 519 557 l 522 557 l 560 565 l 582 771 l 564 778 l 556 779 l 543 779 l 521 776 l 475 764 l 454 760 l 446 760 l 357 742 l 233 722 l 213 718 l 210 721 l 208 726 l 207 738 l 260 761 l 342 782 l 536 815 l 582 831 l 588 971 l 588 974 l 592 981 l 599 988 l 608 993 l 610 992 l 618 992 l 625 990 l 632 975 l 636 954 l 633 914 l 629 874 l 631 851 l 735 854 l 1014 882 l 1104 878 l 1157 865 l 1208 847 l 1210 833 l 1208 826 l 1207 819 l 1200 808 l 1172 783 l 1160 772 l 1135 758 l 1097 744 l 1093 743 l 1085 740 l 1081 738 l 1074 735 l 1054 725 l 1044 724 l 1033 724 l 1028 724 l 1021 721 l 1021 732 l 1079 754 l 1165 808 l 1165 811 l 1165 814 l 1161 819 l 1114 832 l 1050 840 l 901 838 l 642 794 l 632 786 l 615 586 l 617 585 l 622 583 l 636 582 l 661 586 l 678 589 l 700 593 l 1331 651 l 1331 650 l 1338 649 l 1342 646 l 1346 646 l 1367 657 l 1386 711 l 1399 776 l 1408 863 l 1419 878 l 1432 888 l 1438 889 l 1444 888 l 1449 883 l 1454 869 l 1460 850 l 1461 814 l 1461 775 l 1463 754 l 1460 739 l 1460 708 l 1458 694 l 1454 678 l 1454 674 l 1457 665 l 1460 661 l 1469 656 l 1488 651 l 1493 651 l 1503 651 l 1507 650 l 1510 646 l 1513 642 l 1510 633 l 1508 629 l 1496 617 l 1483 607 l 1469 603 l 1460 600 l 1453 586 l 1451 571 l 1453 518 l 1449 499 l 1461 444 l 1461 443 l 1463 442 l 1465 442 l 1467 440 l 1469 440 l 1483 449 l 1499 465 l 1536 521 l 1547 532 l 1556 546 l 1558 550 l 1564 558 l 1568 563 l 1569 563 l 1576 564 l 1582 567 l 1585 569 l 1600 603 l 1601 603 l 1606 606 l 1611 607 l 1614 607 l 1617 607 l 1619 606 l 1628 603 l 1617 444 l 1617 442 l 1618 440 l 1624 436 l 1628 435 l 1642 444 l 1656 457 l 1672 475 l 1757 585 l 1779 607 l 1793 618 l 1807 628 l 1807 626 l 1813 621 l 1815 618 l 1804 572 l 1801 526 l 1806 481 l 1811 457 l 1819 435 l 1821 432 l 1828 429 l 1840 428 l 1850 429 l 1888 478 l 1894 494 l 1897 511 l 1899 528 l 1893 560 l 1888 590 l 1886 607 l 1890 614 l 1893 617 l 1896 618 l 1911 622 l 1922 622 l 1944 619 l 1971 613 l 1989 608 l 2001 608 l 2014 611 l 2017 611 l 2053 614 l 2056 614 l 2069 617 l 2074 617 l 2101 622 l 2118 628 l 2132 635 l 2143 640 l 2144 640 l 2149 640 l 2153 639 l 2157 633 l 2158 628 l 2157 621 l 2149 603 l 2085 538 l 2053 461 l 2053 460 l 2054 458 l 2058 457 l 2061 456 l 2068 458 l 2092 471 l 2101 479 l 2119 497 l 2149 539 l 2188 597 l 2197 607 l 2200 607 l 2204 607 l 2207 604 l 2210 603 l 2199 510 l 2200 508 l 2200 507 l 2203 507 l 2207 507 l 2213 510 l 2222 521 l 2253 561 l 2263 571 l 2275 581 l 2289 586 l 2292 585 l 2297 582 l 2307 574 l 2315 571 l 2321 571 l 2381 647 l 2388 654 l 2403 661 l 2411 664 l 2435 664 l 2481 657 l 2482 678 l 2481 700 l 2475 719 l 2465 747 l 2446 782 l 2401 847 l 2379 889 l 2372 914 l 2371 924 l 2371 943 l 2386 963 l 2392 968 l 2478 1003 l 2539 1001 l 2597 988 l 2638 969 l 2668 949 l 2685 933 l 2694 922 l 2719 875 l 2738 826 l 2750 775 l 2760 671 l 2757 515 l 2733 326 l 2732 299 l 2863 313 l 3000 338 l 3318 356 l 3319 354 l 3326 353 l 3308 347 m 4353 917 l 4351 911 l 4350 908 l 4343 906 l 4331 906 l 4326 904 l 4322 851 l 4308 833 l 4288 815 l 4276 810 l 4265 806 l 4246 800 l 4233 797 l 4221 797 l 4213 797 l 4207 799 l 4172 807 l 4161 813 l 4146 819 l 4132 828 l 4118 840 l 4113 849 l 4107 863 l 4106 871 l 4107 888 l 4110 894 l 4107 900 l 4107 903 l 4104 904 l 3936 883 l 3929 881 l 3921 874 l 3913 860 l 3906 842 l 3899 814 l 3863 640 l 3860 600 l 3861 576 l 3865 553 l 3872 554 l 3885 561 l 3894 571 l 3929 621 l 3940 631 l 3947 635 l 3956 635 l 3961 633 l 3961 619 l 3960 606 l 3947 546 l 3946 532 l 3947 519 l 3953 507 l 3963 490 l 3965 489 l 3967 489 l 3974 489 l 4001 507 l 4021 543 l 4011 564 l 3996 572 l 3989 581 l 3986 586 l 3985 592 l 3985 594 l 3986 603 l 3989 607 l 3994 614 l 3997 615 l 4010 621 l 4022 624 l 4036 624 l 4040 624 l 4047 624 l 4093 617 l 4108 606 l 4122 590 l 4136 569 l 4147 544 l 4211 557 l 4228 526 l 4233 514 l 4242 485 l 4243 472 l 4243 458 l 4242 446 l 4238 429 l 4225 410 l 4213 394 l 4197 386 l 4188 383 l 4181 383 l 4178 385 l 4175 385 l 4171 390 l 4169 396 l 4169 399 l 4172 401 l 4179 404 l 4186 406 l 4190 408 l 4193 410 l 4196 414 l 4203 429 l 4169 499 l 4158 503 l 4147 488 l 4129 456 l 4124 449 l 4113 439 l 4107 436 l 4099 435 l 4090 435 l 4088 435 l 4082 450 l 4089 483 l 4090 504 l 4090 521 l 4088 539 l 4081 558 l 4067 572 l 4063 576 l 4061 579 l 4058 579 l 4057 579 l 4054 578 l 4053 576 l 4051 575 l 4053 542 l 4051 532 l 4049 521 l 4043 510 l 4028 494 l 4010 478 l 3988 463 l 3967 449 l 3964 447 l 3947 438 l 3943 438 l 3938 438 l 3928 440 l 3921 444 l 3913 450 l 3911 456 l 3906 468 l 3904 482 l 3904 496 l 3903 507 l 3899 521 l 3894 519 l 3889 518 l 3878 511 l 3869 501 l 3849 475 l 3838 465 l 3825 458 l 3818 457 l 3811 456 l 3808 457 l 3807 458 l 3804 461 l 3803 535 l 3842 760 l 3818 733 l 3747 626 l 3676 515 l 3676 460 l 3672 447 l 3667 435 l 3664 431 l 3654 421 l 3643 414 l 3638 411 l 3636 411 l 3631 414 l 3629 415 l 3628 418 l 3621 428 l 3617 442 l 3615 458 l 3618 488 l 3622 504 l 3619 513 l 3617 521 l 3611 522 l 3607 522 l 3604 522 l 3583 503 l 3578 497 l 3544 468 l 3526 458 l 3511 451 l 3503 450 l 3483 532 l 3482 533 l 3479 531 l 3476 529 l 3475 533 l 3465 526 l 3453 513 l 3422 468 l 3407 457 l 3393 450 l 3385 450 l 3371 558 l 3243 440 l 3239 440 l 3233 442 l 3232 444 l 3228 558 l 3221 568 l 3214 575 l 3210 578 l 3204 581 l 3183 568 l 3119 478 l 3106 465 l 3101 463 l 3096 461 l 3090 461 l 3088 461 l 3086 463 l 3083 475 l 3079 501 l 3078 528 l 3079 567 l 3142 835 l 3149 889 l 3125 872 l 3097 842 l 3063 800 l 3029 765 l 3015 754 l 3003 738 l 2986 718 l 2965 701 l 2961 699 l 2933 656 l 2960 618 l 2971 599 l 2979 572 l 2982 563 l 2983 536 l 2982 525 l 2979 515 l 2974 499 l 2968 493 l 2957 489 l 2950 483 l 2942 469 l 2935 461 l 2919 447 l 2904 438 l 2881 428 l 2865 425 l 2857 424 l 2851 426 l 2846 429 l 2842 433 l 2836 446 l 2832 458 l 2831 467 l 2829 503 l 2838 556 l 2856 635 l 2890 653 l 2981 756 l 3090 865 l 3135 926 l 3157 967 l 3172 1008 l 3179 1039 l 3183 1043 l 3189 1047 l 3194 1050 l 3199 1051 l 3200 1050 l 3207 1050 l 3210 1050 l 3214 1046 l 3215 1043 l 3218 1035 l 3124 569 l 3124 565 l 3125 564 l 3129 560 l 3135 558 l 3215 624 l 3218 625 l 3231 626 l 3233 626 l 3247 622 l 3264 611 l 3267 607 l 3272 599 l 3275 596 l 3279 543 l 3281 538 l 3283 535 l 3286 533 l 3290 533 l 3303 539 l 3306 542 l 3344 585 l 3368 604 l 3374 608 l 3392 615 l 3400 618 l 3401 618 l 3404 618 l 3411 615 l 3415 613 l 3438 550 l 3458 558 l 3461 563 l 3476 582 l 3490 594 l 3500 601 l 3511 606 l 3519 607 l 3522 607 l 3524 607 l 3526 606 l 3529 606 l 3546 526 l 3547 525 l 3551 524 l 3557 524 l 3610 586 l 3611 589 l 3621 599 l 3633 607 l 3638 611 l 3657 603 l 3658 596 l 3660 592 l 3661 589 l 3665 586 l 3667 585 l 3668 583 l 3672 581 l 3676 581 l 3693 596 l 3717 628 l 3810 779 l 3819 792 l 3831 814 l 3860 863 l 3857 869 l 3856 872 l 3807 869 l 3806 872 l 3806 874 l 3807 878 l 3811 883 l 3886 911 l 3899 932 l 3906 938 l 3908 939 l 3929 936 l 3931 933 l 3931 929 l 3931 925 l 3933 922 l 3944 921 l 4010 924 l 4217 957 l 4281 954 l 4306 950 l 4343 938 l 4346 931 l 4353 922 l 4353 919 l 4353 917 z "},"γ":{"ha":1860,"x_min":1,"x_max":1857,"o":"m 353 404 q 47 404 353 404 l 47 188 l 329 188 q 328 304 322 254 q 353 404 333 354 m 569 235 q 561 285 564 264 q 558 325 558 307 q 560 362 558 343 q 567 404 563 381 l 374 404 q 353 357 361 381 q 340 308 344 333 q 337 253 336 282 q 342 186 338 224 q 401 189 374 188 q 456 195 429 190 q 511 209 483 200 q 569 235 539 218 m 981 -3 q 976 8 981 4 q 964 11 971 11 q 926 -1 949 11 q 874 -19 903 -14 q 915 -22 894 -22 l 943 -22 q 969 -19 957 -22 q 981 -3 981 -15 m 410 671 q 388 660 410 669 q 339 636 365 651 q 290 599 313 621 q 268 551 268 578 q 277 533 268 536 q 301 534 286 529 q 331 551 315 539 q 363 581 347 563 q 380 606 374 594 q 390 628 386 618 l 399 649 q 410 671 403 658 m 690 403 l 597 403 q 593 374 596 392 q 588 335 590 357 q 586 290 586 314 q 590 244 586 267 q 639 288 621 268 q 667 326 657 307 q 683 363 678 344 q 690 403 688 382 m 1518 172 l 1269 172 q 1191 68 1236 107 q 1076 29 1146 29 q 982 69 1018 29 q 938 171 946 108 l 669 171 l 946 403 l 736 403 l 721 361 q 697 318 713 340 q 658 272 682 296 q 594 224 633 249 q 688 66 629 122 q 847 -18 746 10 q 885 -9 869 -14 q 913 1 900 -4 q 937 11 925 6 q 964 22 949 17 q 982 15 974 22 q 990 -3 990 8 q 980 -24 990 -15 q 942 -32 969 -32 q 902 -31 918 -32 q 874 -28 886 -29 q 851 -28 861 -28 q 828 -33 840 -29 l 771 -53 l 771 -44 l 835 -21 q 751 7 788 -14 q 685 54 714 28 q 635 109 656 81 q 603 162 615 138 q 583 200 590 186 l 578 215 q 541 199 561 207 q 494 183 521 190 q 430 172 467 176 q 343 168 393 168 q 410 -19 360 65 q 536 -165 461 -104 q 705 -259 611 -225 q 903 -293 799 -293 q 1108 -260 1010 -293 q 1286 -165 1206 -226 q 1426 -17 1367 -103 q 1518 172 1486 68 m 618 531 q 573 542 603 542 q 510 533 543 543 q 444 500 476 522 q 390 443 411 478 l 575 443 q 592 489 581 468 q 618 531 603 510 m 689 444 q 681 479 686 464 q 651 510 676 494 q 628 482 638 496 q 608 444 619 468 l 689 444 m 1254 171 l 971 171 q 1019 92 983 118 q 1106 65 1054 65 q 1190 94 1149 65 q 1254 171 1231 124 m 1238 444 q 1187 528 1218 490 q 1115 592 1156 565 q 1028 635 1075 619 q 932 650 982 650 q 799 617 865 650 q 685 539 733 585 q 722 497 707 524 q 738 443 738 471 l 1011 443 l 735 210 l 938 210 q 963 298 943 256 q 1017 373 982 340 q 1107 425 1053 406 q 1238 444 1161 444 m 1268 210 q 1275 298 1276 260 q 1268 363 1274 336 q 1255 406 1263 390 q 1243 429 1247 422 q 1116 410 1167 429 q 1034 358 1065 390 q 988 287 1003 326 q 971 210 974 247 l 1268 210 m 1529 428 l 1281 428 q 1293 310 1294 361 q 1283 211 1292 260 l 1525 211 q 1539 320 1542 267 q 1529 428 1536 374 m 1817 213 l 1817 429 l 1597 429 q 1603 367 1601 392 q 1606 318 1606 342 q 1603 272 1606 296 l 1596 213 l 1817 213 m 1857 168 l 1586 168 q 1494 -29 1556 60 q 1349 -181 1433 -118 q 1163 -279 1265 -244 q 946 -314 1060 -314 q 709 -276 817 -314 q 522 -174 601 -239 q 393 -21 442 -108 q 332 168 344 67 l 1 168 l 1 442 l 368 442 q 400 491 382 467 q 442 534 418 515 q 499 565 467 553 q 578 576 532 576 q 610 572 592 576 q 643 563 628 568 q 769 665 693 624 q 928 706 846 706 q 1042 687 988 706 q 1143 633 1097 668 q 1223 551 1189 599 q 1276 444 1257 503 l 1528 444 q 1446 647 1503 556 q 1308 803 1389 738 q 1126 903 1228 868 q 913 939 1025 939 q 773 920 843 939 q 640 868 703 901 q 522 788 576 835 q 428 685 467 742 l 467 697 l 467 690 l 424 674 q 409 650 418 674 q 383 597 400 626 q 342 544 367 568 q 281 521 317 521 q 267 530 272 521 q 261 553 261 539 q 274 594 261 575 q 310 628 288 613 q 358 656 332 643 q 413 681 385 669 q 511 799 453 746 q 638 892 569 853 q 783 951 707 931 q 938 972 860 972 q 1167 934 1058 972 q 1361 826 1275 896 q 1508 660 1447 757 q 1594 444 1568 563 l 1857 444 l 1857 168 z "},"δ":{"ha":1389,"x_min":3,"x_max":1389,"o":"m 1389 413 l 946 413 l 769 224 l 576 224 l 753 413 l 660 413 l 483 224 l 289 224 l 467 413 l 372 413 l 197 224 l 3 224 l 181 413 l 86 413 l 3 413 l 3 551 l 86 551 l 181 551 l 3 740 l 197 740 l 372 551 l 467 551 l 289 740 l 483 740 l 660 551 l 753 551 l 576 740 l 769 740 l 946 551 l 1389 551 l 1389 413 z "},"ε":{"ha":1389,"x_min":0,"x_max":1389,"o":"m 1389 413 l 1194 413 q 1134 241 1179 318 q 1022 109 1089 164 q 872 24 956 54 q 694 -6 788 -6 q 509 24 596 -6 q 354 109 422 54 q 241 241 286 164 q 181 413 196 318 l 0 413 l 0 551 l 181 551 q 241 717 196 639 q 354 854 286 796 q 509 947 422 913 q 694 981 596 981 q 872 947 788 981 q 1022 854 956 913 q 1134 717 1089 796 q 1194 551 1179 639 l 1389 551 l 1389 413 m 1056 481 q 1026 619 1056 553 q 948 734 997 685 q 833 813 899 783 q 694 842 767 842 q 565 819 626 842 q 455 758 504 797 q 370 667 406 719 q 319 551 335 614 l 696 551 l 696 413 l 319 413 q 370 296 335 350 q 455 203 406 242 q 565 142 504 164 q 694 119 626 119 q 833 149 767 119 q 948 227 899 178 q 1026 342 997 276 q 1056 481 1056 407 z "},"ζ":{"ha":1389,"x_min":0,"x_max":1389,"o":"m 1389 483 l 507 224 l 682 413 l 642 413 l 0 413 l 0 551 l 643 551 l 682 551 l 510 744 l 1389 483 z "},"η":{"ha":1389,"x_min":0,"x_max":1389,"o":"m 1389 413 l 747 413 l 707 413 l 882 224 l 0 483 l 879 744 l 707 551 l 746 551 l 1389 551 l 1389 413 z "},"θ":{"ha":1389,"x_min":0,"x_max":1389,"o":"m 1389 413 l 1208 413 q 1148 241 1193 318 q 1035 109 1103 164 q 880 24 967 54 q 694 -6 793 -6 q 517 24 600 -6 q 367 109 433 54 q 255 241 300 164 q 194 413 210 318 l 0 413 l 0 551 l 194 551 q 255 717 210 639 q 367 854 300 796 q 517 947 433 913 q 694 981 600 981 q 880 947 793 981 q 1035 854 967 913 q 1148 717 1103 796 q 1208 551 1193 639 l 1389 551 l 1389 413 m 1069 413 q 693 413 1069 413 l 693 551 l 1069 551 q 1019 667 1054 614 q 934 758 983 719 q 824 819 885 797 q 694 842 763 842 q 556 813 621 842 q 441 734 490 783 q 363 619 392 685 q 333 481 333 553 q 363 342 333 407 q 441 227 392 276 q 556 149 490 178 q 694 119 621 119 q 824 142 763 119 q 934 203 885 164 q 1019 296 983 242 q 1069 413 1054 350 z "},"ι":{"ha":1389,"x_min":0,"x_max":1389,"o":"m 1389 224 l 1196 224 l 1019 413 l 925 413 l 1103 224 l 908 224 l 733 413 l 639 413 l 817 224 l 622 224 l 447 413 l 0 413 l 0 551 l 447 551 l 622 740 l 817 740 l 639 551 l 733 551 l 908 740 l 1103 740 l 925 551 l 1019 551 l 1196 740 l 1389 740 l 1213 551 l 1307 551 l 1389 551 l 1389 413 l 1307 413 l 1213 413 l 1389 224 z "},"μ":{"ha":696,"x_min":56,"x_max":640,"o":"m 338 -15 q 185 19 254 -19 l 185 -150 q 181 -156 185 -156 l 61 -156 q 56 -150 56 -156 l 56 614 l 182 614 l 182 613 q 188 608 189 613 l 188 217 q 233 147 197 176 q 318 110 268 118 q 417 118 368 101 q 508 217 492 149 l 508 608 l 514 614 l 636 614 l 638 613 l 640 613 l 640 3 l 635 -1 q 513 -1 574 -1 q 511 3 511 0 l 511 24 q 338 -15 458 -24 z "},"ς":{"ha":1240,"x_min":17,"x_max":1225,"o":"m 1225 972 l 894 114 l 939 1 l 789 1 l 617 463 l 483 115 l 528 3 l 378 3 l 17 972 l 165 972 l 414 321 l 544 658 l 428 971 l 576 971 l 825 319 l 1076 972 l 1225 972 z "},"υ":{"ha":764,"x_min":42,"x_max":1369,"o":"m 583 329 q 566 413 583 376 q 520 476 549 450 q 456 515 492 501 q 382 528 419 528 q 303 511 340 528 q 240 467 267 494 q 197 403 213 440 q 181 328 181 367 q 201 243 183 281 q 246 179 218 206 q 309 139 274 153 q 382 125 344 125 q 468 144 431 126 q 531 190 506 161 q 570 253 557 218 q 583 329 583 289 m 1369 -257 q 1232 -322 1307 -306 q 1072 -330 1154 -339 q 906 -292 989 -321 q 738 -219 822 -262 q 571 -122 653 -175 q 467 -66 514 -87 q 381 -31 419 -44 q 310 -9 342 -18 q 249 13 278 0 q 97 140 151 57 q 42 329 42 224 q 72 467 43 406 q 149 574 101 529 q 257 642 196 618 q 383 667 318 667 q 521 635 458 664 q 628 560 583 607 q 697 453 672 513 q 722 329 722 393 q 681 166 719 238 q 578 49 642 94 q 796 -86 688 -26 q 1196 -204 1017 -212 q 1369 -149 1292 -200 l 1369 -257 z "},"–":{"ha":694,"x_min":0,"x_max":694,"o":"m 694 233 l 0 233 l 0 372 l 694 372 l 694 233 z "},"—":{"ha":1042,"x_min":0,"x_max":1042,"o":"m 1042 233 l 0 233 l 0 372 l 1042 372 l 1042 233 z "},"‘":{"ha":243,"x_min":15,"x_max":233,"o":"m 233 956 q 203 938 217 949 q 178 908 189 928 q 160 859 167 889 q 154 783 154 829 l 154 633 l 15 633 l 15 783 q 32 857 15 822 q 78 917 49 892 q 148 956 108 942 q 233 971 188 971 l 233 956 z "},"’":{"ha":264,"x_min":31,"x_max":249,"o":"m 249 822 q 232 748 249 782 q 185 689 215 714 q 116 649 156 664 q 31 635 76 635 l 31 650 q 61 667 47 656 q 86 697 75 678 q 103 747 97 717 q 110 822 110 776 l 110 972 l 249 972 l 249 822 z "},"“":{"ha":507,"x_min":15,"x_max":494,"o":"m 233 956 q 203 938 217 949 q 178 908 189 928 q 160 859 167 889 q 154 783 154 829 l 154 633 l 15 633 l 15 783 q 32 857 15 822 q 78 917 49 892 q 148 956 108 942 q 233 971 188 971 l 233 956 m 494 956 q 464 938 478 949 q 439 908 450 928 q 422 859 428 889 q 415 783 415 829 l 415 667 l 275 667 l 275 783 q 292 857 275 822 q 339 917 310 892 q 408 956 368 942 q 494 971 449 971 l 494 956 z "},"”":{"ha":497,"x_min":17,"x_max":486,"o":"m 235 822 q 218 748 235 782 q 172 689 201 714 q 102 649 142 664 q 17 635 63 635 l 17 650 q 47 667 33 656 q 72 697 61 678 q 90 747 83 717 q 96 822 96 776 l 96 972 l 235 972 l 235 822 m 486 856 q 469 781 486 815 q 422 722 451 747 q 353 683 393 697 q 267 668 313 668 l 267 683 q 297 700 283 689 q 322 731 311 711 q 340 780 333 750 q 346 856 346 810 l 346 972 l 486 972 l 486 856 z "},"‥":{"ha":375,"x_min":28,"x_max":354,"o":"m 354 0 l 215 0 l 215 135 l 354 135 l 354 0 m 167 0 l 28 0 l 28 135 l 167 135 l 167 0 z "},"…":{"ha":563,"x_min":28,"x_max":542,"o":"m 542 0 l 403 0 l 403 135 l 542 135 l 542 0 m 354 0 l 215 0 l 215 135 l 354 135 l 354 0 m 167 0 l 28 0 l 28 135 l 167 135 l 167 0 z "},"‰":{"ha":1479,"x_min":47,"x_max":1425,"o":"m 1425 186 q 1409 107 1425 144 q 1365 42 1393 69 q 1300 -1 1338 15 q 1221 -17 1263 -17 q 1140 -1 1178 -17 q 1074 43 1103 15 q 1030 108 1046 71 q 1014 189 1014 146 q 1030 269 1014 232 q 1074 335 1046 307 q 1138 378 1101 363 q 1218 394 1175 394 q 1298 378 1260 394 q 1364 333 1336 361 q 1408 267 1392 304 q 1425 186 1425 229 m 1317 188 q 1317 194 1317 188 q 1287 258 1317 232 q 1219 285 1257 285 q 1151 256 1179 285 q 1122 188 1122 228 q 1151 119 1122 147 q 1221 90 1181 90 q 1289 119 1261 90 q 1317 188 1317 147 m 946 186 q 930 107 946 144 q 886 42 914 69 q 821 -1 858 15 q 742 -17 783 -17 q 661 -1 699 -17 q 595 43 624 15 q 551 108 567 71 q 535 189 535 146 q 551 269 535 232 q 594 335 567 307 q 659 378 622 363 q 739 394 696 394 q 819 378 781 394 q 885 333 857 361 q 929 267 913 304 q 946 186 946 229 m 838 188 l 838 194 q 808 258 838 232 q 740 285 778 285 q 672 256 700 285 q 643 188 643 228 q 672 119 643 147 q 742 90 701 90 q 810 119 782 90 q 838 188 838 147 m 454 739 q 438 660 454 697 q 395 594 422 622 q 331 551 368 567 q 251 535 293 535 q 172 551 210 535 q 107 594 135 567 q 63 660 79 622 q 47 739 47 697 q 63 818 47 781 q 107 883 79 856 q 172 926 135 910 q 251 942 208 942 q 331 926 294 942 q 395 883 368 910 q 438 819 422 856 q 454 739 454 782 m 790 926 l 326 0 l 193 0 l 660 926 l 790 926 m 347 742 q 319 808 347 782 q 249 835 292 835 q 181 808 208 835 q 153 740 153 781 q 181 672 153 700 q 251 644 210 644 q 319 673 292 644 q 347 742 347 701 z "},"‼":{"ha":556,"x_min":46,"x_max":518,"o":"m 518 74 l 424 -21 l 324 75 l 418 169 l 518 74 m 486 850 l 457 217 l 379 217 l 347 850 l 347 972 l 486 972 l 486 850 m 240 74 l 146 -21 l 46 75 l 140 169 l 240 74 m 208 850 l 179 217 l 101 217 l 69 850 l 69 972 l 208 972 l 208 850 z "},"⁇":{"ha":1250,"x_min":43,"x_max":1208,"o":"m 1022 82 l 925 -15 l 828 82 l 925 181 l 1022 82 m 1208 750 q 1194 650 1211 692 q 1151 578 1178 608 q 1093 528 1125 549 l 1033 486 q 986 449 1006 468 q 965 403 967 429 q 971 369 965 383 q 986 344 976 356 q 1006 324 996 333 l 1028 303 l 926 207 q 894 244 911 226 q 860 282 876 261 q 831 329 843 303 q 818 393 819 356 q 836 465 817 432 q 884 526 856 497 q 946 580 913 554 q 1008 631 979 606 q 1054 683 1036 657 q 1069 742 1072 710 q 1032 822 1069 789 q 938 854 994 854 q 844 828 886 854 q 785 738 801 801 l 668 811 q 700 874 678 842 q 758 932 722 906 q 841 976 793 958 q 947 993 889 993 q 1050 975 1003 993 q 1131 925 1097 957 q 1185 849 1165 893 q 1208 750 1206 804 m 397 82 l 300 -15 l 203 82 l 300 181 l 397 82 m 583 750 q 569 650 586 692 q 526 578 553 608 q 468 528 500 549 l 408 486 q 361 449 381 468 q 340 403 342 429 q 346 369 340 383 q 361 344 351 356 q 381 324 371 333 l 403 303 l 301 207 q 269 244 286 226 q 235 282 251 261 q 206 329 218 303 q 193 393 194 356 q 211 465 192 432 q 259 526 231 497 q 321 580 288 554 q 383 631 354 606 q 429 683 411 657 q 444 742 447 710 q 407 822 444 789 q 313 854 369 854 q 219 828 261 854 q 160 738 176 801 l 43 811 q 75 874 53 842 q 133 932 97 906 q 216 976 168 958 q 322 993 264 993 q 425 975 378 993 q 506 925 472 957 q 560 849 540 893 q 583 750 581 804 z "},"⁈":{"ha":903,"x_min":43,"x_max":865,"o":"m 865 74 l 771 -21 l 671 75 l 765 169 l 865 74 m 833 850 l 804 217 l 726 217 l 694 850 l 694 972 l 833 972 l 833 850 m 397 82 l 300 -15 l 203 82 l 300 181 l 397 82 m 583 750 q 569 650 586 692 q 526 578 553 608 q 468 528 500 549 l 408 486 q 361 449 381 468 q 340 403 342 429 q 346 369 340 383 q 361 344 351 356 q 381 324 371 333 l 403 303 l 301 207 q 269 244 286 226 q 235 282 251 261 q 206 329 218 303 q 193 393 194 356 q 211 465 192 432 q 259 526 231 497 q 321 580 288 554 q 383 631 354 606 q 429 683 411 657 q 444 742 447 710 q 407 822 444 789 q 313 854 369 854 q 219 828 261 854 q 160 738 176 801 l 43 811 q 75 874 53 842 q 133 932 97 906 q 216 976 168 958 q 322 993 264 993 q 425 975 378 993 q 506 925 472 957 q 560 849 540 893 q 583 750 581 804 z "},"⁉":{"ha":903,"x_min":46,"x_max":861,"o":"m 675 82 l 578 -15 l 481 82 l 578 181 l 675 82 m 861 750 q 847 650 864 692 q 804 578 831 608 q 746 528 778 549 l 686 486 q 639 449 658 468 q 618 403 619 429 q 624 369 618 383 q 639 344 629 356 q 658 324 649 333 l 681 303 l 579 207 q 547 244 564 226 q 513 282 529 261 q 484 329 496 303 q 471 393 472 356 q 489 465 469 432 q 537 526 508 497 q 599 580 565 554 q 660 631 632 606 q 707 683 689 657 q 722 742 725 710 q 685 822 722 789 q 590 854 647 854 q 497 828 539 854 q 438 738 454 801 l 321 811 q 353 874 331 842 q 410 932 375 906 q 494 976 446 958 q 600 993 542 993 q 703 975 656 993 q 784 925 750 957 q 838 849 818 893 q 861 750 858 804 m 240 74 l 146 -21 l 46 75 l 140 169 l 240 74 m 208 850 l 179 217 l 101 217 l 69 850 l 69 972 l 208 972 l 208 850 z "},"⁰":{"ha":861,"x_min":119,"x_max":747,"o":"m 608 490 q 598 622 608 560 q 566 731 588 685 q 512 806 544 778 q 433 833 479 833 q 355 806 388 833 q 301 731 322 778 q 269 622 279 685 q 258 490 258 560 q 271 349 258 415 q 306 233 283 282 q 361 155 329 183 q 433 126 393 126 q 505 155 472 126 q 560 233 538 183 q 596 349 583 282 q 608 490 608 415 m 747 490 q 723 269 747 364 q 656 113 699 175 q 556 19 613 50 q 433 -12 499 -12 q 311 19 368 -12 q 211 113 254 50 q 144 269 168 175 q 119 490 119 364 q 144 691 119 601 q 211 843 168 781 q 311 939 254 906 q 433 972 368 972 q 556 939 499 972 q 656 843 613 906 q 723 691 699 781 q 747 490 747 601 z "},"ⁱ":{"ha":278,"x_min":43,"x_max":238,"o":"m 208 0 l 71 0 l 71 658 l 208 658 l 208 0 m 238 831 l 140 733 l 43 831 l 140 929 l 238 831 z "},"⁴":{"ha":861,"x_min":8,"x_max":858,"o":"m 858 276 l 633 276 l 633 0 l 494 0 l 494 276 l 8 276 l 632 1021 l 632 415 l 858 415 l 858 276 m 494 415 l 494 640 l 307 415 l 494 415 z "},"⁵":{"ha":861,"x_min":114,"x_max":746,"o":"m 746 972 l 651 833 l 381 833 l 353 615 q 494 598 429 621 q 606 533 558 575 q 680 432 653 490 q 707 311 707 374 q 681 185 707 244 q 611 82 656 126 q 507 12 567 38 q 379 -14 447 -14 q 227 24 296 -14 q 114 126 158 61 l 194 242 q 278 157 235 189 q 385 125 322 125 q 453 138 421 125 q 509 174 485 151 q 548 228 533 197 q 563 294 563 260 q 547 366 563 332 q 505 425 532 400 q 442 465 478 450 q 365 479 406 479 q 287 477 325 479 q 193 454 249 475 l 263 972 l 746 972 z "},"⁶":{"ha":861,"x_min":129,"x_max":731,"o":"m 592 304 q 580 366 592 338 q 548 417 568 394 q 501 451 528 439 q 443 464 474 464 q 347 448 390 464 q 271 403 303 432 q 268 369 268 386 l 268 338 q 282 259 268 296 q 319 195 296 222 q 375 153 343 168 q 443 138 407 138 q 501 151 474 138 q 548 187 528 164 q 580 240 568 210 q 592 304 592 269 m 708 418 q 719 391 708 418 q 731 301 731 364 q 707 184 731 239 q 644 88 683 129 q 550 23 604 47 q 436 -1 496 -1 q 317 26 372 -1 q 219 99 261 53 q 153 206 178 144 q 129 338 129 268 q 155 525 129 431 q 227 706 181 619 q 340 865 274 792 q 486 993 406 939 l 644 993 q 452 803 540 910 q 315 572 364 696 q 378 594 346 586 q 443 601 411 601 q 554 578 501 601 q 646 513 607 554 q 708 418 685 472 z "},"⁷":{"ha":861,"x_min":110,"x_max":758,"o":"m 758 972 l 264 -1 l 110 -1 l 536 833 l 115 833 l 115 972 l 758 972 z "},"⁸":{"ha":861,"x_min":136,"x_max":728,"o":"m 576 219 q 583 233 576 219 q 589 281 589 247 q 576 340 589 314 q 542 386 564 365 q 491 425 519 407 q 432 460 463 443 q 372 426 400 443 q 321 387 343 408 q 286 339 299 365 q 274 279 274 313 q 286 219 274 247 q 320 171 299 192 q 371 138 342 150 q 432 126 400 126 q 492 138 464 126 q 542 171 521 150 q 576 219 564 192 m 728 279 q 704 166 728 219 q 640 73 681 113 q 547 10 600 33 q 432 -12 493 -12 q 317 10 371 -12 q 224 73 264 33 q 160 166 183 113 q 136 279 136 219 q 149 363 136 325 q 185 434 163 401 q 239 493 208 467 q 303 543 269 519 q 217 631 251 581 q 183 761 183 682 q 203 858 183 813 q 256 938 222 904 q 335 992 290 972 q 432 1013 381 1013 q 528 992 483 1013 q 608 938 574 972 q 661 858 642 904 q 681 761 681 813 q 645 631 681 682 q 558 542 610 579 q 622 492 592 518 q 676 435 653 467 q 714 365 700 403 q 728 279 728 326 m 542 761 q 510 840 542 807 q 432 874 478 874 q 354 840 386 874 q 322 761 322 807 q 353 689 322 721 q 431 625 383 657 q 510 688 478 656 q 542 761 542 719 z "},"⁹":{"ha":861,"x_min":110,"x_max":753,"o":"m 615 625 q 601 708 615 669 q 560 774 586 746 q 499 819 533 803 q 424 835 464 835 q 357 821 389 835 q 301 782 325 807 q 263 724 278 757 q 249 653 249 690 q 263 592 249 621 q 301 540 276 563 q 358 505 325 518 q 432 492 392 492 q 530 510 485 492 q 608 563 575 529 q 615 594 614 578 q 615 625 615 610 m 753 626 q 724 438 753 528 q 643 266 694 347 q 524 112 592 185 q 378 -24 456 39 l 200 -24 q 297 56 246 10 q 395 156 347 101 q 484 269 443 210 q 550 388 525 328 q 481 360 517 371 q 410 350 446 350 q 294 375 349 350 q 198 444 239 400 q 133 546 157 488 q 110 671 110 604 q 135 788 110 733 q 203 884 160 843 q 303 949 246 925 q 426 974 361 974 q 553 947 493 974 q 657 872 613 919 q 727 762 701 825 q 753 626 753 699 z "},"⁺":{"ha":703,"x_min":85,"x_max":619,"o":"m 619 408 l 619 408 l 419 408 l 419 199 l 283 199 l 283 408 l 85 408 l 85 544 l 283 544 l 283 754 l 419 754 l 419 544 l 619 544 l 619 408 z "},"⁼":{"ha":728,"x_min":54,"x_max":674,"o":"m 674 438 l 674 438 l 54 438 l 54 553 l 674 553 l 674 438 m 674 113 l 674 113 l 54 113 l 54 228 l 674 228 l 674 113 z "},"⁽":{"ha":278,"x_min":-1,"x_max":276,"o":"m 276 -326 q 138 -326 276 -326 q 81 -172 106 -251 q 37 -3 56 -92 q 8 184 18 85 q -1 396 -1 283 q 8 608 -1 508 q 36 796 18 707 q 79 965 54 885 q 136 1121 104 1046 l 272 1121 q 217 965 242 1046 q 174 796 192 885 q 147 608 157 707 q 138 396 138 508 q 147 184 138 283 q 176 -3 157 85 q 219 -172 194 -92 q 276 -326 244 -251 z "},"⁾":{"ha":278,"x_min":-4,"x_max":278,"o":"m 278 399 q 267 185 278 285 q 238 -3 257 86 q 193 -172 219 -92 q 135 -326 167 -251 l -4 -326 q 54 -172 28 -251 q 99 -3 81 -92 q 128 185 118 86 q 139 399 139 285 q 129 610 139 511 q 101 797 119 708 q 56 965 82 885 q 0 1121 31 1046 l 136 1121 q 194 965 168 1046 q 240 797 221 885 q 268 610 258 708 q 278 399 278 511 z "},"ⁿ":{"ha":726,"x_min":71,"x_max":671,"o":"m 671 0 l 532 0 l 532 396 q 520 447 532 422 q 488 489 508 471 q 439 517 467 507 q 379 528 411 528 q 282 511 326 528 q 210 467 238 494 l 210 0 l 71 0 l 71 660 l 210 660 l 210 619 q 290 654 247 642 q 381 667 333 667 q 491 645 439 667 q 583 586 543 624 q 647 499 624 549 q 671 396 671 450 l 671 0 z "},"₀":{"ha":861,"x_min":119,"x_max":747,"o":"m 608 490 q 598 622 608 560 q 566 731 588 685 q 512 806 544 778 q 433 833 479 833 q 355 806 388 833 q 301 731 322 778 q 269 622 279 685 q 258 490 258 560 q 271 349 258 415 q 306 233 283 282 q 361 155 329 183 q 433 126 393 126 q 505 155 472 126 q 560 233 538 183 q 596 349 583 282 q 608 490 608 415 m 747 490 q 723 269 747 364 q 656 113 699 175 q 556 19 613 50 q 433 -12 499 -12 q 311 19 368 -12 q 211 113 254 50 q 144 269 168 175 q 119 490 119 364 q 144 691 119 601 q 211 843 168 781 q 311 939 254 906 q 433 972 368 972 q 556 939 499 972 q 656 843 613 906 q 723 691 699 781 q 747 490 747 601 z "},"₁":{"ha":431,"x_min":146,"x_max":285,"o":"m 285 0 l 146 0 l 146 842 l 285 1004 l 285 0 z "},"₂":{"ha":861,"x_min":147,"x_max":717,"o":"m 717 -1 l 147 -1 l 508 583 q 531 654 522 614 q 540 731 540 694 q 493 820 532 786 q 397 854 454 854 q 312 831 351 854 q 241 776 272 808 q 188 710 210 744 q 151 651 165 675 l 151 886 q 263 964 199 935 q 400 993 326 993 q 512 972 460 993 q 603 915 564 951 q 664 831 642 879 q 686 731 686 783 q 669 606 688 657 q 621 504 651 554 l 397 138 l 717 138 l 717 -1 z "},"₃":{"ha":861,"x_min":118,"x_max":749,"o":"m 749 290 q 722 172 749 228 q 651 76 696 117 q 547 10 607 35 q 418 -14 486 -14 q 240 35 319 -14 q 118 165 161 85 l 224 254 q 299 160 247 196 q 418 125 351 125 q 488 138 456 125 q 545 174 521 151 q 583 226 569 196 q 597 290 597 257 q 582 366 597 331 q 540 427 567 401 q 478 468 514 453 q 403 483 443 483 q 345 482 376 483 q 289 478 314 481 l 496 835 l 131 835 l 131 972 l 735 972 l 519 597 q 612 551 569 581 q 684 481 654 521 q 731 392 714 440 q 749 290 749 343 z "},"₄":{"ha":861,"x_min":8,"x_max":858,"o":"m 858 276 l 633 276 l 633 0 l 494 0 l 494 276 l 8 276 l 632 1021 l 632 415 l 858 415 l 858 276 m 494 415 l 494 640 l 307 415 l 494 415 z "},"₅":{"ha":861,"x_min":114,"x_max":746,"o":"m 746 972 l 651 833 l 381 833 l 353 615 q 494 598 429 621 q 606 533 558 575 q 680 432 653 490 q 707 311 707 374 q 681 185 707 244 q 611 82 656 126 q 507 12 567 38 q 379 -14 447 -14 q 227 24 296 -14 q 114 126 158 61 l 194 242 q 278 157 235 189 q 385 125 322 125 q 453 138 421 125 q 509 174 485 151 q 548 228 533 197 q 563 294 563 260 q 547 366 563 332 q 505 425 532 400 q 442 465 478 450 q 365 479 406 479 q 287 477 325 479 q 193 454 249 475 l 263 972 l 746 972 z "},"₆":{"ha":861,"x_min":129,"x_max":731,"o":"m 592 304 q 580 366 592 338 q 548 417 568 394 q 501 451 528 439 q 443 464 474 464 q 347 448 390 464 q 271 403 303 432 q 268 369 268 386 l 268 338 q 282 259 268 296 q 319 195 296 222 q 375 153 343 168 q 443 138 407 138 q 501 151 474 138 q 548 187 528 164 q 580 240 568 210 q 592 304 592 269 m 708 418 q 719 391 708 418 q 731 301 731 364 q 707 184 731 239 q 644 88 683 129 q 550 23 604 47 q 436 -1 496 -1 q 317 26 372 -1 q 219 99 261 53 q 153 206 178 144 q 129 338 129 268 q 155 525 129 431 q 227 706 181 619 q 340 865 274 792 q 486 993 406 939 l 644 993 q 452 803 540 910 q 315 572 364 696 q 378 594 346 586 q 443 601 411 601 q 554 578 501 601 q 646 513 607 554 q 708 418 685 472 z "},"₇":{"ha":861,"x_min":110,"x_max":758,"o":"m 758 972 l 264 -1 l 110 -1 l 536 833 l 115 833 l 115 972 l 758 972 z "},"₈":{"ha":861,"x_min":136,"x_max":728,"o":"m 576 219 q 583 233 576 219 q 589 281 589 247 q 576 340 589 314 q 542 386 564 365 q 491 425 519 407 q 432 460 463 443 q 372 426 400 443 q 321 387 343 408 q 286 339 299 365 q 274 279 274 313 q 286 219 274 247 q 320 171 299 192 q 371 138 342 150 q 432 126 400 126 q 492 138 464 126 q 542 171 521 150 q 576 219 564 192 m 728 279 q 704 166 728 219 q 640 73 681 113 q 547 10 600 33 q 432 -12 493 -12 q 317 10 371 -12 q 224 73 264 33 q 160 166 183 113 q 136 279 136 219 q 149 363 136 325 q 185 434 163 401 q 239 493 208 467 q 303 543 269 519 q 217 631 251 581 q 183 761 183 682 q 203 858 183 813 q 256 938 222 904 q 335 992 290 972 q 432 1013 381 1013 q 528 992 483 1013 q 608 938 574 972 q 661 858 642 904 q 681 761 681 813 q 645 631 681 682 q 558 542 610 579 q 622 492 592 518 q 676 435 653 467 q 714 365 700 403 q 728 279 728 326 m 542 761 q 510 840 542 807 q 432 874 478 874 q 354 840 386 874 q 322 761 322 807 q 353 689 322 721 q 431 625 383 657 q 510 688 478 656 q 542 761 542 719 z "},"₉":{"ha":861,"x_min":110,"x_max":753,"o":"m 615 625 q 601 708 615 669 q 560 774 586 746 q 499 819 533 803 q 424 835 464 835 q 357 821 389 835 q 301 782 325 807 q 263 724 278 757 q 249 653 249 690 q 263 592 249 621 q 301 540 276 563 q 358 505 325 518 q 432 492 392 492 q 530 510 485 492 q 608 563 575 529 q 615 594 614 578 q 615 625 615 610 m 753 626 q 724 438 753 528 q 643 266 694 347 q 524 112 592 185 q 378 -24 456 39 l 200 -24 q 297 56 246 10 q 395 156 347 101 q 484 269 443 210 q 550 388 525 328 q 481 360 517 371 q 410 350 446 350 q 294 375 349 350 q 198 444 239 400 q 133 546 157 488 q 110 671 110 604 q 135 788 110 733 q 203 884 160 843 q 303 949 246 925 q 426 974 361 974 q 553 947 493 974 q 657 872 613 919 q 727 762 701 825 q 753 626 753 699 z "},"₊":{"ha":703,"x_min":85,"x_max":619,"o":"m 619 408 l 619 408 l 419 408 l 419 199 l 283 199 l 283 408 l 85 408 l 85 544 l 283 544 l 283 754 l 419 754 l 419 544 l 619 544 l 619 408 z "},"₌":{"ha":728,"x_min":54,"x_max":674,"o":"m 674 438 l 674 438 l 54 438 l 54 553 l 674 553 l 674 438 m 674 113 l 674 113 l 54 113 l 54 228 l 674 228 l 674 113 z "},"₍":{"ha":278,"x_min":-1,"x_max":276,"o":"m 276 -326 q 138 -326 276 -326 q 81 -172 106 -251 q 37 -3 56 -92 q 8 184 18 85 q -1 396 -1 283 q 8 608 -1 508 q 36 796 18 707 q 79 965 54 885 q 136 1121 104 1046 l 272 1121 q 217 965 242 1046 q 174 796 192 885 q 147 608 157 707 q 138 396 138 508 q 147 184 138 283 q 176 -3 157 85 q 219 -172 194 -92 q 276 -326 244 -251 z "},"₎":{"ha":278,"x_min":-4,"x_max":278,"o":"m 278 399 q 267 185 278 285 q 238 -3 257 86 q 193 -172 219 -92 q 135 -326 167 -251 l -4 -326 q 54 -172 28 -251 q 99 -3 81 -92 q 128 185 118 86 q 139 399 139 285 q 129 610 139 511 q 101 797 119 708 q 56 965 82 885 q 0 1121 31 1046 l 136 1121 q 194 965 168 1046 q 240 797 221 885 q 268 610 258 708 q 278 399 278 511 z "},"ₐ":{"ha":636,"x_min":50,"x_max":579,"o":"m 440 147 q 440 278 440 147 q 340 274 388 278 q 258 259 293 269 q 203 229 224 249 q 183 179 183 210 q 222 122 183 135 q 314 110 260 110 q 378 120 344 110 q 440 147 413 131 m 579 0 l 440 0 l 440 35 q 359 -1 404 11 q 276 -14 314 -14 q 188 1 229 -14 q 117 42 147 15 q 68 102 86 68 q 50 176 50 136 q 70 264 50 222 q 137 336 90 306 q 258 385 183 367 q 440 403 332 403 q 435 467 440 439 q 414 515 429 496 q 372 543 399 533 q 306 553 346 553 q 192 533 246 553 q 79 460 138 513 l 65 460 l 118 635 q 210 676 157 660 q 311 692 263 692 q 394 683 347 692 q 481 644 440 674 q 551 559 522 615 q 579 410 579 503 l 579 0 z "},"ₑ":{"ha":747,"x_min":43,"x_max":711,"o":"m 553 446 q 539 489 553 468 q 502 525 525 510 q 449 550 479 540 q 383 560 418 560 q 271 527 321 560 q 197 446 221 494 l 553 446 m 711 313 q 186 313 711 313 q 216 238 194 272 q 269 178 238 203 q 340 138 300 153 q 425 124 381 124 q 560 147 497 124 q 668 208 624 171 l 668 64 q 544 7 611 28 q 404 -14 476 -14 q 263 15 329 -14 q 149 94 197 44 q 72 212 100 144 q 43 354 43 279 q 70 485 43 424 q 144 592 97 546 q 252 665 190 638 q 385 692 314 692 q 515 671 451 692 q 626 604 579 650 q 698 486 674 558 q 711 313 722 414 z "},"ₒ":{"ha":764,"x_min":43,"x_max":724,"o":"m 585 329 q 569 406 585 369 q 525 469 553 442 q 461 512 497 496 q 383 528 425 528 q 305 512 342 528 q 241 469 268 496 q 198 405 214 442 q 182 328 182 368 q 198 249 182 286 q 241 184 214 211 q 305 141 268 157 q 383 125 342 125 q 461 141 425 125 q 525 185 497 157 q 569 250 553 213 q 585 329 585 288 m 724 329 q 697 196 724 258 q 623 87 669 133 q 515 13 576 40 q 383 -14 453 -14 q 251 13 313 -14 q 143 87 189 40 q 70 196 97 133 q 43 329 43 258 q 70 460 43 399 q 144 567 97 521 q 252 640 190 613 q 385 667 314 667 q 516 640 454 667 q 624 567 578 613 q 697 460 669 521 q 724 329 724 399 z "},"ₓ":{"ha":681,"x_min":7,"x_max":678,"o":"m 678 -3 l 504 -3 l 343 215 l 181 -3 l 7 -3 l 257 332 l 11 660 l 183 660 l 343 447 l 501 660 l 674 660 l 429 331 l 678 -3 z "},"ₕ":{"ha":726,"x_min":71,"x_max":671,"o":"m 671 0 l 532 0 l 532 396 q 520 447 532 422 q 488 489 508 471 q 439 517 467 507 q 379 528 411 528 q 282 502 326 528 q 210 436 238 476 l 210 0 l 71 0 l 71 972 l 210 972 l 210 619 q 290 654 247 642 q 381 667 333 667 q 491 645 439 667 q 583 586 543 624 q 647 499 624 549 q 671 396 671 450 l 671 0 z "},"ₖ":{"ha":715,"x_min":71,"x_max":703,"o":"m 703 -1 l 508 -1 l 210 314 l 210 0 l 71 0 l 71 972 l 210 972 l 210 444 l 435 638 l 646 638 l 344 374 l 703 -1 z "},"ₗ":{"ha":451,"x_min":64,"x_max":451,"o":"m 451 33 q 378 -2 419 11 q 300 -15 336 -15 q 207 1 250 -15 q 132 48 164 18 q 82 118 100 78 q 64 206 64 158 l 64 969 l 203 969 l 203 247 q 231 158 203 193 q 300 124 258 124 q 378 137 336 124 q 451 174 419 150 l 451 33 z "},"ₘ":{"ha":1160,"x_min":71,"x_max":1106,"o":"m 1106 0 l 967 0 l 967 392 q 955 442 967 418 q 922 485 943 467 q 874 513 901 503 q 814 524 846 524 q 729 500 769 524 q 657 436 689 476 l 657 0 l 518 0 l 518 392 q 506 442 518 418 q 474 485 494 467 q 425 513 453 503 q 365 524 397 524 q 278 508 318 524 q 213 467 239 493 l 213 0 l 71 0 l 71 660 l 214 660 l 214 619 q 294 654 251 642 q 385 667 338 667 q 497 639 444 667 q 589 567 550 611 q 706 640 644 614 q 833 667 767 667 q 937 644 888 667 q 1024 585 986 622 q 1083 497 1061 547 q 1106 392 1106 447 l 1106 0 z "},"ₙ":{"ha":726,"x_min":71,"x_max":671,"o":"m 671 0 l 532 0 l 532 396 q 520 447 532 422 q 488 489 508 471 q 439 517 467 507 q 379 528 411 528 q 282 511 326 528 q 210 467 238 494 l 210 0 l 71 0 l 71 660 l 210 660 l 210 619 q 290 654 247 642 q 381 667 333 667 q 491 645 439 667 q 583 586 543 624 q 647 499 624 549 q 671 396 671 450 l 671 0 z "},"ₚ":{"ha":771,"x_min":71,"x_max":728,"o":"m 589 329 q 573 406 589 369 q 529 469 557 442 q 465 512 501 496 q 388 528 429 528 q 288 509 333 528 q 210 460 242 490 l 210 201 q 288 145 242 165 q 388 125 333 125 q 465 141 429 125 q 529 185 501 157 q 573 250 557 213 q 589 329 589 288 m 728 329 q 701 196 728 258 q 627 87 674 133 q 519 13 581 40 q 388 -14 457 -14 q 294 -1 339 -14 q 210 36 249 13 l 210 -312 l 71 -312 l 71 660 l 210 660 l 210 622 q 294 655 250 643 q 389 667 339 667 q 520 640 458 667 q 628 567 582 613 q 701 460 674 521 q 728 329 728 399 z "},"ₛ":{"ha":611,"x_min":50,"x_max":578,"o":"m 578 203 q 555 96 578 139 q 494 26 532 53 q 403 -11 456 0 q 293 -22 351 -22 q 160 2 222 -22 q 50 71 99 26 l 50 258 q 147 154 83 192 q 290 117 211 117 q 326 117 301 117 q 376 126 351 118 q 421 149 401 133 q 440 197 440 165 q 412 241 440 226 q 340 265 383 256 l 247 286 q 154 319 197 297 q 83 381 111 342 q 54 488 54 419 q 73 566 54 529 q 124 631 92 603 q 199 674 156 658 q 290 690 242 690 q 410 673 353 690 q 517 625 468 656 l 517 465 q 418 528 476 504 q 290 551 360 551 q 222 539 250 551 q 193 488 193 526 q 222 438 193 454 q 293 410 250 421 q 385 390 336 400 q 478 358 435 379 q 549 301 521 338 q 578 203 578 265 z "},"ₜ":{"ha":597,"x_min":29,"x_max":585,"o":"m 585 521 l 306 521 l 306 247 q 333 158 306 193 q 403 124 361 124 q 481 137 439 124 q 554 174 522 150 l 554 33 q 481 -2 522 11 q 403 -15 439 -15 q 310 1 353 -15 q 235 48 267 18 q 185 118 203 78 q 167 206 167 158 l 167 521 l 29 521 l 29 660 l 167 660 l 167 792 l 306 792 l 306 660 l 585 660 l 585 521 z "},"€":{"ha":1042,"x_min":7,"x_max":986,"o":"m 986 819 l 918 675 q 804 774 878 736 q 632 813 731 813 q 452 767 522 813 q 354 646 382 722 l 904 646 l 838 507 l 329 507 q 326 460 326 479 q 329 417 326 444 l 794 417 l 729 278 l 368 278 q 463 169 390 215 q 639 122 536 122 q 803 156 731 122 q 917 236 875 189 l 917 69 q 797 10 878 38 q 618 -17 717 -17 q 336 65 446 -17 q 181 278 226 147 l 7 278 l 76 417 l 147 417 q 146 461 146 436 q 147 507 146 488 l 7 507 l 76 646 l 181 646 q 340 866 218 781 q 639 951 463 951 q 986 819 854 951 z "},"™":{"ha":572,"x_min":19,"x_max":522,"o":"m 229 931 l 144 931 l 144 697 l 106 697 l 106 931 l 21 931 l 21 969 l 229 969 l 229 931 m 521 697 l 483 697 l 483 908 l 388 792 l 292 908 l 292 697 l 253 697 l 253 969 l 292 969 l 388 853 l 482 969 l 521 969 l 521 697 z "},"←":{"ha":2776,"x_min":0,"x_max":2776,"o":"m 2776 224 l 2583 224 l 2407 413 l 2313 413 l 2490 224 l 2296 224 l 2121 413 l 2026 413 l 2204 224 l 2010 224 l 1835 413 l 707 413 l 882 224 l 0 483 l 879 744 l 707 551 l 1835 551 l 2010 740 l 2204 740 l 2026 551 l 2121 551 l 2296 740 l 2490 740 l 2313 551 l 2407 551 l 2583 740 l 2776 740 l 2600 551 l 2776 551 l 2776 413 l 2600 413 l 2776 224 z "},"→":{"ha":2774,"x_min":0,"x_max":2774,"o":"m 2774 483 l 1892 224 l 2067 413 l 943 413 l 767 224 l 574 224 l 750 413 l 657 413 l 481 224 l 286 224 l 464 413 l 369 413 l 194 224 l 0 224 l 178 413 l 0 413 l 0 551 l 178 551 l 0 740 l 194 740 l 369 551 l 464 551 l 286 740 l 481 740 l 657 551 l 750 551 l 574 740 l 767 740 l 943 551 l 2067 551 l 1894 744 l 2774 483 z "},"∞":{"ha":1085,"x_min":54,"x_max":1031,"o":"m 265 231 q 117 295 179 231 q 56 450 56 360 q 119 623 56 558 q 282 688 183 688 q 413 647 357 688 q 518 542 469 606 l 524 542 q 793 710 649 710 q 964 641 897 710 q 1031 467 1031 572 q 963 276 1031 349 q 792 204 896 204 q 644 246 708 204 q 511 374 581 288 l 506 374 q 463 326 481 344 q 413 283 444 308 q 343 244 381 257 q 265 231 306 231 m 565 472 q 680 351 628 390 q 793 313 732 313 q 900 356 860 313 q 940 463 940 399 q 898 577 940 533 q 782 621 856 621 q 565 472 671 621 m 276 318 q 463 446 378 318 q 274 578 365 578 q 180 544 215 578 q 144 454 144 511 q 183 357 144 396 q 276 318 221 318 z "},"∫":{"ha":519,"x_min":0,"x_max":506,"o":"m 114 -56 q 133 28 133 -33 l 133 624 q 158 794 131 725 q 257 901 185 864 q 506 911 350 949 l 506 785 l 499 778 q 325 785 403 826 q 273 720 285 758 q 264 622 261 682 l 264 4 l 263 3 l 263 -50 q 229 -154 263 -107 q 15 -229 158 -254 q 0 -219 0 -224 l 0 -86 l 47 -92 q 114 -56 94 -79 z "},"∬":{"ha":1039,"x_min":0,"x_max":1025,"o":"m 633 -56 q 653 28 653 -33 l 653 624 q 677 794 650 725 q 776 901 704 864 q 1025 911 869 949 l 1025 785 l 1018 778 q 844 785 922 826 q 792 720 804 758 q 783 622 781 682 l 783 4 l 782 3 l 782 -50 q 749 -154 782 -107 q 535 -229 678 -254 q 519 -219 519 -224 l 519 -86 l 567 -92 q 633 -56 614 -79 m 114 -56 q 133 28 133 -33 l 133 624 q 158 794 131 725 q 257 901 185 864 q 506 911 350 949 l 506 785 l 499 778 q 325 785 403 826 q 273 720 285 758 q 264 622 261 682 l 264 4 l 263 3 l 263 -50 q 229 -154 263 -107 q 15 -229 158 -254 q 0 -219 0 -224 l 0 -86 l 47 -92 q 114 -56 94 -79 z "},"∭":{"ha":1558,"x_min":0,"x_max":1544,"o":"m 1153 -56 q 1172 28 1172 -33 l 1172 624 q 1197 794 1169 725 q 1296 901 1224 864 q 1544 911 1389 949 l 1544 785 l 1538 778 q 1364 785 1442 826 q 1312 720 1324 758 q 1303 622 1300 682 l 1303 4 l 1301 3 l 1301 -50 q 1268 -154 1301 -107 q 1054 -229 1197 -254 q 1039 -219 1039 -224 l 1039 -86 l 1086 -92 q 1153 -56 1133 -79 m 633 -56 q 653 28 653 -33 l 653 624 q 677 794 650 725 q 776 901 704 864 q 1025 911 869 949 l 1025 785 l 1018 778 q 844 785 922 826 q 792 720 804 758 q 783 622 781 682 l 783 4 l 782 3 l 782 -50 q 749 -154 782 -107 q 535 -229 678 -254 q 519 -219 519 -224 l 519 -86 l 567 -92 q 633 -56 614 -79 m 114 -56 q 133 28 133 -33 l 133 624 q 158 794 131 725 q 257 901 185 864 q 506 911 350 949 l 506 785 l 499 778 q 325 785 403 826 q 273 720 285 758 q 264 622 261 682 l 264 4 l 263 3 l 263 -50 q 229 -154 263 -107 q 15 -229 158 -254 q 0 -219 0 -224 l 0 -86 l 47 -92 q 114 -56 94 -79 z "},"ﬁ":{"ha":508,"x_min":11,"x_max":486,"o":"m 486 838 q 415 863 447 860 q 350 867 382 867 q 286 829 311 867 q 261 739 261 792 l 261 638 l 481 640 l 481 638 l 481 497 l 481 0 l 343 0 l 343 497 l 261 497 l 261 1 l 122 1 l 122 499 l 11 499 l 11 636 l 122 636 l 122 767 q 140 858 122 815 q 189 933 158 901 q 260 984 219 965 q 349 1003 301 1003 q 418 994 381 1003 q 486 975 456 986 l 486 838 z "},"ﬂ":{"ha":890,"x_min":11,"x_max":868,"o":"m 868 35 q 794 -1 836 13 q 717 -14 753 -14 q 624 3 667 -14 q 549 49 581 19 q 499 119 517 79 q 481 207 481 160 l 481 497 l 261 497 l 261 3 l 122 3 l 122 499 l 11 499 l 11 636 l 122 636 l 122 767 q 140 858 122 815 q 189 933 158 901 q 260 984 219 965 q 349 1003 301 1003 q 418 994 381 1003 q 486 975 456 986 l 486 971 l 619 971 l 619 249 q 647 160 619 194 q 717 125 675 125 q 794 138 753 125 q 868 175 836 151 l 868 35 m 481 840 q 414 864 444 860 q 350 867 382 867 q 286 829 311 867 q 261 739 261 792 l 261 638 l 481 638 l 481 840 z "}}}
